<svg id="svg_aguascalientes" class="svg-state outline-hidden" viewBox="391.52 259.62 26.19 21.11" xmlns="http://www.w3.org/2000/svg" height="100%" width="100%" class="outline-hidden s-JsMupBSbUdcr">
  <path class="region1 dot-map" id="svg_aguascalientes_San_José_de_Gracia" d="m404.64 268.17-.01.09-.16-.06-.15-.05-.35-.14-.15.92-.15.05-.66.2.04.85.01.16v.23l.01.08h-.04l-.07.11-.01.11-.15.03-.09.24-.01.04-.04.29-.03.01.2.06.07.05h.02l-.03.04-.01.02-.01-.01-.04.01-.15.01-.24.02-.16.02-.02.03-.05-.01v.04l-.01.01-.03.05v.05l-.06.01-.15-.08h-.01l-.04.02-.04.01v-.01l-.11.01-.02-.06-.09-.32-.01.04-.12-.05h-.08l-.03.01-.03-.01h-.05l-.02.01-.03.01-.01.01h-.03l-.02-.02.01-.13-.17-.03h-.12l-.02-.01-.02.03-.02.06-.02.02h-.02l-.01.11v.04h.03v.02l.02.01h.07l.01.01v.04l-.01.01v.03l-.03.03.02.03.02.02.01.03.03.02h.01l.01-.01.04-.03h.01l.01.02v.03l.01.02v.02l.01.03v.06l.02.02.02.02.01.01v.01l.01.03.01.03v.05l.02.02.02.05-.02-.02-.02-.01-.02-.01h-.02l-.01.01-.01-.01h-.02l-.01.01h-.05l-.05-.02-.01-.04-.02-.01-.03.02-.02-.02-.02-.01-.02-.01-.02-.01-.01-.02v-.01l-.04-.01-.03-.01v-.04h-.01l-.03.04-.03.04-.35.05h-.03l-.17.02-.02.02-.03.02h-.03l-.02-.01-.01.01-.01.01-.01.01-.01.01-.03.03-.03-.05-.01-.02-.02-.03-.01-.01h-.02l-.02-.01h-.02l-.01.01-.02.01-.03.01h-.08l-.02-.01-.08.11-.02.03-.02.08-.05-.01-.29-.04v-.01l-.05-.04-.02-.01h-.04l.01-.01v-.01l-.01-.01-.02-.01H399.03l-.14-.02v-.01l.09-.26-.03-.01-.05-.04.02-.04v-.02l-.01-.02-.01-.01v-.02l-.01-.03-.01-.02-.02-.01-.01-.02h-.01l-.01-.01V271.41l.01-.05.01-.06.02-.12.04-.22.01-.06-.18-.04-.04-.02-.03.01-.01.01h-.02l-.01-.02h-.02l-.02.01-.06.01-.03-.01.01-.05v-.01l.01-.08.02-.14.04-.22.01-.1v-.02l.01-.11.01-.1-.23-.03V270.2l-.03-.01h-.04l-.03.02h-.04l-.02.01-.01.03-.01.01h-.04l-.02.01-.02.02h-.04l-.01-.03h-.04l-.01.01-.01.01-.02-.02.01-.02.01-.02.01-.04.01-.11.01-.03.18-.17-.03-.11-.09-.34h.01l-.12-.17-.08-.06v-.03l-.01-.01h-.01l-.55-.3-.18.03-.22.06-.01.01v.02l-.03.05-.01.01-.01.01-.02-.01h-.01v-.01H396.79l-.01-.01h-.01l-.01.01h-.01l-.02-.01h-.02l-.02-.01.04-.14h-.02l-.03-.02v-.01l-.03-.01-.02-.03.01-.03v-.03l-.02-.01-.05-.01-.04-.02-.03-.01-.03.02-.02.02-.03.01-.02.04v.05l-.01.01.04.05h-.03l-.03.01-.02.02-.01.02-.01.01-.01.07-.01.02h-.01l-.03.02h-.05l-.09-.01v-.02l-.01-.04-.02-.04.04-.06.13-.18.01-.04v-.02l.02-.03-.01-.01.01-.03v-.01l-.02-.01-.04-.02-.16.04.01-.01.02-.01.02-.01.01-.01v-.02l-.01-.04-.01-.05v-.13l.01-.04v-.02l.01-.02v-.01l.02-.1.02-.01.03-.01h.02l.01-.01.02-.02.03-.05.03-.05.01-.01v-.02l-.04-.04-.01-.01-.01-.01v-.01l-.01-.04v-.08l.01-.01.02-.01.02-.01h.02l.01-.01.02-.02.01-.02.01-.01v-.02l.01-.02v-.01l-.01-.02v-.01l-.02-.01-.01-.01v-.01l.02.01.02.01h.07l.02-.02h.01l.02-.02.03-.01.02-.01v-.07l.01-.02v-.02l.03-.03.02-.03.02-.04h.01v-.03l.01-.03.01-.01.01-.01v-.01l-.02-.04-.01-.02-.04-.05-.03-.06-.03-.03-.02-.03.01-.03v-.07l-.02-.04v-.04l.01-.02.01-.02.01-.02.03.02.03.01.03-.01h.04l.02-.01.01-.01.01-.01.01-.03.01-.01.01-.02.01-.02v-.03l-.02-.06-.02-.03-.02-.02-.01-.04v-.05l-.01-.04v-.02l.01-.02.01-.01h.03l.03.01h.03l.02.01.02.01.01.03.02.01.01.01.02.01.03-.01H397.04l.02-.01.02-.02.02-.01.03-.01-.01-.02h-.02l-.02-.01h-.03l-.01-.01v-.01l.03-.01.02-.01.02-.01.02-.03.01-.04.02-.02v-.01l.01-.02.01-.01.01-.01.03-.01.01-.02.01-.01.02-.01.02-.01v-.02l.01-.03v-.05l.01-.05-.01-.04-.01-.03v-.02l.01-.02.01-.02v-.02l.01-.02v-.03l.01-.04.01-.03.02-.03.03-.03.03-.02.02-.03.01-.02-.06-.01.01-.05-.72-.43.01-.32v-.27l.02-.4v-.18h.15l.36.01H398.47l.1.01H399.71l.54.01h.02l.03-.01.31-.03h.03l.02-.01.13-.03.01-.02.11-.22.01-.02h.04l.01-.01h.11l.01.01.02-.01.03.01h.03l.03.01.03.01.01-.05.36-.07h.02v-.01h.04l.05-.01.03-.03.01-.02.03-.03.01-.02v-.1l-.01-.03.01-.02.01-.02.01-.04-.01-.01.01-.01.01-.01.01.01.01.01.01.01h.03l.01-.02.01-.02h.01l.15-.01.02.28h.01l.12.61-.04.02-.04.03-.04-.01h-.04l.02.05-.02.05-.01.04v.05l-.03.02.03.02.04.01-.01.06.06.01.03.01.02.28.17-.22.07-.04v.78l-.06-.02.01.02.02.06.02.01.01.01v.01l-.02.05v.01l.04.02.02.02.08-.01.02.01.02.01h.04l.01.01h.01v.01l.01.02.01.02.01.01.02.02.05.01h.04l-.01-.06.04-.02.02-.02.01-.01.02-.01H402.92v-.01h.04l.01.01v.01l.02.01h.01l.01.01.03.01h.03l.01.01h.01v.02l.01.01h.04l.02.02.01.01.02.02h.06l.03.01.02.03.19-.09.11.07H403.69l.01.01.03.02h.02v-.01h.02v-.02l.02.01h.05l.03.02.01-.01v-.01l.02.01h.09v-.01l.07.01h.07l.04-.01.02-.01h.01l.06-.01.1-.02.1-.02-.05.08-.01.01-.05.12-.01.06-.08.34v.03l-.01.03-.58.01h-.01l.42.23-.12.2h-.01l.01.01V266.72l.01.06v.09l.05.01h.04l.12.02v.01l-.09.35-.1.4v.02l-.01.04.07.03.04.02.04.02.05-.05.03-.06v-.01l.04-.05.03-.01.09.01.06.01h.02l.01-.01.04-.01h.01l.01-.01v.02l.04.01-.02.05h-.01v.02l-.01.02h.01l-.01.04v.05l-.02.01v.03l-.02.11-.01.06.17.15Z"/>
  <path class="region1 dot-map" id="svg_aguascalientes_Tepezalá" d="M409.47 262.43h.02l.1.01h.03l.1.01.06.01-.05.85v.02l-.03.56.73.09-.07.39v.04l-.08.72-.42.19.35.47v.27l-.01.01h.01l.01.01h.01v.01h-.02v.01l.03.01.09.04-.1.05-.04.04-.04.02-.02.02v.02l-.01.01-.01.01v.06h-.01v.01l.02.03v.02l.01.01v.03l.01.02v.03l.01.02.01.01.01.01V266.64h.01l.04.07v.01l-.01.05-.01.04-.01.03.04.05v.01l.03.02h.01v.01l.01.01.01.03.03.07h-.01v.04l.01-.01v-.01h.01v.12h.01v.01l.03.05-.01.01-.02.01v.03l-.01.05h-.03l-.01-.01-.01-.02h-.02l-.01.01h-.01l-.01.01h-.01l-.01-.02-.01.01.01.01-.04-.01h-.01v.02l-.01-.01-.01.02-.01.03-.01.06-.28-.08-.04-.05-.38.36-.01.15-.01.04-.07.19-.03-.01-.17-.09-.07-.21-.01-.02v-.01l-.06-.18-.01-.03-.01-.03-.02-.05-.02-.06v-.01l-.04-.04-.01-.03.01-.03v-.03l-.02-.03v-.02l-.01-.02h-.01l-.01-.01h-.03v-.01h-.01l-.01-.01h-.04v.01h-.02v.01h-.04l-.01.01h-.07v.01h-.01v.01h-.04v.01h-.08l-.04-.01-.03-.02h-.01l-.01-.01-.02-.02-.01-.01h-.01l-.01-.01h-.1l-.02-.02h-.04l-.02-.01-.02-.01-.03-.01-.01-.01h-.01l-.02-.02h-.02v-.01l-.04-.02-.01-.01h-.01l-.05-.01h-.01l-.01-.01h-.01l-.02-.01-.02-.01h-.01l-.02-.01h-.01l-.02-.02v.05l-.03-.01h-.05l-.03-.01H407.64l-.01-.01h-.07l-.02-.01H407.48l-.02-.01H407.4l-.03-.01h-.04l.01-.03v-.05l.01-.01-.02-.01v-.01l.01-.02h.01v-.05l-.01.01h-.02l.01-.02v-.02h-.01l-.04-.01h-.02v-.01l-.01-.01h-.01v-.01l.02-.01-.01-.02-.01-.01h-.01v-.01h-.22l.01-.04v-.05h-.1l-.08-.01-.08-.01h-.02l-.13-.01h-.02v-.08l-.01-.14v-.15l-.01-.06V265.9l.01-.03v-.05l-.01-.06V265.61l.01-.01-.01-.01V265.53H406.66l.01-.01h.07l.04-.01h.07l.07-.01.06-.01h.06l.06-.01.02-.01h.03l-.02-.03-.02-.03.02-.01v-.03l-.02-.02h-.03l-.01-.01.01-.01.02-.01h.01v-.01l-.02-.02-.01-.02.02-.02.01-.01.01-.01v-.01l.04-.03.01-.01v-.03l.01-.01h-.01l-.02-.02-.01-.01h-.01l-.01-.01h-.01v-.01l.01-.03-.02-.02v-.03l-.01-.01v-.05h-.01v-.01h.01v-.03l.02-.01.01-.01h.01l.01-.01v-.02l-.01-.01h-.01v-.01h-.04v-.02h.01v-.03h.01v-.02h.01l.01-.01v-.02l-.01-.01-.01-.01-.01-.01h-.01v-.04l.03-.01.02-.01.01-.01h.01v-.01l-.02-.05-.02-.02v-.01l-.01-.01-.01-.01v-.02l.01-.01v-.03h.04l.01.01h.01l.03-.02h.03v-.01l.01-.03.01-.02.01-.02-.04-.01-.01.03h-.03l-.05-.04v-.02l.02-.04.02-.03h.03v-.01l-.02-.07v-.04l.04-.01h.03l.02-.01h.01l.05.03.02-.01v-.02l-.02-.02v-.03h-.01v-.05l.01-.01-.02-.02-.02-.01-.01-.01h-.01l-.01-.02h-.01v-.02l.01-.01.01-.01.02.01h.01l.02.01h.01l.01-.01.01-.01v-.03l-.01-.01v-.03l.01-.01.01-.01.01.01.02.02h.05l.02-.01h.01v-.01l.04-.01h.01l.02-.05v-.06l.01-.01.06.01.09.01.04.01.01-.07h.04l.04.01h.04l.03.01v.07l.06.01h.03l.09.01v-.07l.01-.13h.04l.04.01h.01v-.13l.02-.18h.05l.06-.01.06-.01.06-.01.08-.01.08-.02.17-.02v.01l.06-.01-.01-.02-.04-.01.05-.13.03-.13v-.01l.05-.22v-.03l.01-.02h-.05v-.01l-.07-.07h.01l-.13-.18.02-.05h.07l.03-.18.01-.07h.3l-.06.21-.01.02-.01.04-.01.04.47.05Z"/>
  <path class="region1 dot-map" id="svg_aguascalientes_El_Llano" d="m416.14 272.26.18.19.12.46.1-.14-.08-.02.01-.01h.02l.01-.01.09-.1.02-.01h.02l.08-.05.06-.01h.01l.1.02.02.01.02-.01h.02l.01-.05.03.01.02.03.11.03.03.02.03.01v.01h.14l.01-.01.05-.01.05.01.04-.01.25.06-.02.22-.05.65-.23-.02-.83-.05-.44.14-.09.04-.08.02-.07.03-.07.02-.14.05-.05.02-.07.02-.15.05-.12.04-.11.04-.07.02-.08.03h-.01l-.04.01-.04.02-.06.02-.09.03-.05.01-.01.01-.1.03-.07.03-.25.08-.03.01-.02.01-.12.04-.16.06h-.01l-.13.04-.21.07-.05.02-.53.19-.03.28h-.06l-.37-.05h-.01v.36l-.01.08h-.06V275.54l-.02.05.01.08-.03.01-.03.02-.02-.01-.03.01-.09.05-.14.09v.01l.01.01.02.01.03.05h-.03l-.01.03h-.01l-.02.07-.03.05v.02h-.01v.01l-.01.03-.01.06v.02l-.04.03-.06.04-.05.03-.02.04-.04-.02-.01-.01-.01-.01-.05-.03-.02.03-.02-.01-.03.09-.06-.02-.01-.01h-.01l-.09-.01h-.01l-.03-.01-.11-.03-.1-.02h-.01l-.04-.01-.03-.01h-.01l-.01.01-.07-.02h-.01l-.04-.01-.02-.01h.01l-.04-.03h-.04l-.08-.03h-.03l-.03.04-.03.05H410.78l-.08-.01-.04-.01-.06.15-.06-.01-.12-.03-.05-.01h-.02l-.12-.01v.04h-.01v.04h-.05l-.06-.01-.1-.02.01-.06-.05.04-.01.1-.07-.01-.01.1-.05-.01h-.01l-.06-.01-.07-.01.01-.09.02-.13.01-.01v-.06l.03-.17v-.06l-.25-.04.03-.21.01-.03v-.05l.01-.02v-.01l.01-.07v-.04l.01-.04-.06-.01-.06-.01h-.05l-.04-.01-.03-.01h-.04l-.04-.01h-.01v-.01l.01-.05.01-.06v-.03l.01-.04.01-.02v-.01l.02-.02v-.01l.02-.03-.16-.02h-.05v-.05l.01-.3.01-.15v-.05l.01-.13.45.04v-.09l.02-.3.01-.23v-.11l.01-.16V273.46h-.01l-.12.06-.04.02V273.24h-.1l.01-.09v-.04l.04-.31h.06l.04.01h.07l.08.01.2-.02.18-.01h.2l.01-.06-.1-.02-.05-.04-.03-.03.01-.08v-.02l.01-.01v-.06l.01-.02.01-.07v-.02l.01-.05.04-.16v-.02l.02-.13.01-.05.03-.16.24.03.25.03.11.01.02.02h.01l.01-.01h.02v.03h.13v.2l.08.1.13-.01-.05-.28.12.02.36.05.15.01.03-.05-.05-.05-.02-.02.06-.1-.06-.05-.03-.02h-.01l-.21-.1-.03-.01-.04-.02-.02-.01h-.01l-.04-.04-.14-.11-.01-.01-.07-.06-.01.01h-.01l-.01-.01v-.01l-.01-.01-.01-.01v-.01l-.01-.41-.03-.03.02-.24.23.05.6.1.08-.43v-.03l.02-.08.02-.14h.06l.02.01.01-.01v-.01h.01v-.03h.04v.01l.01.01v.02h.01v.02h.01v.01h.01v.01h.01l.01.01h.01l.01.01h.02v-.01h.02l.01-.01v-.03h.02v-.01h.01v-.02h.01v-.05l.01.01.01.01.01-.01v-.01l.01-.01v-.02h.01v-.01h.01v-.01h.02l.02-.01.02-.01.02-.01h.01l.05-.02.02-.01.03-.01h.02l.03-.01h.01l.03.01h.01l-.01-.01-.01-.01v-.02h-.01l-.02-.02h-.01v-.01l-.01-.01h-.01l-.01-.01h-.01l-.01-.01h-.01v-.02h-.01l-.01-.01-.01-.01v-.01h-.01l-.01-.01h-.01l-.01-.01h-.02v.01l-.01.01v.03h-.02v-.01h-.03v-.01h-.03l-.01-.01h-.01l-.01-.01-.01-.01v-.02l-.01-.01v-.01l-.01-.01h-.01l-.01-.01h-.02l.19-.12h.01l.09-.04.09-.04.01-.01.06.08.01.02.01.01.03.05.02.02.06.09.09.13.01.01.01.01h.01l-.01.02-.01.01v.01h-.01l-.01.01h-.01l.03.08v.09l.07.07.08.05-.02.03.06.05.1.06.09-.12.01-.04.08.01.42.01v.05l-.05.29-.03.23-.01.03-.01.08v.03l-.01.08.1-.01h.03l.14-.02.18-.01H414.63l-.1-.22.15.12.06.05v.06l.13.01.12.13h.01l.49.5.04.03.01.01.08.08.52.52Z"/>
  <path class="region1 dot-map" id="svg_aguascalientes_San_Francisco_de_los_Romo" d="m410.01 269.31.06.38-.03.12v.01l-.08.33-.02.07-.01.05-.02.05h.01l.04.02-.01.01.05.03.11.07.05.03-.05.01-.05.01-.06.03h-.01v-.02l-.04.01-.02.01-.01.02h.01l-.01.01-.06.02v.01h-.04l-.03.02-.01.01-.01.01-.02-.01h-.01l-.02.02h-.02l-.03.06v.01l-.07.04-.04.04.02-.03v-.22l-.33.02.12-.35-.21-.03-.05-.01-.01.02-.07.18-.42-.07-.13-.02h-.01l-.03-.01h-.05v.01h-.03v.02h-.01v-.04l-.03-.01-.01.05-.01.06-.01.04-.01.08-.34-.06-.01.3v.22h-.09l-.01.02-.05.27.07.06h.13l.07.01h.1l.06.06.04-.02v.01l.01.01.06-.02.12.59h-.06l-.2-.03-.12-.02-.24-.03-.04.26-.02.08-.01.01-.1.1-.08.03-.03.02-.05.02-.19.1-.03-.05-.02.02-.04.02-.01.01h-.01l-.02.02-.05.01-.02.02h-.03l-.03.01-.01.01h-.04l-.01.02v.02l-.04.03h-.01l-.01.01-.03.02-.05.01-.01-.03.01-.12v-.07l-.11-.01.01-.03-.08-.01h-.01l.02-.04v-.02h.01v-.01l.01-.01v-.01l-.04-.01-.06-.01-.05-.01h-.01l.01-.03.01-.02v-.02h.01l.03-.1.01-.02.02-.05.03-.07.01-.05-.13-.04-.08-.03-.08-.03h-.04v-.01l-.01.03v.02h-.01v.02h-.04v-.13l.01-.01v-.01l.01-.01h.01l.03-.01.05-.01v-.02l-.01-.03.03-.04h.02V271.65l.01.01-.01.01v.01l-.01.02.06.02.05.02.02.01.01-.01.03.02.04.01.04.02.03.01h.02l.03.01.01-.03h-.01v-.01l.01-.01.02-.05h-.03l.01-.01h-.01v-.01h.01v-.02h.01l.01-.02-.01-.01-.03-.01v-.01l-.03-.03-.03-.01h-.02v-.02l-.03.01h-.06l-.04.01h-.04l.01-.01v-.02l.05-.11v-.01l.09-.1.02-.06-.02-.01.01-.02.02-.04-.11.03-.01-.01-.02-.01-.01-.01-.02-.02h-.01l-.01-.01-.01-.02-.01-.01h-.04l.01-.14v-.03l.03.01h.01l-.02.05h.03l.06.01.03.03.04.01.05.01h.03l-.01-.01v-.01l.01-.01.01-.02h.03l.01.02v.04h.02v-.01l.01-.01v-.05l.01-.01.01-.01.01-.01.01-.01h.01l.02-.01h.02l.02-.01h.01l-.01-.01-.01-.02h.02v-.02l-.02-.02h.01v-.01l-.02-.01v-.05l.01-.01v-.13H406.74l-.03-.01H406.49v-.04l.01-.07v-.03l.01-.03v-.04l.01-.07v-.03h-.26l-.08.01h-.09l-.05.04h-.02l-.06.01-.01-.01h-.01l.01-.01-.02-.01h-.01v-.02h-.09l-.01.03v.01l-.02.07v.01l-.01.01-.01.02-.01.01-.01.02v-.02l.01-.01v-.03h-.01v-.04l-.01-.07.08-.08-.09-.04.03-.05.06-.09.02.01.03-.07h.01l.04-.05h.01l.01-.01.01-.01.01-.01.01-.01.02-.04-.01-.01.06.01.01.01.01-.01.05-.04.03-.02.03-.03.02-.02h.01l.02-.02.02-.04.03-.03.06-.1.01-.02v-.02l-.02-.05-.02-.05v-.16l-.11-.02h-.05l-.07-.01v-.08l.01-.09v-.05h.05l.06.01v.04h.1v-.02h.02l.05.01v-.03h.02v-.02l.01-.02.01-.03.01-.02.01-.01h.02l.01.01h.01V269h.01v-.01l.01-.01.01-.01.02-.01.01.01h.02v.01h.03l.03.01h.05l.01.01.01.01v.02h.01v.02l.01.01v.01h.01v.01l.01.01h.02v.01h-.01v.01l.01.01.01.02.02.02.01.02.01.01v.01h.11l.02.01h.06l.01-.2h.02l.06.01h.07l.05.01h.11l.08.01h.05l.06.01h.1l.04.01h.02l.02-.01h.06l.1-.01h.03l.01.01.01.01.01.01.01.01.01.01.01.03v.01l.01.01.01.01-.02.03-.01.01-.01.01-.01.02-.01.01v.01h-.01l.01.01.01.01.02.01.02.01h.01l.03-.01h.02v-.02l.13.03.01.01.06.04.03.03h.03l.01-.01.02.01h.01l.04.02.03.02v.01l.05-.01.01.04.02.03.01.03.08-.03v.05h.04l-.01.02.01.02-.01.03v.01l-.01.02h-.01l-.02.01h-.02v-.01H408.44v.02h-.01v.01h.01v.02h.01v.01l.02.01.02.02v.02h.01v.02l.01.02.01.01v.02l-.01.03.01-.01.01-.02h.01l.02-.01h.03l.01.01.02-.01.01-.02v-.01h.04v-.06l.01-.02v-.07l.03-.01.04-.03-.01-.03.16.03.02-.07v-.02l.01-.03.03-.12.01-.06.01-.02.01-.05.01-.05v-.02l.01-.04h.07l.16.01.05-.08.09-.16.02-.04.04-.13.01-.01.09.04.08.02-.01.06v.11l.07.03h.01l.02.01.04.03h.03l.07.06-.01.01.03.02.01.01.04.09v.05l.01.01.01.02.07.06Z"/>
  <path class="region1 dot-map" id="svg_aguascalientes_Aguascalientes" d="m411.09 270.62-.02.24.03.03.01.41v.01l.01.01.01.01v.01l.01.01h.01l.01-.01.07.06.01.01.14.11.04.04h.01l.02.01.04.02.03.01.21.1h.01l.03.02.06.05-.06.1.02.02.05.05-.03.05-.15-.01-.36-.05-.12-.02.05.28-.13.01-.08-.1v-.2h-.13v-.03h-.02l-.01.01h-.01l-.02-.02-.11-.01-.25-.03-.24-.03-.03.16-.01.05-.02.13v.02l-.04.16-.01.05v.02l-.01.07-.01.02V272.53l-.01.01v.02l-.01.08.03.03.05.04.1.02-.01.06H410.05l-.18.01-.2.02-.08-.01h-.07l-.04-.01h-.06l-.04.31v.04l-.01.09h.1V273.54l.04-.02.12-.06h.01v.16l-.01.16v.11l-.01.23-.02.3v.09l-.45-.04-.01.13v.05l-.01.15-.01.3v.05h.05l.16.02-.02.03v.01l-.02.02v.01l-.01.02-.01.04v.03l-.01.06-.01.05v.01h.01l.04.01h.04l.03.01.04.01h.05l.06.01.06.01-.01.04v.04l-.01.07v.01l-.01.02v.05l-.01.03-.03.21.25.04v.06l-.03.17v.06l-.01.01-.02.13-.01.09.07.01.06.01h.01l.05.01.01-.1.07.01.01-.1.05-.04-.01.06.1.02.06.01h.05v-.04h.01v-.04l.12.01h.02l.05.01.12.03.06.01.06-.15.04.01.08.01H410.85l.03-.05.03-.04h.03l.08.03h.04l.04.03h-.01l.02.01.04.01h.01l.07.02.01-.01h.01l.03.01.04.01h.01l.1.02.11.03.03.01h.01l.09.01h.01l.01.01.06.02.03-.09.02.01.02-.03.05.03.01.01.01.01.04.02-.03.06v.01l-.06.09-.02.04-.08.14-.04-.01h-.01l-.03-.01-.2-.09-.17.14-.08.06-.04.03.04.05.04.04.03.05.03.04.05.05.03.04h-.07l-.09.05h-.01l-.14.06v.03l-.01-.01h-.04l-.03.01-.01.01-.01.02-.01.03-.02.02.01.02.01.02.01.03.01.01v.01l-.01.01v.01l-.01.01-.02.01h-.03v.04l.01.02h-.06l-.07.04-.04.06-.02.04-.03-.01-.01.01-.03.02h-.03l-.02.04.02.02.05.04-.02.04v.01l-.03.07-.01-.02-.09.03-.03-.03-.12.27v.01l-.01-.01-.06-.02-.02.05-.03.04-.1.03-.05.04-.06.19-.08.19-.04-.02-.01.01-.03.03h-.01l-.05-.03-.02.01-.03.01-.05.04-.09.08-.1-.02-.19-.04v-.09l-.12-.02-.06.15-.06.17-.05.15-.24-.04-.1-.02-.04-.01-.03-.01-.35-.06-.15-.03v.21l-.06.04-.05.04v.09l-.01.03v.01h.01l.01.02-.01.02-.02.02-.06.09.03.02-.12.26h.01l-.01.01-.01.01v.01l-.02.04v.02l-.01.02-.03.01-.04.02-.03.02-.03.02-.02.01-.02.01-.06-.01-.04.04-.04-.01-.03-.01H407.39l-.05-.01-.05-.01-.06-.04-.21.02h-.16l-.18.01H406.62l-.04-.04-.03-.03v-.01l-.04-.08-.01-.06.01-.04h-.02l-.09-.01-.05-.01-.07-.01h-.02l-.1-.01H406.07l-.07-.01h-.07l-.03-.01v.03l.02.05.02.04.01.02-.01.07-.01.06v.04l.06.01h.01l.03.01h.01l.03.01h.01l.03.01-.04.06-.02.05-.01.01-.05.09-.01.01-.01.03h-.01l-.06.11-.05.11-.11.19-.18-.04h-.01l-.08-.04-.05.07-.07.12-.08-.03-.07-.03v-.01l-.22-.09-.18-.1-.16-.08-.33-.17-.07-.2-.12-.02-.15-.03-.02.03-.08-.01-.02-.01-.03-.01h-.03l.01-.03-.23-.07-.1-.02-.11-.03-.07-.02v-.01l.02-.06.05-.09-.09-.01-.06-.01-.07-.01-.03-.02-.03-.01-.07-.02-.03-.02h-.01l-.09-.04-.04-.01-.03-.01-.13-.01-.03-.01-.07-.01h-.06l-.09-.01-.02-.03-.06-.05-.05-.04-.02-.02-.03-.03-.02-.02-.01-.01-.04-.01h-.03l-.03.02.02.03.01.04h-.02l-.07-.01H402l-.06-.01.05-.04.02-.01h.03l.01-.03h.05v-.05l-.01-.02h.01l.03-.02.03-.01v-.03l-.01-.01h-.02l-.02-.02-.01-.02v-.07l-.04-.03.02-.03-.03-.04-.01-.05-.16.01-.09-.01-.04.01-.03.01-.05.02-.04.03-.07.01-.01-.01v-.03l-.01-.02v-.03l.01-.09-.09-.03v-.01l-.04-.01-.07-.02-.07-.04h-.02l-.06-.03-.02-.01-.06-.03-.41-.2-.19-.09-.08-.03h-.01l-.12-.06-.03-.02-.4-.19.04-.06v-.01l-.03-.01-.04-.02h-.02v-.01l-.11-.04-.07-.07-.02-.03-.07-.02-.09-.01-.1-.01h-.03l-.02-.01h-.07l-.07.03-.06.01h-.01l-.01.01-.03.01h-.02l-.06-.02-.01-.01h-.09l-.03-.01v-.08l.13.02v.01h.03v-.08l.15-.03.1-.06v-.01l-.01-.02.01-.03.04.02.01-.04.14.01-.01-.01h.01v-.01l.01-.01v-.03l-.01-.03-.01-.01.01-.01.01-.01-.01-.02.01-.02h-.01v-.04h.01v-.01l-.01-.01v-.01h.02v-.02l.01-.01.01-.01.01-.01v-.02l.01-.02.02.01.01-.01.02-.01.01.01h.01v-.01h.01l.05.03.01-.05-.02-.01-.04-.03-.01-.01-.02-.02-.02-.08.01-.01.02-.08.02-.03.04-.01.04-.01.03-.01h.01l.04-.01.19.01h.12l.14-.09-.05-.05-.01-.02-.02-.02-.04-.05-.1-.05-.01-.06-.04-.06-.12-.14.1-.1.03-.02.12-.07h.01l.16-.06.2.06h.03l.05-.13.04-.03.02.01.04.04.08-.01.01.02.01.01h.03l.09-.05.07.03.03.02.04-.04.06-.01.03-.02h.01l.53-.02v.01l-.05.06.36-.01-.03-.07h.16l.01-.01.06-.14.06-.15.03-.03h.04l.03-.01.15-.1.05-.06-.01-.03.01-.01h.03v-.01l.02-.02.02-.03.05-.1-.02-.1.01-.03.01-.02h.01l.01.01.04-.05v-.14l.04-.18.06-.02.01-.02-.02-.03.01-.03v-.01l.02-.02.05-.02.01-.06.03-.02.02-.02.01-.01v-.01h.02l.01-.02v-.01l-.01-.02v-.08l.01-.09.03-.04.03-.02.02-.01h.01l.01-.01.03-.01.03-.01h.01l.01-.01.01-.02.02-.02.01-.01.01-.01.04-.01.03-.01.05-.01h.02l.01-.01.06-.01h.02l.02-.01H403.76l.01-.03-.05-.01-.01-.07v.01h-.06l-.02-.03-.02-.03-.01-.03-.02-.05-.02-.06.03.01.12.01.02.01h.01l-.01-.01.04-.1.06.01.07.01.09.01v.01h.03l.01.02h.04l.02-.01.02-.01.03.02.06.01h.01l.13.03v-.01l.02-.12v-.03l.01-.03.01-.07.01-.03.06.04.02.01.06.01h.03l.24.04.03.01V273.04h.05v-.01l.12.01h.01l-.01-.03-.01-.01v-.01l-.03-.07-.01-.02v-.02l-.01-.01v-.02l-.01-.01v-.03h-.01l-.01-.03v-.01l-.01-.02h.04l.05.01h.07l.03.01h.08l.01.01h.04l.06.01h.04v.01h.05v.01h.01v.01l.01-.01h.07v.01h.07v.01h.05l.03.01h.04l.01.01h.07v.01h.05V272.76l.01-.03v-.01l-.01-.02V272.53l.11.02.04.01h.03l.09.02h.02l.05.01.04.01h.01l.05.01h.01v-.06h.19l.02-.05.04-.12.01-.01.01-.03.01-.02v-.01l.01-.01v-.02l.01-.01v-.01h.01l.05.01.06.01.04.01v.01l-.01.01v.01h-.01v.02l-.02.04h.01l.08.01-.01.03.11.01V272.5l-.01.12.01.03.05-.01.03-.02.01-.01h.01l.04-.03v-.02l.01-.02h.04l.01-.01.03-.01h.03l.02-.02.05-.01.02-.02h.01l.01-.01.04-.02.02-.02.03.05.19-.1.05-.02.03-.02.08-.03.1-.1.01-.01.02-.08.04-.26.24.03.12.02.2.03h.06l-.12-.59-.06.02-.01-.01v-.01l-.04.02-.06-.06h-.1l-.07-.01h-.13l-.07-.06.05-.27.01-.02h.09v-.22l.01-.3.34.06.01-.08.01-.04.01-.06.01-.05.03.01v.04h.01v-.02h.03v-.01h.05l.03.01h.01l.13.02.42.07.07-.18.01-.02.05.01.21.03-.12.35.33-.02v.22l-.02.03.04-.04.07-.04v-.01l.03-.06h.02l.02-.02h.01l.02.01.01-.01.01-.01.03-.02h.04v-.01l.06-.02.01-.01h-.01l.01-.02.02-.01.04-.01v.02h.01l.06-.03.05-.01.05-.01-.05-.03-.11-.07-.05-.03.01-.01-.04-.02h-.01l.02-.05.01-.05.02-.07.08-.33v-.01l.03-.12-.06-.38.24.01h.33l.28.35.01.01.01.01.06.07v.01h-.01l-.01-.01h-.03v.04l-.01.01v.02l-.04.01-.02.01-.01.01h-.03l-.02.01-.01.01-.01.02-.02.01v.05l.01.01.01.01v.01h.02l.01.01v.04l-.01.01v.01h-.01v.01l-.01.01-.01.01h-.04l-.02-.01v.01h-.02l-.02.02-.01.01-.01.01h-.01l.01.01v.03l.02.05v.05l.01.02.02.02.03.04.02.01v.01l.01.07.08.09.11.03.18.06Z"/>
  <path class="region1 dot-map" id="svg_aguascalientes_Asientos" d="M413.57 265.68v.01l.01.15V265.96l-.01.01-.01-.01v.05l-.01.08.02.01v.02l-.02.01v.11l-.02.08.02.04-.01.47-.01.14H413.18l-.06-.01h-.31l-.03.04h-.01l-.01.02-.02.01-.06.06-.02.02-.01.01-.01.01.01.01h-.01l-.03.04h-.02.01l-.07-.05h-.01l.01.05-.02.02-.02-.01-.02.01v.03l-.02.04-.01.05-.02.02h.02l.69-.01-.02.06-.06.14-.01.04-.03.07-.02.06-.03.07-.05.17.09.03.12.04.17.06.06.02.07.01.13.01.08.01.28.04.11.06v.01h.01l.05.02.01.01.02.01h.02l.04.03h.01l.02.01.02.02.16.08.08.06.04.03.24.16.05.03.12.08.16.1.01.01h.01l.01.01h.01v.01h.01v.01h.02l.03.02v.01l.03.02.26.17.05.03.06.04.03.02.06.04.03.02.03.02.04.03.05.03.03.02.04.03.05.03.05.03.04.03.03.02.05.03.1.06.06.04.15.1.02.01.02.02.03.01v.01l.02.01.03.02.02.02.06.03.01.02.03.01.02.02.05.03.04.03.03.03h.01l.03.02.02.02h.01v.01l.01.01h.02l.01.01.01.01.02.02.01.01.01.01.02.01.01.01.04-.1.01-.03.04-.01.02.03v.01h.1l.01-.02h.01l-.02.03h.01l.03.02h.01l-.01.01h-.01l-.01.05v.01l-.01.01-.06.05-.09.09.03.02h.01l.02.01-.02.02-.02.01v.03l-.01.03v.02l-.01.02v.01h-.01v.02l.03.01v.07l-.01.01v.02l.01.01-.01.03.02.01h.01l.02.01.02.01h-.07V270.74l.01.01v.02h.01v.01h-.01v.01l-.02.05h.01-.03l.03.05v.05h-.01l-.02.05h.01l.04.02-.01.01v.01l-.01.03h-.03l.01.01v.03l.01.01V271.22l.01.02h-.02v.04l-.01.01v.04l-.01.01v.02l-.01.03H417l.02.04H417l-.01.03h-.02l-.01.01-.06.03h-.02l-.02.02h-.01l.01.02h-.05l-.07.03-.06.03-.02.02h-.02l-.02.02-.03.01-.07.04-.16.08-.06.03-.04-.09-.01-.05-.04-.03-.01-.03v-.08l.01-.05h-.07v-.01l-.02-.01v.01h-.01l-.12-.02-.08-.03-.06-.02-.03-.03-.03-.04-.03-.05.03.08.02.05.03.09.15.08.09-.02.01.01.02.05v.01l.01.01-.01.02.01.11.02.02.01.01-.01.09.01.03v.02l.01.01v.02h.01v.03h.01v.16l-.01.02v.02l-.01.01-.02.06-.52-.52-.08-.08-.01-.01-.04-.03-.49-.5h-.01l-.12-.13-.13-.01v-.06l-.06-.05-.15-.12.1.22H414.21l-.18.01-.14.02h-.03l-.1.01.01-.08v-.03l.01-.08.01-.03.03-.23.05-.29v-.05l-.42-.01-.08-.01-.01.04-.09.12-.1-.06-.06-.05.02-.03-.08-.05-.07-.07v-.09l-.03-.08h.01l.01-.01h.01v-.01l.01-.01.01-.02h-.01l-.01-.01-.01-.01-.09-.13-.06-.09-.02-.02-.03-.05-.01-.01-.01-.02-.06-.08-.01.01-.09.04-.09.04h-.01l-.19.12h.02l.01.01h.01l.01.01v.01l.01.01v.02l.01.01.01.01h.01l.01.01h.03v.01h.03v.01h.02v-.03l.01-.01v-.01h.02l.01.01h.01l.01.01h.01v.01l.01.01.01.01h.01v.02h.01l.01.01h.01l.01.01h.01l.01.01v.01h.01l.02.02h.01v.02l.01.01.01.01h-.01l-.03-.01h-.01l-.03.01h-.02l-.03.01-.02.01-.05.02h-.01l-.02.01-.02.01-.02.01h-.02v.01h-.01v.01h-.01v.02l-.01.01v.01l-.01.01-.01-.01-.01-.01v.05h-.01v.02h-.01v.01h-.02v.03l-.01.01h-.02v.01h-.02l-.01-.01h-.01l-.01-.01h-.01v-.01h-.01v-.01h-.01v-.02h-.01v-.02l-.01-.01v-.01h-.04v.03h-.01v.01l-.01.01-.02-.01h-.06l-.02.14-.02.08v.03l-.08.43-.6-.1-.23-.05-.18-.06-.11-.03-.08-.09-.01-.07v-.01l-.02-.01-.03-.04-.02-.02-.01-.02v-.05l-.02-.05v-.03l-.01-.01h.01l.01-.01.01-.01.02-.02h.02v-.01l.02.01h.04l.01-.01.01-.01v-.01h.01v-.01l.01-.01V270l-.01-.01h-.02v-.01l-.01-.01-.01-.01v-.05l.02-.01.01-.02.01-.01.02-.01h.03l.01-.01.02-.01.04-.01v-.02l.01-.01v-.04h.03l.01.01h.01v-.01l-.06-.07-.01-.01-.01-.01-.28-.35h-.33l-.24-.01-.07-.06-.01-.02-.01-.01v-.05l-.04-.09-.01-.01-.03-.02.01-.01-.07-.06h-.03l-.04-.03-.02-.01h-.01l-.07-.03v-.11l.01-.06-.08-.02-.09-.04-.01.01-.04.13-.02.04-.09.16-.05.08-.16-.01h-.07l-.01.04v.02l-.01.05-.01.05-.01.02-.01.06-.03.12-.01.03v.02l-.02.07-.16-.03-.08-.01.01-.02-.02-.01-.03.01.01-.01-.01-.02v-.01h-.01v-.01h-.01v-.01h.01v-.02h.01v-.01h-.03v-.01h-.02l-.03.01.01-.04v-.03l.01-.03v-.05l.01-.04v-.03l.02-.13.01-.04v-.09l.02-.01.01-.12.08-.16-.62-.12v.02l-.01.01-.05.01v-.04l.01-.04v-.08l.01-.06v-.01l.01-.09v-.08l.01-.05-.02-.01.03-.05.03-.05h-.04v-.06l-.01-.01h.06l.04-.02v-.01h-.01v-.04l-.01-.01.01-.03h.01v-.03h.02l-.03-.02-.04-.02.01-.01v-.02h.04l.01.01h.03v-.05l.01-.02v-.01l.02.02h.06l.01-.01v-.02h.04l.02-.03.04-.07.01-.05v-.35l.03.02.04.01h.08v-.01h.04v-.01h.01v-.01h.07l.01-.01h.04v-.01h.02v-.01h.04l.01.01h.01v.01h.03l.01.01h.01l.01.02v.02l.02.03v.03l-.01.03.01.03.04.04v.01l.02.06.02.05.01.03.01.03.06.18v.01l.01.02.07.21.17.09.03.01.07-.19.01-.04.01-.15.38-.36.04.05.28.08.01-.06.01-.03.01-.02.01.01v-.02h.01l.04.01-.01-.01.01-.01.01.02h.01l.01-.01h.01l.01-.01h.02l.01.02.01.01h.03l.01-.05v-.03l.02-.01.01-.01-.03-.05v-.01h-.01v-.12h-.01v.01l-.01.01v-.04h.01l-.03-.07-.01-.03-.01-.01v-.01h-.01l-.03-.02v-.01l-.04-.05.01-.03.01-.04.01-.05v-.01l-.04-.07h-.01v-.07l-.01-.01-.01-.01-.01-.02v-.03l-.01-.02v-.03l-.01-.01v-.02l-.02-.03v-.01h.01v-.06l.01-.01.01-.01v-.02l.02-.02.04-.02.04-.04.1-.05-.09-.04-.03-.01v-.01h.02v-.01h-.01l-.01-.01h-.01l.01-.01v-.27l-.35-.47.42-.19.08-.72v-.04l.07-.39.21.02.23.02-.03.06.07.05.01-.01.02-.01.01-.01.03-.02.01-.01.02-.01.02-.01h.01l.04-.04V264h.01l.01-.01.01-.01.04-.03.02-.01.09-.06v-.01h.01l.03.06v-.01l.01-.01.01-.01.02-.02.02-.02.02-.03.03-.03v-.01l.03-.03.02-.03.03-.04.01-.01.04-.04.02-.03.03-.04.03-.04.03-.03v-.01l.3.11h.02l.01.01h.03l.01.01.06.01.05.02-.01.02-.01.07v.01l.04.02h.01l-.03.01-.02.01-.02.02.04.01.04.02.07.02h.01l.02.01h.02l.03-.02.06-.02.07-.03h.01v-.01l.05-.02-.02-.05.06-.02.04-.02h.02l.01-.01v.01l.01.01.01.02.01.01v.01l.03.05.02.04.04.07.02.04h.05-.01V264.01l.01.02.01.05.01.03.02.08h-.04v.01l.02.08v.01l.01.07v.03l-.02.04.01.03.01.03h.01v.01l.02.05v.02l.01.04h-.01l.01.02.03.1v.02h.01v.01l.01.02v.04h.01v.01l.01.02v.03l.01.01v.02l.01.04.02.04v.01l.01.01V265.09l-.01.02v.01H413.5l.02.07.01.03v.01l.01.01.02.07.01.01v.03l-.01.03v.12l.01.02v.16Z"/>
  <path class="region1 dot-map" id="svg_aguascalientes_Calvillo" d="M399.03 272.02v.02l-.01.04-.02.03-.02.04-.01.06-.02.04-.01.02v.1l-.06.01-.05.02-.01.01v.01l-.01.01v.02l.01.01h.01v.01l.02.03.01.02v.03l-.01.01v.01l.01.01v.03l.01.01v.01l.01.01v.04l-.01.02v.01l-.1-.02-.09-.01-.08-.01-.01.12v.04l-.03.02-.01.02.01.03.03.01.01.01h.01l.01.09v.28l.11.01.06.01.04.01-.01.02-.04.02-.02.01-.06.04h.06l.1.02.01.01v.01l-.02.02-.01.02v.02l.03.06h.02l.05.02-.06.03-.07.04-.02.05-.06-.01-.01.01-.02.04v.01l-.02.01.22-.02h.03l.01.01-.04.03-.02.02-.03.04-.02.02v.02l-.01.07-.01.04v.03l-.01.01-.02.02-.01.01-.01.01v.07l-.01.01-.01.02v.01l-.02.01h-.01l-.01.01h-.01v.01l-.01.01v.01l-.01.02h.04l.01.01.02.01h.05l.02.01.01.03-.01.04-.01.02-.01.03v.02l.01.02.01.03v.02l-.01.01-.02-.01-.01.01v.01l.02.05h-.02l-.01-.01-.01.01h-.01l-.02-.01-.02-.01v-.01l-.03.01-.03.01-.03.04h-.04l-.03-.01-.02-.01-.01.01-.01.02h-.02l-.02.01v.01l.01.03.02.13.01.06.01.03v.05l.03.13.05.02.02.04-.01.02.09.03-.05.33.16.02v.01l-.02.16-.05.28-.02.11.07-.06.05-.04.03-.02.03-.01.01-.01h.03l.05-.02h.02l.01-.01.08-.03.09-.04.01-.01.1-.01.04.02.01-.01h.02l.05-.02.14-.01.01.03.08-.02.03.03.05.03v.02l.03.01.03.05.03.02.02.04.09.08-.1.1.12.14.04.06.01.06.1.05.04.05.02.02.01.02.05.05-.14.09h-.12l-.19-.01-.04.01h-.01l-.03.01-.04.01-.04.01-.02.03-.02.08-.01.01.02.08.02.02.01.01.04.03.02.01-.01.05-.05-.03h-.01v.01h-.01l-.01-.01-.02.01-.01.01-.02-.01-.01.02v.02l-.01.01-.01.01-.01.01v.02h-.02v.01l.01.01v.01h-.01v.04h.01l-.01.02.01.02-.01.01-.01.01.01.01.01.03v.03l-.01.01v.01h-.01l.01.01-.14-.01-.01.04-.04-.02-.01.03.01.02v.01l-.1.06-.15.03v.08h-.03v-.01l-.13-.02v.08h-.07l-.15-.01h-.11l-.01-.14v-.09l-.01-.04-.03-.01-.05-.02-.02.01h-.01l-.06.07-.02.02-.01.03h-.04l-.05-.03-.06-.04-.03-.01-.02-.01-.02-.01-.02-.01H398l-.02-.01-.02-.01-.02-.02-.02-.01-.03-.03-.06-.05-.02-.01-.03-.02-.01-.01-.06-.04-.02-.02-.06-.04-.01-.02-.03-.01-.03.01-.02.02-.02.02-.02.02-.07.01h-.03l-.04.02-.02.03h-.07l-.04-.02-.01-.02-.02-.01-.02-.02-.03-.02-.05.02-.04.01h-.03l-.03.02-.01.02-.03.01h-.04l-.01-.01h-.02l-.02-.02-.03-.01h-.02l-.05-.02-.02.01h-.02l-.03.01-.02.01-.02.01-.02.02-.02.01-.01.02v.01l-.01.01-.02.02v.02l-.01.03-.01.01-.01.03-.01.01-.02.02-.02.01-.01.01-.02.01h-.01l-.01.01h-.02l-.02.01-.02.01h-.03l-.01-.01-.01-.01h-.02l-.01-.01-.03.01h-.06l-.07.02-.01.01-.01.06-.02.08-.04.03-.01.01-.03.04-.02.02-.03.03v.17l.05.05-.02.1H395.95l-.07-.01h-.01l-.04-.01h-.1l-.04-.01h-.01l-.02.01-.03-.01-.01-.01-.03.01-.03-.01-.02-.04-.02-.04v-.02l-.05.03-.01.02v.01l-.01.03-.01.02-.02.01-.01.02v.01l.02.02.01.01-.01.03h-.02v.02l-.01.01-.01.02v.01l.01.01v.04l-.02.03-.03.02-.01.01-.03.01-.04.01-.06.02-.06.01-.04.01-.05.02-.04.01h-.05l.01-.01-.12-.13-.06.05-.01-.01-.02-.01-.08-.06h-.01l-.15-.1-.09-.06-.04-.03-.03-.02-.11-.08-.02.01h-.02l-.03-.02-.02-.01-.01-.01-.03-.03-.04-.04-.09.08-.02-.02-.03-.05-.02-.04-.02-.02.04-.06-.01-.01-.01-.01h-.01l-.01-.01-.02-.01h-.02l-.01-.01h-.01l-.01-.01-.02-.01h-.02l-.02-.01-.02-.01v-.02l-.01-.03-.01-.02-.05-.04-.02-.02-.01-.02-.02-.02h-.01v-.01l-.01-.01h-.01v-.01l-.01-.01v-.01l-.02-.01-.01-.01h-.01l-.02.01-.01-.01-.01-.01-.01-.01-.01-.01v-.01h-.01v-.01h-.01l-.01-.01h-.03v-.01l-.01-.01v-.01h-.01l-.01-.01-.02-.01-.01-.01h-.02l-.01-.01h-.01l-.01-.01h-.02l-.01-.01-.01-.01h-.01v-.01l-.02-.01-.01-.01-.01-.02v-.01h-.01l-.01-.01-.01.01-.02-.01h-.04l-.01-.01h-.02l-.01-.01h-.01l-.01.01h-.02l-.02-.01-.01-.01h-.03v-.01h-.03l-.02-.01V277.04h-.01l-.01-.01v-.01l-.01-.02h-.01l-.01-.01v-.02h-.01v-.01h-.01v-.01l.01-.01h-.02l-.01-.01h-.01v-.02l-.01-.01v-.04l.01-.01v-.02l-.01-.02.01-.01h.02v-.01l-.01-.01-.01-.01v-.01h-.01v-.02l-.02-.01-.01-.03h-.01l.01.01h-.01l-.02-.01h-.01v-.02l-.04-.05.01-.01-.02-.01v-.02l-.02-.01.01-.03v-.01l-.02-.02v-.01l.01-.02h-.03v-.01l.01-.01-.01-.02-.02.01v-.03h-.03l.01-.01v-.01h-.01l-.01-.02v-.01l.01-.01-.03-.02h-.01v-.01l.01-.01v-.01l-.02-.01h-.01l-.01-.01-.02.01h-.1l-.01.01v.01h-.03l-.02-.01-.01-.01h-.01l-.01-.01-.01-.01h-.02l-.01-.01-.01-.04v-.01l.01-.03.01-.01.01-.01v-.05l-.01.01v.01h-.01v.02l-.02.01-.01.01-.01.02-.03.04h-.01l-.05.01H392.08l-.01.01-.02.01.02-.13.06-.14-.04-.06.03-.04h.02l.01-.02.02-.05.02-.06.01-.04v-.05l-.04-.04-.03-.02-.01-.01v-.02l.01-.01.06-.06.01-.12-.07-.01-.07-.01-.06.02-.07.01-.07-.12-.01-.03-.02-.02-.02-.04-.05-.05-.05-.02-.04-.03v.01l-.02-.01-.05-.02-.01-.02-.05-.07-.01-.04-.01-.04.04-.09.02-.03.04-.03.05-.04.01-.02h.01l.02-.03.02-.01.03-.01.02-.01h.01l.01-.05v-.06l.02-.01-.01-.05.01-.03.01-.01.01-.02.02-.02.03-.03-.01-.02-.01-.02-.01-.03v-.07l.02-.01.02-.01.02-.02.04-.02.03-.03v-.02l-.01-.01-.01-.03v-.02l-.01-.02.01-.02.01-.01.01-.01.01-.01.01-.01.01-.01h.02l-.01-.01-.02-.02v-.02l.01-.01v-.01l.02-.02.02-.01.01-.01.01-.02.02-.03v-.08l.03-.04.01-.06v-.04l.01-.03.03-.02h.02l.01-.01.01-.01.01-.01.03-.02.01-.02.03-.05v-.01l-.07-.02v-.05l.03-.01.01-.01.01-.03-.01-.03.01-.02.01-.01v-.01l.01-.02v-.01h.01v-.05l-.01-.02v-.03l-.01-.01v-.01l.03-.02.07-.15.01-.02-.01-.03.04-.11.02-.03.05-.01.04.02.01-.03.02-.03.18-.24.06-.09.04-.08-.01-.03.03-.11.03-.07.35-.72v-.02l.07-.08v-.04l.03-.01.01-.01v-.05l.01-.01.02-.01h.01v-.01l.01-.01.01-.02.01-.01.02-.01.01-.02.01-.01.02-.01h.01v-.01l.01-.01v-.03l.01-.02.01-.01.01-.01.03-.02.02-.03.01-.02h.01v-.02h.03l.01-.01.06-.01h.08l.02-.03.01-.04.01-.02.01-.03v-.02l.01-.03v-.02l-.01-.03-.01-.04.01-.03.01-.01h.01l.02-.01h.02l.02-.01.03-.02.01-.01.01-.01h.02l.01-.01v-.03l.01-.01.01-.01-.01-.01v-.01l.01-.01.01-.01.01-.03h.01l.02-.01.02-.02.01-.01h.07l.02-.02.01-.02.01-.02h-.02l-.04-.01-.01-.01v-.02l.01-.01.02.01.02-.02h.01l.02-.01h.01l.01-.01.02-.01h.02l.03-.01h.01l.02-.02.01-.02h.01l.01-.02.01-.01v-.02l.01-.02.02-.02v-.06l.02-.01.02-.02.02-.01.01-.02.01-.02.02-.02v-.02l.01-.02v-.06l-.01-.02v-.02l.01-.01.02-.02.02-.01.01-.01v-.03l-.01-.02-.02-.01-.02-.02-.02-.02-.01-.03v-.08l.01-.02.01-.04.01-.01.04-.01h.01l.02-.02.03-.01.02-.02.01-.02.03-.02.02-.01.02-.02.03-.01.02-.02.05-.02.04-.02.04-.01.03-.02.02-.01h.02l.02-.01h.02v-.01l.02-.01.01-.01.02-.01h.02l.01-.01.02-.01.01-.01.02-.01.02-.01.02-.01.01-.01.02-.01h.02l.02-.01.02-.01.01-.01h.03l.04-.01h.06l.04-.01.04-.02.08-.04.05-.03.01-.01.01.01v.01h.01l.01-.01-.01-.01.01-.01v-.02l.01-.01v-.01l.05-.02.04-.02.01-.01h.01l.01-.01h.05l.01-.01h.01l.01-.01.03-.02h.02l.01-.01h.02l.02-.01.01-.01.01-.01.03-.02h.01l.01-.01h.01l.01-.01.01-.01.01-.01.16-.04.04.02.02.01v.01l-.01.03.01.01-.02.03v.02l-.01.04-.13.18-.04.06.02.04.01.04v.02l.09.01h.05l.03-.02h.01l.01-.02.01-.07.01-.01.01-.02.02-.02.03-.01h.03l-.04-.05.01-.01v-.05l.02-.04.03-.01.02-.02.03-.02.03.01.04.02.05.01.02.01v.03l-.01.03.02.03.03.01v.01l.03.02h.02l-.04.14.02.01h.02l.02.01h.01l.01-.01h.01l.01.01H396.85v.01h.01l.02.01.01-.01.01-.01.03-.05v-.02l.01-.01.22-.06.18-.03.55.3h.01l.01.01v.03l.08.06.12.17h-.01l.09.34.03.11-.18.17-.01.03-.01.11-.01.04-.01.02-.01.02.02.02.01-.01.01-.01h.04l.01.03h.04l.02-.02.02-.01h.04l.01-.01.01-.03.02-.01h.04l.03-.02h.04l.03.01V269.99l.23.03-.01.1-.01.11v.02l-.01.1-.04.22-.02.14-.01.08v.01l-.01.05.03.01.06-.01.02-.01h.02l.01.02h.02l.01-.01.03-.01.04.02.18.04-.01.06-.04.22-.02.12-.01.06-.01.05V271.48l.01.01h.01l.01.02.02.01.01.02.01.03v.02l.01.01.01.02v.02l-.02.04.05.04.03.01-.09.26v.01l.14.02Z"/>
  <path class="region1 dot-map" id="svg_aguascalientes_Cosío" d="m407.18 261.77.02.02-.01.02-.02.06.01.03v.01l.01.03.06.04-.01.01.01.01.04.01.02.02v.04l.02.03.04.02.07.03.01.03.03.04.03.04.02.01-.02.03v.01l.03.02-.06.07-.03.07.03.12h-.1l-.02.11-.03.33H407.23l-.02-.01h-.08l-.02.06v.02l-.01.02h.08l.22.02v-.01l.03.01v.01l-.01.02v.01l-.01.02v.01l-.01.01v.04l-.01.01v.01h-.03v.02l-.01.02-.01.01-.01.03v.05l.01.01v.01l.01.01h.01l-.01.25-.06-.01-.04-.01H407.19l-.03-.01v.01l-.02.08-.01.07h-.01l-.03-.01h-.04l-.02-.01h-.04l-.01-.01h-.03v.11l.01.1v.01h-.04l-.01.01-.05.01-.01.01h-.18l-.07.05-.02.01-.01.01H406.51v-.04l-.01-.12-.08-.01h-.04l-.03-.01h-.06v-.01h-.07v-.01h-.02l-.02-.05-.08.04-.02.01.01-.04v-.03l.01-.04.01-.07.02-.1h-.15l-.05-.02h.01v-.02l-.02-.01h-.03l-.02-.02v.01l-.01-.01h-.01v.01h-.01l-.01-.01-.01.01-.01-.01-.01-.01-.01-.01h-.02v-.01h-.01v-.01l-.01-.01h-.01l-.01-.01-.01-.01-.02-.01v-.02l-.02-.01h-.02v-.01h-.04l-.01-.01-.02-.05v-.04l-.01-.01v-.01l.03-.01.01-.01.06-.03h.01l.02-.01.01-.01h.03v-.01l.02-.01h.01l.01-.03.04-.02.03-.02.03-.32-.74.06-.49.01-.24.01v-.44l.33-.01.25-.37-.12-.04-.86.05.48-.6-.09-.1H405.36l.01.01h.09v-.65h.01v-.11l.03-.08.01-.03.09-.23.03-.08.03-.08.03-.05v-.2l.01-.02V259.69l.33-.06.01-.01.02.11.05.23v.01l.01.05.01.06.01.01v.05l.01.04.01.03.01.07.01.01.02.09.01.06v.01l.01.04.01.04v.02l.01.04.01.03v.01h.01l.01.01.01.01.01.03.01.01v.02l.01.01h.01l.01-.01h.01v-.01h.04l.01.02h.02l.01.01h.02v.04h.01v.01h.01l.04-.01H406.56l.01.01h.01v.01h.04l.03-.02.03.02.01.01.01.01.02.01.01.01-.02.03-.02.02-.01.02-.01.01h.02l.02.01.03.01h.02l.02.01.02.01.02.01h-.02l.02.02v.03h.01l.02.01v.02h.01v.03l.02.05.02.03.01.01h.07l.02.05-.01.01-.01.02.07.07.04.01.01.01.01.01.01.03-.01.03.01.04.01.01h.02l.01-.01v-.03l.06.03.01.01h.02l.03.04-.01.01-.02.02v.03l-.01.06-.02.03-.04.01h-.03l-.02.01.01.02-.01.01.02.06.03.02Z"/>
  <path class="region1 dot-map" id="svg_aguascalientes_Jesús_María" d="m405.74 270.27.09.04-.08.08.01.07v.04h.01v.03l-.01.01v.02l.01-.02.01-.01.01-.02.01-.01v-.01l.02-.07v-.01l.01-.03h.09v.02h.01l.02.01-.01.01h.01l.01.01.06-.01h.02l.05-.04h.09l.08-.01h.26v.03l-.01.07v.04l-.01.03v.03l-.01.07v.04H406.71l.03.01H406.86v.13l-.01.01v.05l.02.01v.01h-.01l.02.02v.02h-.02l.01.02.01.01h-.01l-.02.01h-.02l-.02.01h-.01l-.01.01-.01.01-.01.01-.01.01v.05l-.01.01v.01h-.02v-.04l-.01-.02h-.03l-.01.02-.01.01v.01l.01.01h-.03l-.05-.01-.04-.01-.03-.03-.06-.01h-.03l.02-.05h-.01l-.03-.01v.03l-.01.14h.04l.01.01.01.02.01.01h.01l.02.02.01.01.02.01.01.01.11-.03-.02.04-.01.02.02.01-.02.06-.09.1v.01l-.05.11v.02l-.01.01h.04l.04-.01h.06l.03-.01v.02h.02l.03.01.03.03v.01l.03.01.01.01-.01.02h-.01v.02h-.01v.01h.01l-.01.01h.03l-.02.05-.01.01v.01h.01l-.01.03-.03-.01h-.02l-.03-.01-.04-.02-.04-.01-.03-.02-.01.01-.02-.01-.05-.02-.06-.02.01-.02v-.01l.01-.01-.01-.01V271.59h-.02l-.03.04.01.03v.02l-.05.01-.03.01h-.01l-.01.01v.01l-.01.01v.13h.04v-.02h.01v-.02l.01-.03v.01h.04l.08.03.08.03.13.04-.01.05-.03.07-.02.05-.01.02-.03.1h-.01v.02l-.01.02-.01.03v.01l-.01.01v.02l-.01.01v.01l-.01.02-.01.03-.01.01-.04.12-.02.05h-.19v.06h-.01l-.05-.01h-.01l-.04-.01-.05-.01h-.02l-.09-.02h-.03l-.04-.01-.11-.02v.17l.01.02v.01l-.01.03v.1h-.05v-.01H405.66l-.01-.01h-.04l-.03-.01h-.05v-.01h-.07v-.01h-.07l-.01.01v-.01h-.01v-.01h-.05v-.01h-.04l-.06-.01h-.04l-.01-.01h-.08l-.03-.01h-.07l-.05-.01h-.04l.01.02v.01l.01.03h.01v.03l.01.01v.02l.01.01v.02l.01.02.03.07v.01l.01.01.01.03H405l-.12-.01v.01h-.05v.38l-.03-.01-.24-.04h-.03l-.06-.01-.02-.01-.06-.04-.01.03-.01.07-.01.03v.03l-.02.12v.01l-.13-.03h-.01l-.06-.01-.03-.02-.02.01-.02.01h-.04l-.01-.02h-.03v-.01l-.09-.01-.07-.01-.06-.01-.04.1.01.01h-.01l-.02-.01-.12-.01-.03-.01.02.06.02.05.01.03.02.03.02.03h.06v-.01l.01.07.05.01-.01.03h-.35l-.02.01h-.02l-.06.01-.01.01h-.02l-.05.01-.03.01-.04.01-.01.01-.01.01-.02.02-.01.02-.01.01h-.01l-.03.01-.03.01-.01.01h-.01l-.02.01-.03.02-.03.04-.01.09v.08l.01.02v.01l-.01.02h-.02v.01l-.01.01-.02.02-.03.02-.01.06-.05.02-.02.02v.01l-.01.03.02.03-.01.02-.06.02-.04.18v.14l-.04.05-.01-.01h-.01l-.01.02-.01.03.02.1-.05.1-.02.03-.02.02v.01h-.03l-.01.01.01.03-.05.06-.15.1-.03.01h-.04l-.03.03-.06.15-.06.14-.01.01h-.16l.03.07-.36.01.05-.06v-.01l-.53.02h-.01l-.03.02-.06.01-.04.04-.03-.02-.07-.03-.09.05h-.03l-.01-.01-.01-.02-.08.01-.04-.04-.02-.01-.04.03-.05.13h-.03l-.2-.06-.16.06h-.01l-.12.07-.03.02-.09-.08-.02-.04-.03-.02-.03-.05-.03-.01v-.02l-.05-.03-.03-.03-.08.02-.01-.03-.14.01-.05.02h-.02l-.01.01-.04-.02-.1.01-.01.01-.09.04-.08.03-.01.01h-.02l-.05.02h-.03l-.01.01-.03.01-.03.02-.05.04-.07.06.02-.11.05-.28.02-.16v-.01l-.16-.02.05-.33-.09-.03.01-.02-.02-.04-.05-.02-.03-.13v-.05l-.01-.03-.01-.06-.02-.13-.01-.03v-.01l.02-.01h.02l.01-.02.01-.01.02.01.03.01h.04l.03-.04.03-.01.03-.01v.01l.02.01.02.01h.01l.01-.01.01.01h.02l-.02-.05v-.01l.01-.01.02.01.01-.01v-.02l-.01-.03-.01-.02v-.02l.01-.03.01-.02.01-.04-.01-.03-.02-.01h-.05l-.02-.01-.01-.01h-.04l.01-.02v-.01l.01-.01v-.01h.01l.01-.01h.01l.02-.01v-.01l.01-.02.01-.01V274.08l.01-.01.01-.01.02-.02.01-.01V274l.01-.04.01-.07v-.02l.02-.02.03-.04.02-.02.04-.03-.01-.01h-.03l-.22.02.02-.01v-.01l.02-.04.01-.01.06.01.02-.05.07-.04.06-.03-.05-.02h-.02l-.03-.06v-.02l.01-.02.02-.02v-.01l-.01-.01-.1-.02h-.06l.06-.04.02-.01.04-.02.01-.02-.04-.01-.06-.01-.11-.01v-.28l-.01-.09h-.01l-.01-.01-.03-.01-.01-.03.01-.02.03-.02v-.04l.01-.12.08.01.09.01.1.02v-.01l.01-.02v-.04l-.01-.01v-.01l-.01-.01v-.03l-.01-.01v-.01l.01-.01v-.03l-.01-.02-.02-.03v-.01h-.01l-.01-.01v-.02l.01-.01v-.01l.01-.01.05-.02.06-.01V272.27l.01-.02.02-.04.01-.06.02-.04.02-.03.01-.04v-.02H399.09l.02.01.01.01v.01l-.01.01h.04l.02.01.05.04v.01l.29.04.05.01.02-.08.02-.03.08-.11.02.01h.08l.03-.01.02-.01.01-.01h.02l.02.01h.02l.01.01.02.03.01.02.03.05.03-.03.01-.01.01-.01.01-.01.01-.01.02.01h.03l.03-.02.02-.02.17-.02h.03l.35-.05.03-.04.03-.04h.01v.04l.03.01.04.01v.01l.01.02.02.01.02.01.02.01.02.02.03-.02.02.01.01.04.05.02h.05l.01-.01h.02l.01.01.01-.01h.02l.02.01.02.01.02.02-.02-.05-.02-.02v-.05l-.01-.03-.01-.03v-.01l-.01-.01-.02-.02-.02-.02v-.06l-.01-.03v-.02l-.01-.02v-.03l-.01-.02h-.01l-.04.03-.01.01H401l-.03-.02-.01-.03-.02-.02-.02-.03.03-.03v-.03l.01-.01v-.04l-.01-.01h-.07l-.02-.01v-.02h-.03v-.04l.01-.11h.02l.02-.02.02-.06.02-.03.02.01h.12l.17.03-.01.13.02.02h.03l.01-.01.03-.01.02-.01h.05l.03.01.03-.01h.08l.12.05.01-.04.09.32.02.06.11-.01v.01l.04-.01.04-.02h.01l.15.08.06-.01v-.05l.03-.05.01-.01v-.04l.05.01.02-.03.16-.02.24-.02.15-.01.04-.01.01.01.01-.02.03-.04h-.02l-.07-.05-.2-.06.03-.01.04-.29.01-.04.09-.24.15-.03.01-.11.07-.11h.04l-.01-.08v-.23h.74l.1-.1-.02-.23.06-.14h.04l.01.02.02.04.01.02.01.01.02.01.01.02.02.01v.01h.02l.01.01.03.01.01.01v.03l.01.01.01-.01h.03l.03-.05.04.04.04.01h-.01l-.01.01v.01l.01.01v.02l.01.03.04.03.08.02.02-.04.02.02.03-.09h.06V269.87l-.03-.01.01-.02.03-.01.02-.02.01-.06v-.01l.02-.03v-.01l-.01-.01-.01-.01v-.01l.01-.02.01-.02h.02l.02.01.03.02h.05l.16.02.15.02.03.02.02.04-.02.03v.01l.01.06v.05l.01.02.05.02.04-.01.01.01h.07l.01-.01h.02l.02.01v.01l.04.09h-.17l-.07-.01.04.27h-.12l.02.21v.01l.12.01v-.03l.01-.01v-.01l-.01-.01v-.05l-.01-.04.28-.05v-.01l.02-.03.02-.06.01-.03.01-.02.05.02.17.06h.01Z"/>
  <path class="region1 dot-map" id="svg_aguascalientes_Pabellón_de_Arteaga" d="M408.41 267.15V267.5l-.01.05-.04.07-.02.03h-.04v.02l-.01.01h-.06l-.02-.02v.01l-.01.02v.05h-.03l-.01-.01h-.04v.02l-.01.01.04.02.03.02h-.02v.03h-.01l-.01.03.01.01v.04h.01v.01l-.04.02h-.06l.01.01v.06h.04l-.03.05-.03.05.02.01-.01.05V268.25l-.01.09v.01l-.01.06v.08l-.01.04v.04l.05-.01.01-.01v-.02l.62.12-.08.16-.01.12-.02.01v.09l-.01.04-.02.13v.03l-.01.04v.05l-.01.03v.03l-.01.04.03-.01h.02v.01h.03v.01h-.01v.02h-.01v.01h.01v.01h.01v.01l.01.02-.01.01.03-.01.02.01-.01.02.08.01.01.03-.04.03-.03.01V269.68l-.01.02v.06h-.04v.01l-.01.02-.02.01-.01-.01h-.03l-.02.01h-.01l-.01.02-.01.01.01-.03v-.02l-.01-.01-.01-.02v-.02h-.01v-.02l-.02-.02-.02-.01v-.01h-.01v-.02h-.01v-.01h.01v-.02H408.5v.01h.02l.02-.01h.01l.01-.02v-.01l.01-.03-.01-.02.01-.02h-.04v-.05l-.08.03-.01-.03-.02-.03-.01-.04-.05.01v-.01l-.03-.02-.04-.02h-.01l-.02-.01-.01.01h-.03l-.03-.03-.06-.04-.01-.01-.13-.03v.02h-.02l-.03.01h-.01l-.02-.01-.02-.01-.01-.01-.01-.01h.01v-.01l.01-.01.01-.02.01-.01.01-.01.02-.03-.01-.01-.01-.01v-.01l-.01-.03-.01-.01-.01-.01-.01-.01-.01-.01-.01-.01h-.03l-.1.01H407.67l-.02.01h-.02l-.04-.01h-.1l-.06-.01h-.05l-.08-.01h-.11l-.05-.01h-.07l-.06-.01h-.02l-.01.2H406.92l-.02-.01H406.79v-.01l-.01-.01-.01-.02-.02-.02-.01-.02-.01-.01v-.01h.01v-.01h-.02l-.01-.01v-.01h-.01v-.01l-.01-.01v-.02h-.01v-.02l-.01-.01-.01-.01h-.05l-.03-.01h-.03v-.01h-.02l-.01-.01-.02.01-.01.01-.01.01v.01h-.01v.01h-.01l-.01-.01h-.02l-.01.01-.01.02-.01.03-.01.02v.02h-.02v.03l-.05-.01h-.02v.02h-.1v-.04l-.06-.01h-.05v.05l-.01.09v.08l.07.01h.05l.11.02v.16l.02.05.02.05v.02l-.01.02-.06.1-.03.03-.02.04-.02.02h-.01l-.02.02-.03.03-.03.02-.05.04-.01.01-.01-.01-.06-.01.01.01-.02.04-.01.01-.01.01-.01.01-.01.01h-.01l-.04.05h-.01l-.03.07-.02-.01-.06.09-.03.05h-.01l-.17-.06-.05-.02-.01.02-.01.03-.02.06-.02.03v.01l-.28.05.01.04v.05l.01.01v.01l-.01.01v.03l-.12-.01v-.01l-.02-.21h.12l-.04-.27.07.01h.17l-.04-.09v-.01l-.02-.01h-.02l-.01.01H405.2l-.01-.01-.04.01-.05-.02-.01-.02v-.05l-.01-.06v-.01l.02-.03-.02-.04-.03-.02-.15-.02-.16-.02h-.05l-.03-.02-.02-.01h-.02l-.01.02-.01.02v.01l.01.01.01.01v.01l-.02.03v.01l-.01.06-.02.02-.03.01-.01.02.03.01V269.94h-.06l-.03.09-.02-.02-.02.04-.08-.02-.04-.03-.01-.03v-.02l-.01-.01v-.01l.01-.01h.01l-.04-.01-.04-.04-.03.05h-.03l-.01.01-.01-.01v-.03l-.01-.01-.03-.01-.01-.01h-.02v-.01l-.02-.01-.01-.02-.02-.01-.01-.01-.01-.02-.02-.04-.01-.02h-.04l-.06.14.02.23-.1.1h-.74l-.01-.16-.04-.85.66-.2.15-.05.15-.92.35.14.15.05.16.06.01-.09v-.03l.03-.27.01-.12.03-.15v-.03l.01-.05h.03l.02.01.02.01.06.01.01.01.02.01h.02l.01.01h.01l.1.01.04.01h.08l.03.01H405.27l.02.01h.09l.04.01h.11l.06.01.18.02h.08l.03.01h.04l.05-.09.02-.02.01-.02.02-.01H406.13l.01-.01h.03v-.01h-.01l-.02-.06-.03-.06-.02-.06v-.01l-.01-.02v-.04l.01-.1v-.08l.01-.06v-.08h.38v-.03h.11l-.01-.08h.02l.11-.01.01.04.11.01.03-.06.02-.02.12.05.03-.02.02-.03v-.02l-.01-.04-.02-.08-.01-.02v-.03H407.23v.01h.01l.01.01.01.02-.02.01v.01h.01l.01.01v.01h.02l.04.01h.01v.02l-.01.02h.02l.01-.01v.05h-.01l-.01.02v.01l.02.01-.01.01v.05l-.01.03h.04l.03.01h.06l.02.01h.06l.02.01h.07l.01.01H407.7l.03.01h.05l.03.01v-.05l.02.02h.01l.02.01h.01l.02.01.02.01h.01l.01.01h.01l.05.01h.01l.01.01.04.02v.01h.02l.02.02h.01l.01.01.03.01.02.01.02.01h.04l.02.02H408.34l.01.01h.01l.01.01.02.02.01.01h.01Z"/>
  <path class="region1 dot-map" id="svg_aguascalientes_Rincón_de_Romos" d="m408.79 262.07-.01.07-.03.18h-.07l-.02.05.13.18h-.01l.07.07v.01h.05l-.01.02v.03l-.05.22v.01l-.03.13-.05.13.04.01.01.02-.06.01v-.01l-.17.02-.08.02-.08.01-.06.01-.06.01-.06.01h-.05l-.02.18v.13h-.01l-.04-.01h-.04l-.01.13v.07l-.09-.01h-.03l-.06-.01v-.07l-.03-.01h-.04l-.04-.01h-.04l-.01.07-.04-.01-.09-.01-.06-.01-.01.01v.06l-.02.05h-.01l-.04.01v.01h-.01l-.02.01h-.05l-.02-.02-.01-.01-.01.01-.01.01v.03l.01.01v.03l-.01.01-.01.01h-.01l-.02-.01h-.01l-.02-.01-.01.01-.01.01v.02h.01l.01.02h.01l.01.01.02.01.02.02-.01.01v.05h.01v.03l.02.02v.02l-.02.01-.05-.03h-.01l-.02.01h-.03l-.04.01v.04l.02.07v.01h-.03l-.02.03-.02.04v.02l.05.04h.03l.01-.03.04.01-.01.02-.01.02-.01.03v.01h-.03l-.03.02h-.01l-.01-.01h-.04v.03l-.01.01v.02l.01.01.01.01v.01l.02.02.02.05v.01h-.01l-.01.01-.02.01-.03.01v.04h.01l.01.01.01.01.01.01v.02l-.01.01h-.01v.02h-.01v.03h-.01v.02h.04v.01h.01l.01.01v.02l-.01.01h-.01l-.01.01-.02.01v.03h-.01v.01h.01v.05l.01.01v.03l.02.02-.01.03v.01h.01l.01.01h.01l.01.01.02.02h.01l-.01.01v.03l-.01.01-.04.03v.01l-.01.01-.01.01-.02.02.01.02.02.02v.01h-.01l-.02.01-.01.01.01.01h.03l.02.02v.03l-.02.01.02.03.02.03h-.03l-.02.01-.06.01h-.06l-.06.01-.07.01h-.07l-.04.01h-.07l-.01.01H406.57V265.59l.01.01-.01.01V265.76l.01.06v.05l-.01.03v.15l.01.06v.15l.01.14v.08h.02l.13.01h.02l.08.01.08.01h.1v.05l-.01.04v.03l.01.02.02.08.01.04v.02l-.02.03-.03.02-.12-.05-.02.02-.03.06-.11-.01-.01-.04-.11.01h-.02l.01.08h-.11v.03h-.38v.08l-.01.06v.08l-.01.1v.04l.01.02v.01l.02.06.03.06.02.06h.01v.01h-.03l-.01.01h-.11l-.02.01-.01.02-.02.02-.05.09h-.04l-.03-.01h-.08l-.18-.02-.06-.01h-.11l-.04-.01H405.29l-.02-.01h-.1l-.03-.01h-.08l-.04-.01-.1-.01h-.01l-.01-.01h-.02l-.02-.01-.01-.01-.06-.01-.02-.01-.02-.01h-.03l-.01.05v.03l-.03.15-.01.12-.03.27v.03l-.17-.15.01-.06.02-.11v-.03l.02-.01v-.05l.01-.04h-.01l.01-.02v-.02h.01l.02-.05-.04-.01v-.02l-.01.01h-.01l-.04.01-.01.01h-.02l-.06-.01-.09-.01-.03.01-.04.05v.01l-.03.06-.05.05-.04-.02-.04-.02-.07-.03.01-.04v-.02l.1-.4.09-.35v-.01l-.12-.02h-.04l-.05-.01v-.09l-.01-.06V266.51l-.01-.01h.01l.12-.2-.42-.23h.01l.58-.01.01-.03V266l.08-.34.01-.06.05-.12.01-.01.05-.08-.1.02-.1.02-.06.01h-.01l-.02.01-.04.01h-.07l-.07-.01v.01H403.9l-.02-.01v.01l-.01.01-.03-.02h-.05l-.02-.01v.02h-.02v.01h-.02l-.03-.02-.01-.01h-.09l-.11-.07-.19.09-.02-.03-.03-.01H403.19l-.02-.02-.01-.01-.02-.02h-.04l-.01-.01v-.02h-.01l-.01-.01h-.03l-.03-.01-.01-.01h-.01l-.02-.01v-.01l-.01-.01h-.04v.01h-.06l-.02.01-.01.01-.02.02-.04.02.01.06h-.04l-.05-.01-.02-.02-.01-.01-.01-.02-.01-.02v-.01h-.01l-.01-.01h-.04l-.02-.01-.02-.01-.08.01-.02-.02-.04-.02v-.01l.02-.05v-.01l-.01-.01-.02-.01-.02-.06-.01-.02.06.02v-.78l-.07.04-.17.22-.02-.28-.03-.01-.06-.01.01-.06-.04-.01-.03-.02.03-.02v-.05l.01-.04.02-.05-.02-.05h.04l.04.01.04-.03.04-.02-.12-.61h-.01l-.02-.28-.15.01h.01l.01-.01h.01l.01-.01-.01-.02-.01-.02-.01-.04v-.04l.01-.03v-.01l-.01-.01v-.01h.01v-.01l.01-.01-.01-.01h-.04l-.02-.01h-.01l-.02-.01-.01-.01h-.01l-.03.01-.02.01h-.02l-.02-.02-.02-.04-.02-.01v-.02l-.01-.01.02-.01v-.04l.01-.08.01-.02.01-.07.01-.06v-.11l.03.02.05.02.09-.01.09-.02h.02v.01l.13-.02.04-.01.07-.02.05-.01.02-.01.33-.09.29-.05h.03l.1-.01.54-.09.16-.02.24.08.86-.05.12.04-.25.37-.33.01v.44l.24-.01.49-.01.74-.06-.03.32-.03.02-.04.02-.01.03h-.01l-.02.01v.01h-.03l-.01.01-.02.01h-.01l-.06.03-.01.01-.03.01v.01l.01.01v.04l.02.05.01.01h.04v.01h.02l.02.01v.02l.02.01.01.01.01.01h.01l.01.01v.01h.01v.01h.02l.01.01.01.01.01.01.01-.01.01.01h.01v-.01h.01l.01.01v-.01l.02.02h.03l.02.01v.02h-.01l.05.02h.15l-.02.1-.01.07-.01.04v.03l-.01.04.02-.01.08-.04.02.05h.02v.01h.07v.01h.06l.03.01h.04l.08.01.01.12v.04H406.57l.01-.01.02-.01.07-.05H406.85l.01-.01.05-.01.01-.01h.04V264l-.01-.1V263.79h.03l.01.01h.04l.02.01h.04l.03.01h.01l.01-.07.02-.08v-.01l.03.01H407.25l.04.01.06.01.01-.25h-.01l-.01-.01v-.01l-.01-.01v-.05l.01-.03.01-.01.01-.02v-.02h.03v-.01l.01-.01v-.04l.01-.01v-.01l.01-.02v-.01l.01-.02v-.01l-.03-.01v.01l-.22-.02h-.08l.01-.02v-.02l.02-.06h.08l.02.01h.1l.03-.33.02-.11h.1l-.03-.12.03-.07.06-.07-.03-.02v-.01l.02-.03-.02-.01-.03-.04-.03-.04-.01-.03-.07-.03-.04-.02-.02-.03v-.04l-.02-.02-.04-.01-.01-.01.01-.01-.06-.04-.01-.03v-.01l-.01-.03.02-.06.01-.02-.02-.02h.08l.09.01.01-.01.03.01h.2l.01.01H407.66l.06-.01.06-.01h.03l.03.01.01.01.03-.01.01.04.01.01.03.02h.02l.04-.01h.04l.04-.01h.06l.04-.01h.04v.25h.58Z"/>
</svg>
