<svg id="svg_ciudad_de_m%C3%A9xico" xmlns="http://www.w3.org/2000/svg" height="120vmin" width="120vmin" class="outline-none svg-state" viewBox="479.99 331.9 10.7 13.72">
  <path class="region1 dot-map" id="svg_ciudad_de_m%C3%A9xico_Coyoacán" d="M485.66 337.84h.02l.03.01H485.83l.01-.01h.01v-.01h.01l.01-.01v-.01l.01-.01H485.94l.01.01h.08l.02.01H486.11v.02l.01.06v.02l.01.01.01.03v.01l.01.02.01.01v.01l.01.01v.01h.01l.01.02.02.03.01.02.01.01v.01l.01.01.01.03h.01v.01h.01v.02h.01v.02l.01.01.01.02v.03l.01.02v.04l.01.01v.01l.01.02.01.01.01.02.01.01.01.01v.01h.01l.02.01v.01h.01v.01l.01.01v.02l.01.01h.01v.01l.01.02.01.01v.01h.01v.01l.02.02.01.01.01.01.01.01.01.01v.01h.01l.02.02h.01v.01h.01l.02.01.01.01h.01v.01h.02v.01h.01l.01.01.01.01.01.01v.02h.01v.01h-.01v.1l-.01.03v.06l-.01.08v.08l-.01.05v.08l-.01.04h-.16l-.02.01h-.03v-.01h-.02l-.03-.01h-.03l-.01-.01h-.03l-.04-.01-.01-.01h-.03l-.01-.01-.05-.01-.03-.01-.03-.01h-.01l-.01-.01-.03-.01h-.02v-.01l-.03-.01-.02-.01h-.01l-.01-.01h-.02l-.01-.01-.02-.01h-.01l-.01-.01h-.01l-.02-.01h-.01l-.01-.01h-.01l-.04-.02h-.01l-.02.02-.01.02-.01.01-.02.01-.02.02v.01h-.01v.01l-.01.01-.01.01-.01.01v.01l-.02.01-.01.01v.01h-.01v.01l-.02.01v.01l-.01.01-.01.01-.02-.01h-.01l-.01-.01h-.01l-.01-.01h-.03l-.01-.01h-.01l-.01-.01-.01.01v.01h-.01l-.01.01-.02.02-.02.01-.01.01-.01.01h-.01v.01h-.02l-.04.01-.02.01h-.05v.01-.01h-.01l-.01-.02-.01-.02-.02-.01v-.01h-.01v-.01h-.01l-.01-.01h-.01v-.01h-.02l-.01-.01h-.02v-.01h-.05l-.02-.01H484.96l-.01-.01H484.89l-.01-.01H484.82l-.02-.01h-.05l-.01-.01H484.59l-.01.01h-.09l-.04.01h-.04l-.05.01h-.05l-.01.01h-.02v-.01h-.05l-.01-.01h-.02l-.01-.01h-.01v-.01h-.01l-.01-.01-.01-.01h-.01l-.03-.01-.02-.01h-.01l-.02-.01h-.04l-.02-.01v-.02h.01v.01l.01-.01.06-.06.02-.01v-.01l.03-.02V339l.01-.01h-.03v-.02h.01l.03-.04.03-.05.05-.09.04-.06v-.08l.01-.06v-.08l-.01-.01-.01-.01-.01-.02-.01-.01v-.03H484.18l-.03.01v-.01l.01-.01.01-.01.01-.02h.01v-.01h.03l.02-.01.03-.01h.02l.03-.01h.05v-.01l.01-.01.01-.01v-.02h.01l.01-.02.01-.01.01-.01h.01l.01-.01.01-.01h.02v-.01l.01-.01.01-.01.01-.02h.01l.01-.01h.02v-.01l.01-.01v-.02h.01v-.03l.01-.01h.01l.01-.02.03.01h.01l.01-.06v-.01h.01l.01-.01.02-.02.02-.02.01-.01v-.01l.03-.02.01-.01.01-.01.01-.01.02-.02.01-.02.02-.01v-.02l.01-.01.02-.04v-.01l.02.02h.01l.01.01h.13l.02.01h.15l.01.01H485.39v.01H485.58l.02.01H485.66Z"/>
  <path class="region1 dot-map" id="svg_ciudad_de_m%C3%A9xico_Iztapalapa" d="M487.72 336.74h.01l.04.02h.02l.01.01.02.01h.01l.01.01h.01l.01.01.02.01h.01l.01.01h.01l.01.01h.02l.01.01h.01l.01.01h.01l.01.01h.02l.01.01.01.01h.02l.01.01h.01l.01.01h.02v.01h.01l.01.01h.02l.01.01h.01l.01.01h.01l.01.01h.01l.01.01h.02l.01.01h.01v.01h.02l.01.01h.01l.01.01h.01v.01h.02l.01.01h.02v.01h.01l.01.01h.01l.01.01h.02l.01.01h.01l.01.01h.01l.01.01h.02v.01h.01l.01.01h.02l.01.01h.01l.01.01h.01l.01.01h.01l.01.01h.02v.01h.02l.01.01h.01l.01.01h.01l.01.01h.01l.01.01h.01l.01.01h.01l.01.01h.01l.01.01h.01l.01.01.02.01h.01l.01.01h.01l.01.01.01.01h.02l.01.01h.01l.01.01.01.01h.01l.01.01h.01v.01h.02v.01h.01l.01.01h.01l.01.01.01.01h.01l.01.01h.01l.01.01h.01l.01.01.01.01h.01l.01.01h.01l.01.01.01.01h.01l.01.01h.01l.01.01.01.01h.01l.01.01h.01l.01.01h.01v.01h.02l.01.01h.01v.01h.01l.01.01h.01l.01.01.01.01h.01l.01.01h.01v.01h.01l.01.01h.01v.04l-.01.02v.03l-.01.01v.03l-.01.01v.01l-.01.03v.01l-.01.02-.01.01-.01.01v.01l.01.01.01.01.04.03.02.02.01.01h.01v.01l.02.01.01.01.01.01.01.01.02.02.01.01.01.01.03.03.01.01.01.01.01.01.01.01.01.01.04.03v.01l.02.02h.01l.01.02h.01l.01.02h.01v.01l.01.01h.01l.01.01.01.02h.01v.02l.01.01.02.03.01.02.01.01v.01l.01.01h.01l.01.01v.01h.01v.01h.01l.01.01.01.01v.01h.01l.02.01v.01l.01.01.02.01.01.01.01.01.03.03h.01v.01h.01l.01.01.01.01.01.01.01.01.01.01h.01l.03.03.01.01.02.01.01.01.03.02v.01h.01v.01l.01.01h-.02l-.01-.01H489.99l-.01.01-.01.01h-.04l-.01-.01h-.01l-.09-.01h-.01l-.02.02h-.01l.01.01h-.01v-.01l-.01-.01h-.01l-.01.01h-.01v-.01l-.01.02v.01h-.05v-.02l.01-.01.01-.01-.01-.01h-.02l-.14-.01h-.08l-.09-.01h-.12l-.09-.01-.15.05-.05.02-.24.07-.18.06-.22.06-.1.03-.01.01v.01h-.01v.01l-.01-.01v-.01h-.02l-.02.02h-.01v.01h-.01v.01l-.01.01-.01.01v.01l-.01.01-.03-.02h-.01v-.01l-.01-.01h-.01v-.01l-.01-.01-.01-.01v.01l-.01.01-.01.01-.01.01-.01.01v.01l-.02.02-.01-.01v-.01l-.02-.01-.01.01h-.01l-.03.04-.04-.02-.01.01-.01.01-.01.01v.01h-.01v.01l-.01.01-.01.01-.02.02-.04.05-.03.04h-.02l-.01-.01-.04-.01-.02-.01v.01l-.01.02-.01.02v.01l-.01.01v.01l-.01.02.01.02v.01l.01.03.01.02.01.01.01.01v.01h.01v.04l.01.01v.03h.01v.04l-.01.02-.01.01-.01.01-.01.01h-.01v.01l-.01.01-.01.01h-.01v.01l-.01.01h-.01v.01l-.01.01-.01.01h-.01v.01l-.01.01-.01.01-.01.01-.01.01v.01h-.01v.01l-.01-.01-.01-.01-.04-.04-.02-.02h-.01l-.04-.03-.01-.01h-.01l-.01-.01-.02-.03-.03-.04v-.01h-.01l-.01-.01-.02-.02v-.01h-.01l-.01-.02-.01-.01-.01-.01-.05-.06-.02-.02-.01-.02-.01-.01v-.01l-.01-.01-.01-.01-.01-.01-.01-.01v-.01h-.01l-.01-.01-.01-.01-.01-.01-.01-.01-.01-.02h-.01v-.01l-.01-.01-.01-.01v-.01h-.01v-.01l-.01-.01-.01-.01-.01-.01v-.01l-.02-.01-.01-.02-.01-.01-.01-.01v-.01l-.01-.01-.01-.01-.01-.01-.01-.01-.02-.02-.02-.03-.02-.03-.02-.02-.01-.01-.01-.02-.01-.01v-.05h-.01v-.01h-.01v-.02l-.01-.01-.01-.01-.01-.01h-.01v-.01h-.02v-.01h-.01l-.01-.01-.02-.01h-.01v-.01h-.01l-.02-.02h-.01v-.01l-.01-.01-.01-.01-.01-.01-.01-.01-.02-.02v-.01h-.01v-.01l-.01-.01-.01-.02v-.01h-.01l-.01-.01v-.02l-.01-.01v-.01h-.01v-.01l-.02-.01h-.01v-.01l-.01-.01-.01-.01-.01-.02-.01-.01-.01-.02v-.01l-.01-.01v-.04l-.01-.02v-.03l-.01-.02-.01-.01v-.02h-.01v-.02h-.01v-.01h-.01l-.01-.03-.01-.01v-.01l-.01-.01-.01-.02-.02-.03-.01-.02h-.01v-.01l-.01-.01V338l-.01-.01-.01-.02v-.01l-.01-.03-.01-.01v-.02l-.01-.06v-.02h-.06l-.02-.01h-.08l-.01-.01H485.88l-.01.01v.01l-.01.01h-.01v.01h-.01l-.01.01h-.12l-.03-.01h-.02v-.01l.01-.02v-.03l.01-.03v-.01l.01-.02v-.05l.01-.01v-.02l.01-.02v-.04l.01-.02v-.01l.01-.03v-.03l.01-.02.01-.03v-.03l.01-.02v-.03h.01v-.03h.01l.02-.01h.01l.02.01h.09v.01h.05v.01H486.03l.01.01h.04l.01.01h.01V337.2H486.22v.01h.09v.01h.08v.01h.07l.01.01h.09l.01.01H486.65l.03.01H486.74l.01.01h.03l.01-.02v-.01h.01v-.01l.01-.01.01-.02.01-.01.01-.01v-.02h.01l.01-.02v-.01l.01-.01.01-.01.01-.02v-.01l.01-.01.01-.01v-.01l.01-.01.01-.01v-.01l.01-.01.01-.01h.04l.01.01.01-.01.04.02.01-.01v-.04l.01-.01v-.02l.01.01h.01l.01.01h.01l.01.01h.02v.01h.01l.01.01h.01l.02.01.01.01h.01l.01.01.02.01.01.01h.01l.01.01.03.01h.01v.01h.01l.01.01h.02l.01.01.01.01h.02l.01.01.01.01h.01l.02.01.01.01.03.01.02.02h.03l.02.01h.04l.02.01h.04v-.02h.01V337.11l.01-.01v-.05l.01-.01v-.05l.01-.01v-.05l.01-.01v-.06l.01-.01V336.79l.01-.03v-.02Z"/>
  <path class="region1 dot-map" id="svg_ciudad_de_m%C3%A9xico_La_Magdalena_Contreras" d="m483.64 338.97-.01.02-.01.01h-.08l-.02.01-.01.01v.01l-.04.03h-.01l-.01.01v.03h-.01v.01h-.04v.01h-.01l-.01.01h-.01v.01h-.01l-.01.01h-.01v.03h-.01v.02h-.01v.01l-.01.02.02.01-.01.01h-.01v.01h-.01v.01h.01l.01.01v.04l.01.01-.01.01-.01.02-.01.01h-.01v.01h-.01l-.01.01h-.01v.01h-.03l.01.01v.01h-.05l-.02-.01-.02.01h-.02v.01h-.01v-.01l-.01.01h-.01v.01h-.01v.01l.01.01h-.02l-.01.01-.01.01v.01l.01.03v.03h.01l.01.01h.01v.01l.01.01v.01l.01.01-.01.01h-.01v.01l-.01.01v.02l-.01.01-.01.01h-.01v.02h.01l.01.01h.01v.01h-.01l-.01.01h-.02v.01h-.01.01v.03h-.01v.01h-.02v.01h-.01v.01l.01.01-.01.01v.02l-.01.01v.03h.01v.01l.01-.01v.01h.02l.01.01v.02h-.01v.02h-.01v.02l-.01.01.01.01.01.01v.04h.01v.03h-.01l-.01.01h-.01l-.01.01-.01.01-.01.01-.01.01v.01h.01v.01l-.01.01v.01h-.02v.03l.02.01.01.01v.01l.01.01v.01l-.01.01v.02l-.01.01v.01h-.02v.01h-.01.01v.01l.02.01.01.01h.03l.01-.01h.01v.01l-.01.02h-.01l-.01.01-.01.01v.02h.01l.01.01h-.01v.02H483v.01h.01v.01l.01.01v.05l-.01.01-.01.01v.02h.01l-.01.01-.01.01v.01h-.02l-.01.01-.01.01v.02h-.01v.03h-.04v.01h-.01v.02l-.01-.01v.01h-.01v.01h.01v.01l-.01.01-.01.01-.01.01v.02l-.01.01v.02h.01v.01l.01.01v.01l-.01.01-.01.01v.01l-.01.01v.01l-.01.01-.01.01v.01l.01.01v.02l-.01.01v.01l-.01.01-.02.01-.01.01h-.01l-.01.01-.01.01-.01.01v.01h-.03v.01l-.01.01-.01.01-.01.01-.01.01-.03.01-.01.01-.01.01h-.04l-.01.01-.01.01h-.01l-.01.01-.03.02h-.01v.01h-.02l-.01.01-.02.01-.02.01v.01l-.02.01-.01.01h-.02l-.01.01v.01h-.01v.01h-.01l-.01.01-.01.01v.01l-.02.01h-.01l-.01.01v.01l-.01.01h.01V341.34h-.01v.01l-.01.01-.01.01h-.01l-.01.01h-.01v.02h-.01v.01l-.01.01v.01h-.02l-.01.01h-.03v.01h-.05v.01h-.02v.01h-.03v-.01h-.01v-.01h-.02v.01h-.05l-.01.01h-.02l-.01-.01-.01-.01h-.03l-.01-.01h-.01l-.01-.01h-.01l-.01.01-.01.01h-.02l-.01-.01h-.01v-.01l-.01-.01h-.01v-.01h-.01l-.01-.02-.01-.02h-.01l-.01-.01v-.01h-.02l-.01-.01h-.01l-.01.01h-.04l-.01-.01h-.02l-.02-.01-.01-.01v-.01l-.01-.01h-.01v-.01l-.01-.01h-.01l-.01-.02-.02-.02h-.01l-.01-.01h-.01l-.02-.01-.01-.01h-.01l-.01-.01-.01-.01-.01-.01-.01-.01h-.01l-.01-.01h-.01l-.01-.01h-.01l-.01-.01h-.02v.01l-.01-.01h-.01l-.01-.01h-.01l-.01-.01h-.01l-.01-.01.01-.05-.15-.09h-.03v-.03h-.01v-.04l-.01-.01.01-.01v-.04l-.01-.01v-.02l.01-.02v-.01l.02-.01.02-.03.01-.01.01-.01v-.01h.01l.01-.01h.01l.01.01h.01v-.02l.02-.01v-.05l-.01-.02.01-.01.01-.01v-.02l.01-.01v-.01l-.01-.02.01-.01h.01v-.01l.01.01V340.46h.01v-.01l.01-.01v-.02l.01-.01v-.01h-.01v-.01h-.01v-.01h.01v-.01h.02v-.01h.01v.01h.03l.01-.01h.04l.02-.01h.01l.01-.01.01-.01h.02l.01.01h.06l.04-.01.01-.01h.01l.01-.01.01-.01h.01v-.02l.01-.01.01-.01h.03l.02-.01h.02l.01-.01.01-.01.01-.01v-.01l.02-.01h.01l.02-.01.01-.01.01-.01v-.01l.01-.01-.01-.01v-.01l.01-.01.01-.01.02-.02v-.01l.01-.01.01-.01h.01l.01-.01.01-.01h.01l.01-.01h.01v-.01l.01.01h.04l.02-.01h.01l.02-.02v-.02l.01-.03.01-.01v-.01h.01l.01-.01v-.01l.01-.01.01-.01-.01-.01h-.01v-.02l.01-.01.01-.01.02-.04h.01l.01-.01.01-.02v-.01h.03l.01-.01.01-.01h.02v.01-.01h.01v-.02l.03-.02.09-.05h-.01v-.01l-.04-.05-.03-.04.04-.06.04-.04.02-.03v-.03h.01v-.02l.01-.01v-.06l.03-.02v-.01l.01-.01.01-.01-.02-.01-.01-.01h-.01v-.01h-.02l-.01-.01h.01l.01-.01h.01l.01-.01v-.01l.01-.01h.01l.01-.01h.01l.02-.01v-.01h-.02l-.01-.01h-.01v-.01h-.01v-.01h-.01v-.01h-.01v-.04l.01-.01h-.01v-.01l.01-.01v-.01h.01v-.03h.01l-.01-.01v.01-.02l.01-.01v-.01h.01v-.02h.02l.01-.01h.02v.01h.01l.01.01h.02l.01-.01v-.01h.01v-.01l.01-.01h.01v-.01l.01-.01h.01v-.01h.01l.01-.02.01-.01h.01l.01-.01v-.01l.01-.02.01-.02v-.01h.01v-.01l.01-.01.01-.01.01-.01h.01v-.01h.01v-.01h.02v-.01l.01-.01.01-.01.01-.02v-.01l.01-.01v-.01h.01v-.01l.01-.01.01-.01h.05l.01-.01h.08l.02-.01h.01v-.01h.07l.01-.01h.05l.01.01v.01l.01.01.03.05v.01h.01v.01h.03v-.01h.01v.01h.02l.02-.01h.01l.02-.01v-.01l.01-.01.04-.02h.01l.01-.01.03-.03.01-.02h.01l.01-.02h.01l.02-.01h.02v-.01h.01l.01-.01.03-.01h.03l.04-.02h.01l-.01-.01.03-.01.02-.01h.01l.02-.01h.05l.02-.01.02-.01h.02v-.01h.02l.01-.01h.01v-.02h.04v-.01l.01.01h.05l.02-.01h.01l.01-.01.01-.01h.01l.01-.01h.03l-.01.01-.01.02-.01.02.01-.01h.04l-.01.01-.01.01-.02.01v.01h-.01v.01l-.01.01-.01.01v.01l-.01.01-.01.02v.01l-.01.01v.01l-.03.06-.01.01-.01.02v.01h-.01l-.02.02-.02.02-.04.03-.04.02-.02.02-.02.01-.02.02h-.01v.01h-.01v.01h-.01v.02l-.01.01v.02l.01.01v.04l.01.01v.05l.01.01v.02l.01.01v.01Z"/>
  <path class="region1 dot-map" id="svg_ciudad_de_m%C3%A9xico_Milpa_Alta" d="m489.98 341.53.02.02.02.02v.03l-.01.01v.03l-.02.01-.01.02-.02.01-.01.01.05.03v.01l.02.07v.05l-.02.21.03.06.17.2.08.07.01-.01.03.07.07.14-.34.09-.04.01.05.07.02.01.02.03.02.02.01.01.01.02.03.03.01.01.01.02.01.01.01.01.02.03h.01l.09.11-.12.06h-.01l-.07.03-.01.01-.09.04.01.03.01.02.01.01.01.03.01.01.02.04v.01l.01.01.01.02v.01l.01.01.01.01.01.02v.02l.01.01.01.02v.01l.01.03v.01l.03.06.02.07v.01l.02.05.01.02-.01.07v.05h-.01l-.01.07v.06l.01.03-.01.03-.01.03v.12l-.06.22-.05.09-.06.15-.06.07-.08.05-.06.04-.13.13-.09-.08-.03-.03-1.14-.16-.03.02-.33.22-.14.23-.2.33-.08.13-.06-.01-1.07-.22-.01-.01-.52-.11-.24-.67-.01-.01h-.02l-.26-.29-.2-.2-.22-.22.21-.45.02-.07.04-.1.02-.22v-.02l.05-.21.01-.01H485.48l.01.01.01.01.02.01h.02v.01l.01.01h.01v.01l.01.01.01.01v.01l.01.01v.02l.01.01.01.01.01.02.01.01.01.01v.01l.01.01.01.01.01.01h.02l.02.01.02.01.12.05.03-.05.02-.05.28-.51.02-.02.13-.24.02-.04v-.01l.02-.03.01-.01.03-.06.03-.05v-.01l.01-.01v-.01l.01-.02.03-.05.01-.01v-.01l.01-.01v-.01h.01v-.02h.01v-.01l.01-.01h.01v-.01h-.01v-.01h.01l.01-.01.02-.01h.01l.01-.01h.01v-.05l.01-.01V341.67h.01l.01-.01v-.01h.01l.01-.01v-.01l.01-.01v-.01l.01-.01v-.01h.04l.02-.01h.04v-.01l.01-.01v-.05h.03v.01h.08l.03-.01h.03v-.01h.05v-.01h.02l.03-.01h.05l.01-.01h.03l.01-.01h.04l.01-.01h.02l.02-.01h.03l.05-.01.03-.01h.04l.05-.02h.04l.03-.01h.01l.04-.01.02-.01.07-.01h.01l.02-.01h.03l.04-.01h.02l.05-.01.02-.01h.02l.07-.02h.03l.01-.01h.03l.03-.01.06-.01h.02v-.01h.03l.03-.01.05-.01h.03l.01-.01h.03l.03-.01h.03l.07-.02.09-.01h.09l.03-.01h.08l.01-.01h.02l.12-.01h.07l.02-.01h.09l.01-.01h.09l.03-.01-.07-.01v-.02h.01l.01.01.04.01h.02v-.01h.01v-.01l.01.01.01-.01h.04v.01h-.01v.02h.02l.01.01v.02h.01v.01l.01-.03v-.01l.01-.03.02.01.01-.01.01.01v.05h.01v.01h.05v-.02h.01l.06.05.07.06.03.03h.01v.01h.01l.01.01h.01v.01l.01.01h.01v.01h.01l.05.04.02.02.01.01.01.01h.01l.07.01h.02v.01h.01l.01.01.01.01v.01l.01.01h.01v.01h.01l.01.01h.01l.02.01.01.01h.01l.01.01h.01Z"/>
  <path class="region1 dot-map" id="svg_ciudad_de_m%C3%A9xico_Álvaro_Obregón" d="m484.42 336.87.01.02v.01h.01v.03l-.01.02v.01l-.01.02-.01.03v.03l-.01.01v.02l-.01.02v.02l-.01.02-.01.01v.02h-.01v.01l-.01.01V337.29l.01.02v.01l-.01.03v.05l-.01.02v.01l.01.01v.02h.01v.01l-.01.02v.04l.01.01v.01l.01.01v.02h.01v.04l-.01.02v.04h.02l.03.01h.03l.02.02h.01l.03.01h.05l.01-.01.01-.01h.02l.01-.01h.04l.01-.01.01-.01.01-.01.01-.01.01-.01.01-.01.01.02.01.01.02.02h.01l.01.02.01.01h.01l.01.02.01.01.01.01.01.01.03.01v.01l-.02.04-.01.01v.02l-.02.01-.01.02-.02.02-.01.01-.01.01-.01.01-.03.02v.01l-.01.01-.02.02-.02.02-.01.01h-.01v.01l-.01.06h-.01l-.03-.01-.01.02h-.01l-.01.01v.03h-.01v.02l-.01.01v.01h-.02l-.01.01h-.01l-.01.02-.01.01-.01.01v.01h-.02l-.01.01-.01.01h-.01l-.01.01-.01.01-.01.02h-.01v.02l-.01.01-.01.01v.01h-.05l-.03.01h-.02l-.03.01-.02.01h-.03v.01h-.01l-.01.02-.01.01-.01.01v.01l.03-.01H484.24v.03l.01.01.01.02.01.01.01.01v.08l-.01.06v.08l-.04.06-.05.09-.03.05-.03.04h-.01v.02h.03l-.01.01v.01l-.03.02v.01l-.02.01-.06.06-.01.01v-.01H484v.02l-.07-.01h-.02l-.02-.01h-.04l-.04-.01h-.01l-.02-.01h-.01l-.01-.01h-.02l-.01-.01-.01-.01h-.01l-.01-.02h-.01v-.01l-.02-.02V339h-.01v-.01l-.01-.01-.01-.01v-.01l-.01-.01v-.02l-.01-.01v-.05l-.01-.01v-.04l-.01-.01v-.02l.01-.01v-.02h.01v-.01h.01v-.01h.01l.02-.02.02-.01.02-.02.04-.02.04-.03.02-.02.02-.02h.01v-.01l.01-.02.01-.01.03-.06v-.01l.01-.01v-.01l.01-.02.01-.01v-.01l.01-.01.01-.01v-.01h.01v-.01l.02-.01.01-.01.01-.01h-.04l-.01.01.01-.02.01-.02.01-.01h-.03l-.01.01h-.01l-.01.01-.01.01h-.01l-.02.01h-.05l-.01-.01v.01h-.04v.02h-.01l-.01.01h-.02v.01h-.02l-.02.01-.02.01h-.05l-.02.01h-.01l-.02.01-.03.01.01.01h-.01l-.04.02h-.03l-.03.01-.01.01h-.01v.01h-.02l-.02.01h-.01l-.01.02h-.01l-.01.02-.03.03-.01.01h-.01l-.04.02-.01.01v.01l-.02.01h-.01l-.02.01h-.02v-.01h-.01v.01h-.03v-.01h-.01v-.01l-.03-.05-.01-.01v-.01l-.01-.01h-.05l-.01.01h-.07v.01h-.01l-.02.01h-.08l-.01.01h-.05l-.01.01-.01.01v.01h-.01v.01l-.01.01v.01l-.01.02-.01.01-.01.01v.01h-.02v.01h-.01v.01h-.01l-.01.01-.01.01-.01.01v.01h-.01v.01l-.01.02-.01.02v.01l-.01.01h-.01l-.01.01-.01.02h-.01v.01h-.01l-.01.01v.01h-.01l-.01.01v.01h-.01v.01l-.01.01h-.02l-.01-.01h-.01v-.01h-.02l-.01.01h-.02v.02h-.01v.01l-.01.01v.02-.01l.01.01h-.01v.03h-.01v.01l-.01.01v.01h.01l-.01.01v.04h.01v.01h.01v.01h.01v.01h.01l.01.01h.02v.01l-.02.01h-.01l-.01.01h-.01l-.01.01v.01l-.01.01h-.01l-.01.01h-.01l.01.01h.02v.01h.01l.01.01.02.01-.01.01-.01.01v.01l-.03.02v.06l-.01.01v.02h-.01v.03l-.02.03-.04.04-.04.06.03.04.04.05v.01h.01l-.09.05-.03.02v.02h-.01v.01-.01h-.02l-.01.01-.01.01h-.03v.01l-.01.02-.01.01h-.01l-.02.04-.01.01-.01.01v.02h.01l.01.01-.01.01-.01.01v.01l-.01.01h-.01v.01l-.01.01-.01.03v.02l-.02.02h-.01l-.02.01h-.04l-.01-.01v.01h-.01l-.01.01h-.01l-.01.01-.01.01h-.01l-.01.01-.01.01v.01l-.02.02-.01.01-.01.01v.01l.01.01-.01.01v.01l-.01.01-.01.01-.02.01h-.01l-.02.01v.01l-.01.01-.01.01-.01.01h-.02l-.02.01h-.03l-.01.01-.01.01v.02h-.01l-.01.01-.01.01h-.01l-.01.01-.04.01h-.06l-.01-.01h-.02l-.01.01-.01.01h-.01l-.02.01h-.04l-.01.01h-.03v-.01h-.01v.01h-.02v.01h-.01v.01h.01v.01h.01v.01l-.01.01v.02l-.01.01v.01h-.01V340.52l-.01-.01v.01h-.01l-.01.01.01.02v.01l-.01.01v.02l-.01.01-.01.01.01.02v.05l-.02.01v.02h-.01l-.01-.01h-.01l-.01.01h-.01v.01l-.01.01-.01.01-.02.03-.02.01v.01l-.01.02v.02l.01.01v.04l-.01.01.01.01v.04h.01v.03l-.05.01V340.83l.02-.31V340.16l.12-.21.03-.03.01-.01v-.06l.01-.01v-.04l.01-.01.01-.03.01-.03v-.04l-.02-.02-.01-.04.01-.03.01-.01v-.03l.01-.03-.01-.01-.01-.01-.01-.02v-.02l-.01-.01v-.04l.01-.01-.01-.01v-.02l.01-.01v-.02l.01-.01v-.02l.01-.01v-.02l-.01-.01v-.01h.01l.01-.01v-.01l.01-.01h.03v-.04l.01-.01.01-.01v-.01h.03v-.02l-.01-.01h.01v-.02l.01-.01v-.01h.02v.01-.01h.01v-.01h.01l.01.01.01.01v.04h.02v-.01h.01l.01-.01v-.02l.01-.01v-.02h.01l.01.01.01.01v-.01h.01v-.01l.01-.01.01-.02v-.01h.02v-.02l.01-.01.01-.01h.01l.01.01.01.02.01.01h.01V338.98l.01-.01.01-.01.01-.01v-.04l-.01-.01v-.03l-.01-.02-.01-.01v-.01l-.01-.01v-.01h.01v-.01h.01v-.03h.01V338.71h.01v.01h.01v.01l.01.01h.01v.02l.01.01v.02h.02v.01h.02l.01.01v.03h.02l.01-.01v.01h.01v.01h.01v-.01h.01v-.01l.01-.01v-.04h.01v-.02h.01l.01-.01h.02v-.01h.03v-.01h.01v-.01h-.01v-.01h-.02v-.03h-.01v-.03l.01-.01v-.01l.01-.02h.01v-.02l-.01-.02h-.01v-.03h.01v-.01l.01-.01.01-.01v-.01l.01-.02.01-.01.01-.02.01-.01h.01v-.01h.01v.01h.01l-.01.01v.01l-.01.01v.04h.01l.01.01h.01v.01h.01v-.01l-.01-.01h-.01v-.03l.01-.02h.01v-.02l.01-.01.01-.02.02-.04v-.01h.01v-.01h.02l.01.01h.01l.02.01v.01h.01l.03.01h.01l.01-.01v-.02h-.01l-.01-.01h-.01v-.02l.01.01.01-.01h.05l.01-.01.02-.01.01-.01h.02l.01-.01h.01l.02-.01.01-.01h.02v-.01h.02v-.01h.02l.02-.01.01-.01h.01v-.01h.05v-.01l.01-.01.01-.01v-.01l.01-.01.01-.01.01.01.01-.01v-.01h.02v-.02h.01v.01l.01-.01v-.01h.01v-.01h.01v-.01h.01v-.01.01h.02v-.01h.03v-.01h.02v-.01h.03v-.01h-.01l-.01.01-.01-.01h-.01v.01h-.02.01l.01-.01h.02v-.01l.01-.01h.01l.01-.01.01-.01-.01-.01-.01.01h-.01v-.08l-.01-.03-.01-.03v-.03l-.01-.01v-.03l-.01-.04v-.02l-.01-.01v-.01h-.01v-.01h-.01l-.01-.01h-.02l-.01-.01h-.02l-.01-.01h-.02l-.01-.01-.02-.01.01-.01v-.04l-.01-.01v-.05l.01-.01v-.01l.01-.02.01-.01v-.02l.01-.02v-.01h-.01l-.01.01v.01h-.01v.02h-.01v.01l-.01.01v.01h-.01v.01h-.04l.01-.01v-.01l.01-.01v-.04h-.01l-.02.01-.01-.02v-.03h.01v-.01h.03l.01.01h.01l.01-.01.01-.01v-.01h.03l.01-.01h.05l.01-.01.02-.01h.01l.01-.01h.01l.01-.01.02-.02.02-.01v-.01l.02-.02h.01l.01-.02h.01l.02-.01.01-.01.02-.01.01-.01h.01l.04-.03.03-.02.01-.01h.01l.01-.01.01-.01.03-.02.02-.02.03-.02.01-.01h.01v-.01h.03l.02.01h.01l.01.01v-.01h.01l.01-.01.02-.01.01-.01h.01l.01-.01h.01v-.01l.01-.01.01-.02V336.94h.01l.02-.02h.05l.01-.01.07-.02v-.01H483.38l.01-.01h.04l.02-.01h.05l.01.01.02-.01h.02l.03-.01h.01l.06-.02.03-.01.01-.01h.02l.01-.01h.02l.03-.01.01-.01h.02l.02-.01.01-.01h.01l.02-.01h.01l.01-.01h.05l.02-.01h.04l.03-.01h.08l.01-.01h.01l.01-.01h.02l.01-.01h.01l.01-.01h.03l.02-.01h.07l.02-.01h.02v.07h.01v.01h.01v.01h.01l.01.01v.02l.01.01v.01l.01.01v.01l.01.01.01.02v.02Z"/>
  <path class="region1 dot-map" id="svg_ciudad_de_m%C3%A9xico_Tláhuac" d="M490.18 338.64h.01l.03.03.02.01.01.01-.03.04h-.01v.01l-.04.05-.01.01-.01.02-.02.02-.01.01v.01l-.01.04v.04l-.01.02v.05h-.01V339.07h-.01v.02l-.01.01v.01l-.01.01h-.02v.01h-.03v.04l-.01.01v.06l-.01.01V339.31h-.01v.07h-.01V339.44l-.01.01v.05l-.01.02v.05l-.01.05v.01l-.03.19-.01.05-.04.22-.04.21-.01.05-.03.11.26.08-.05.34-.01.11h.02l.04.01.02.01.03.01.04.01.01.01.04.01.05.02.06.01v.01h.03l.04.02h.02l.01.01h.02l.01.01h.03v.01h.01l.02.01h.03l.01.01h.01l.02.01h.02l.01.01h.01l.03.01.07.02-.04.13-.02.06-.21-.06-.03.04v.01l-.03.02h.01-.02v.02l-.04-.01h-.08l-.01.01h-.03l.01.01v.01h-.01l-.02-.01h-.04l-.02.03-.02-.01-.01.01-.06.03h-.01v.01l-.01.01v.01h-.03l-.01-.01h-.01l-.01-.01-.02-.01h-.01l-.01-.01h-.01v-.01h-.01l-.01-.01v-.01l-.01-.01-.01-.01h-.01v-.01h-.02l-.07-.01h-.01l-.01-.01-.01-.01-.02-.02-.05-.04h-.01v-.01h-.01l-.01-.01v-.01h-.01l-.01-.01h-.01v-.01h-.01l-.03-.03-.07-.06-.06-.05h-.01v.02h-.05v-.01h-.01v-.05l-.01-.01-.01.01-.02-.01-.01.03v.01l-.01.03v-.01h-.01v-.02l-.01-.01h-.02v-.02h.01v-.01h-.04l-.01.01-.01-.01v.01h-.01v.01h-.02l-.04-.01-.01-.01h-.01v.02l.07.01-.03.01h-.09l-.01.01h-.09l-.02.01h-.07l-.12.01h-.02l-.01.01h-.08l-.03.01h-.09l-.09.01.05-.07.25-.28.01-.02v-.01l.01-.01h.01v-.01h.01v-.01l.02-.01v-.01h.01v-.02l.01-.01v-.02h.01v-.02h.01v-.04h.01l.02.01h.01v-.04l.01-.01.02.02.01-.01v-.02h.01l.01-.01.01-.02v-.02l.01-.01v-.01l.01-.01v-.01h.03v-.01l.01.01v-.01l.01-.01-.02-.02-.01-.01v-.01h-.01l-.02-.02-.01-.02-.02-.02h-.01l-.01-.01h-.01v-.02l-.01-.01v-.01l-.01-.01h-.01v-.01h-.01l-.01-.01h-.01l-.01-.01h-.02v-.01h-.02v-.01h-.01v-.01h-.03l-.01-.01h-.01l-.01-.01h-.07l-.01-.01h-.02l-.03-.01h-.02l-.01-.01h-.01l-.01.01h-.03l-.02-.01-.03-.01h-.02l-.01-.01v-.03l-.01-.01-.01-.01-.04-.04-.01-.01-.01-.02-.01-.01-.01-.01-.01-.01-.01-.02-.01-.01-.01-.01-.01-.01-.02-.01v-.01h-.01l-.02-.01h-.01l-.02-.01-.02-.01v-.01l-.03-.01-.09-.03-.06-.02-.02-.01-.06-.04-.04-.02-.04-.02h-.02v-.01h-.08l-.02-.01-.03-.01-.12-.04-.1-.06-.01-.01v-.01h.01v-.01l.01-.01.01-.01.01-.01.01-.01v-.01h.01l.01-.01.01-.01v-.01h.01l.01-.01v-.01h.01l.01-.01.01-.01v-.01h.01l.01-.01.01-.01.01-.01.01-.02v-.04h-.01v-.03l-.01-.01v-.04h-.01v-.01l-.01-.01-.01-.01-.01-.02-.01-.03v-.01l-.01-.02.01-.02v-.01l.01-.01v-.01l.01-.02.01-.02v-.01l.02.01.04.01.01.01h.02l.03-.04.04-.05.02-.02.01-.01.01-.01v-.01h.01v-.01l.01-.01.01-.01.01-.01.04.02.03-.04h.01l.01-.01.02.01v.01l.01.01.02-.02v-.01l.01-.01.01-.01.01-.01.01-.01v-.01l.01.01.01.01v.01h.01l.01.01v.01h.01l.03.02.01-.01v-.01l.01-.01.01-.01v-.01h.01v-.01h.01l.02-.02h.02v.01l.01.01v-.01h.01v-.01l.01-.01.1-.03.22-.06.18-.06.24-.07.05-.02.15-.05.09.01h.12l.09.01h.08l.14.01h.02l.01.01-.01.01-.01.01v.02h.05v-.01l.01-.02v.01h.01l.01-.01h.01l.01.01v.01h.01l-.01-.01h.01l.02-.02h.01l.09.01h.01l.01.01h.04l.01-.01.01-.01h.16l.01.01h.02Z"/>
  <path class="region1 dot-map" id="svg_ciudad_de_m%C3%A9xico_Tlalpan" d="m486.64 339.28-.01.08v.04l-.02.01h-.02l-.02.01v.01h-.02v.01h-.01l-.02.01h-.01l-.05.02-.03.01-.02.01h-.01l-.03.02-.03.01-.04.02h-.01l-.02.01-.06.03-.09.04h-.01l-.05.02h-.01l-.01.01h-.02l-.05.02h-.02l-.02.01h-.01l-.02.01h-.03l-.01.01h-.01l-.04.01-.03.01h-.15v.03l-.01.03v.07l-.01.02v.04l-.01.02.03.01-.01.02v.01l-.01.01v.03l-.01.01h-.02v.02l-.01.01v-.01h-.01l-.01.02-.01.01v.02h-.01v.01h.05l-.01.02h.03v.04l-.01.01.01.01V340.29h.01v.01l.01.01h.01v.01h.01v.01h.01v.02l-.01.01v.01h.01v.01h.01v.01l.01.01v.05h-.01v.01l-.01.01v.03h-.01.01l-.01.01h-.01v.01h-.01v.02h-.01v.01l.01.01h-.01l.01.01.01.01h.01v.01h.01v.01h.01v.01l.01.01v.01h.01v.01l-.01.03-.01.01-.01.01v.01h-.02l-.01-.01-.01.01h.01-.01l-.01-.01v-.01h-.03v-.01h-.02V340.73l.01.01v.06h-.04v.01h-.02v-.02h-.01v-.01h-.02v.01l.01.01v.01l.02.03v.01l.01.01.02.04.01.01.01.02h-.05v.01-.01h-.04v-.01h-.01v-.03h.01v-.01h-.01v.02h-.02v.02h-.01v.02h-.02v-.01h-.01v-.01V340.98h-.01v.02h-.01v.01h-.01v.03l-.01.01v.01l-.01.01v.03l-.01.01v.02l-.01.01v.01l.01.01v.01h.02v.01h.03v.02h-.01.01v.01h-.02v.02l-.01.01v.03l-.01.01h-.01v-.01h-.01v-.02l-.03.03.13.03.28.09.1.1.01.02.01.01h.01v.01h.01v.05h.01v.05h.01v.01l.01.01.01.01v.01l.01.01.01.01h.01l-.01.01v.01h.03l-.01.01V341.79h.01v.04h-.01v.01h.01v.01h-.01v.02l-.01.01h-.01v.02l.01.01v.03h-.01v.02h-.01V342.02h.01l.01.01v.01l.02.01.01.02.02.01.01.01v.01h.01v.03l-.01.01-.01.01-.01.01-.01.01v.01l-.01.01h-.01v.01h-.01l-.01.01v.03l-.01.01-.01.01v.01l-.01.02-.01.01v.03h-.01v.07l.01.01v.02l.01.01v.01l.01.01h.01v.01l.01.01v.01h.01v.01h-.01v.08l.01.02-.01.02v.05l-.01.01-.01.02-.01.03-.01.01v.01l-.01.02v.01l-.01.02v.13l.01.02v.01l-.01.01v.01h.02l.01.01h.03l-.02.05-.03.05-.12-.05-.02-.01-.02-.01h-.02l-.01-.01-.01-.01-.01-.01v-.01l-.01-.01-.01-.01-.01-.02-.01-.01-.01-.01v-.02l-.01-.01v-.01l-.01-.01-.01-.01v-.01h-.01l-.01-.01v-.01h-.02l-.02-.01-.01-.01-.01-.01h-.06l-.01.01-.05.21v.02l-.02.22-.04.1-.02.07-.21.45.22.22.2.2.26.29-1.06-.08-1.08-.08-.14-.01-.75-.52-.56-.38-.04-.06-.06-.11-.07-.11-.05-.1-.14-.47-.07-.19-.11-.29-.03-.1-.04-.06-.01-.07-.01-.09-.01-.03-.01-.06v-.05l-.04-.09-.02-.12-.01-.07-.02-.02h-.01l-.1-.09-.02-.02-.08-.06.01-.03.01-.12.01.01h.01l.01.01h.01l.01.01h.01l.01.01v-.01h.02l.01.01h.01l.01.01h.01l.01.01h.01l.01.01.01.01.01.01.01.01h.01l.01.01.02.01h.01l.01.01h.01l.02.02.01.02h.01l.01.01v.01h.01l.01.01v.01l.01.01.02.01h.02l.01.01h.04l.01-.01h.01l.01.01h.02v.01l.01.01h.01l.01.02.01.02h.01v.01h.01l.01.01v.01h.01l.01.01h.02l.01-.01.01-.01h.01l.01.01h.01l.01.01h.03l.01.01.01.01h.02l.01-.01h.05v-.01h.02v.01h.01v.01h.03v-.01h.02v-.01h.05v-.01h.03l.01-.01h.02v-.01l.01-.01v-.01h.01v-.02h.01l.01-.01h.01l.01-.01.01-.01v-.01h.01V341.28h-.01l.01-.01v-.01l.01-.01h.01l.02-.01v-.01l.01-.01.01-.01h.01v-.01h.01v-.01l.01-.01h.02l.01-.01.02-.01v-.01l.02-.01.02-.01.01-.01h.02v-.01h.01l.03-.02.01-.01h.01l.01-.01.01-.01h.04l.01-.01.01-.01.03-.01.01-.01.01-.01.01-.01.01-.01v-.01h.03v-.01l.01-.01.01-.01.01-.01h.01l.01-.01.02-.01.01-.01v-.01l.01-.01v-.02l-.01-.01v-.01l.01-.01.01-.01v-.01l.01-.01v-.01l.01-.01.01-.01v-.01l-.01-.01v-.01h-.01v-.02l.01-.01v-.02l.01-.01.01-.01.01-.01v-.01h-.01v-.01h.01v-.01l.01.01v-.02h.01v-.01h.04v-.03h.01v-.02l.01-.01.01-.01h.02v-.01l.01-.01.01-.01H483v-.02l.01-.01.01-.01v-.05l-.01-.01v-.01H483v-.01h.01v-.02h.01l-.01-.01H483v-.02l.01-.01.01-.01h.01l.01-.02v-.01h-.01l-.01.01h-.03l-.01-.01-.02-.01v-.01h-.01.01v-.01h.02v-.01l.01-.01v-.02l.01-.01v-.01l-.01-.01v-.01l-.01-.01-.02-.01v-.03h.02v-.01l.01-.01v-.01h-.01v-.01l.01-.01.01-.01.01-.01.01-.01h.01l.01-.01h.01v-.03h-.01v-.04l-.01-.01-.01-.01.01-.01v-.02h.01v-.02h.01v-.02l-.01-.01h-.02v-.01l-.01.01v-.01H483v-.03l.01-.01v-.02l.01-.01-.01-.01v-.01h.01v-.01h.02v-.01h.01v-.03h-.01.01v-.01h.02l.01-.01h.01v-.01h-.01l-.01-.01h-.01v-.02h.01l.01-.01.01-.01v-.02l.01-.01v-.01h.01l.01-.01-.01-.01v-.01l-.01-.01v-.01h-.01l-.01-.01h-.01v-.03l-.01-.03v-.01l.01-.01.01-.01h.02l-.01-.01v-.01h.01v-.01h.01l.01-.01v.01h.01v-.01h.02l.02-.01.02.01h.05v-.01l-.01-.01h.03v-.01h.01l.01-.01h.01v-.01h.01l.01-.01.01-.02.01-.01-.01-.01v-.04l-.01-.01h-.01v-.01h.01v-.01h.01l.01-.01-.02-.01.01-.02v-.01h.01v-.02h.01v-.03h.01l.01-.01h.01v-.01h.01l.01-.01h.01v-.01h.04v-.01h.01v-.03l.01-.01h.01l.04-.03v-.01l.01-.01.02-.01H483.62l.01-.01.01-.02.01.01.01.01v.01h.01v.01l.02.02v.01h.01l.01.02h.01l.01.01.01.01h.02l.01.01h.01l.02.01h.01l.04.01h.04l.02.01h.02l.07.01.02.01h.04l.02.01h.01l.02.01.03.01h.01l.01.01.01.01h.01v.01h.01l.01.01h.02l.01.01h.05v.01h.02l.01-.01h.05l.05-.01h.04l.04-.01h.09l.01-.01H484.74l.01.01h.05l.02.01h.06l.01.01H484.95l.01.01h.07l.02.01h.05v.01h.02l.01.01h.02v.01h.01l.01.01h.01v.01h.01v.01l.02.01.01.02.01.02h.01v.01-.01h.05l.02-.01.04-.01h.02v-.01h.01l.01-.01.01-.01.02-.01.02-.02.01-.01h.01v-.01l.01-.01.01.01h.01l.01.01h.03l.01.01h.01l.01.01h.01l.02.01.01-.01.01-.01v-.01l.02-.01v-.01h.01v-.01l.01-.01.02-.01v-.01l.01-.01.01-.01.01-.01v-.01h.01v-.01l.02-.02.02-.01.01-.01.01-.02.02-.02h.01l.04.02h.01l.01.01h.01l.02.01h.01l.01.01h.01l.02.01.01.01h.02l.01.01h.01l.02.01.03.01v.01h.02l.03.01.01.01h.01l.03.01.03.01.05.01.01.01h.03l.01.01.04.01h.03l.01.01h.03l.03.01h.02v.01h.03l.02-.01h.16Z"/>
  <path class="region1 dot-map" id="svg_ciudad_de_m%C3%A9xico_Xochimilco" d="M486.69 338.76h.01v.05l.01.01.01.02.01.01.02.02.02.03.02.03.02.02.01.01.01.01.01.01.01.01v.01l.01.01.01.01.01.02.02.01v.01l.01.01.01.01.01.01v.01h.01v.01l.01.01.01.01v.01h.01l.01.02.01.01.01.01.01.01.01.01h.01v.01l.01.01.01.01.01.01.01.01v.01l.01.01.01.02.02.02.05.06.01.01.01.01.01.02h.01v.01l.02.02.01.01h.01v.01l.03.04.02.03.01.01h.01l.01.01.04.03h.01l.02.02.04.04.01.01.01.01.01.01.1.06.12.04.03.01.02.01h.08v.01h.02l.04.02.04.02.06.04.02.01.06.02.09.03.03.01v.01l.02.01.02.01h.01l.02.01h.01v.01l.02.01.01.01.01.01.01.01.01.02.01.01.01.01.01.01.01.02.01.01.04.04.01.01.01.01v.03l.01.01h.02l.03.01.02.01h.03l.01-.01h.01l.01.01h.02l.03.01h.02l.01.01h.07l.01.01h.01l.01.01h.03v.01h.01v.01h.02v.01h.02l.01.01h.01l.01.01h.01v.01h.01l.01.01v.01l.01.01v.02h.01l.01.01h.01l.02.02.01.02.02.02h.01v.01l.01.01.02.02-.01.01v.01l-.01-.01v.01h-.03v.01l-.01.01v.01l-.01.01v.02l-.01.02-.01.01h-.01v.02l-.01.01-.02-.02-.01.01v.04h-.01l-.02-.01h-.01v.04h-.01v.02h-.01v.02l-.01.01v.02h-.01v.01l-.02.01v.01h-.01v.01h-.01l-.01.01v.01l-.01.02-.25.28-.05.07-.07.02h-.03l-.03.01h-.03l-.01.01h-.03l-.05.01-.03.01h-.03v.01h-.02l-.06.01-.03.01h-.03l-.01.01h-.03l-.07.02h-.02l-.02.01-.05.01h-.02l-.04.01h-.03l-.02.01h-.01l-.07.01-.02.01-.04.01h-.01l-.03.01h-.04l-.05.02h-.04l-.03.01-.05.01h-.03l-.02.01h-.02l-.01.01h-.04l-.01.01h-.03l-.01.01h-.05l-.03.01h-.02v.01h-.05v.01h-.03l-.03.01H486.82v-.01h-.03v.05l-.01.01v.01h-.04l-.02.01h-.04v.01l-.01.01v.01l-.01.01v.01l-.01.01h-.01v.01l-.01.01h-.01v.06l-.01.01v.05h-.01l-.01.01h-.01l-.02.01-.01.01h-.01v.01h.01v.01h-.01l-.01.01v.01h-.01v.02h-.01v.01l-.01.01v.01l-.01.01-.03.05-.01.02v.01l-.01.01v.01l-.03.05-.03.06-.01.01-.02.03v.01l-.02.04-.13.24-.02.02-.28.51h-.03l-.01-.01h-.02v-.01l.01-.01v-.01l-.01-.02v-.13l.01-.02v-.01l.01-.02v-.01l.01-.01.01-.03.01-.02.01-.01v-.05l.01-.02-.01-.02v-.08h.01v-.01h-.01v-.01l-.01-.01v-.01h-.01l-.01-.01v-.01l-.01-.01v-.02l-.01-.01v-.07h.01v-.03l.01-.01.01-.02v-.01l.01-.01.01-.01v-.03l.01-.01h.01v-.01h.01l.01-.01v-.01l.01-.01.01-.01.01-.01.01-.01v-.03h-.01v-.01l-.01-.01-.02-.01-.01-.02-.02-.01v-.01l-.01-.01h-.01V341.96h.01v-.02h.01v-.03l-.01-.01v-.02h.01l.01-.01v-.02h.01v-.01h-.01v-.01h.01v-.04h-.01V341.73l.01-.01h-.03v-.01l.01-.01h-.01l-.01-.01-.01-.01v-.01l-.01-.01-.01-.01v-.01h-.01v-.05h-.01v-.05h-.01v-.01h-.01l-.01-.01-.01-.02-.1-.1-.28-.09-.13-.03.03-.03v.02h.01v.01h.01l.01-.01v-.03l.01-.01v-.02h.02v-.01h-.01.01v-.02h-.03v-.01h-.02v-.01l-.01-.01v-.01l.01-.01v-.02l.01-.01v-.03l.01-.01v-.01l.01-.01v-.03h.01V341h.01v-.02h.01V340.92v.01h.01v.01h.02v-.02h.01v-.02h.02v-.02h.01v.01h-.01v.03h.01v.01h.04v.01-.01h.05l-.01-.02-.01-.01-.02-.04-.01-.01v-.01l-.02-.03v-.01l-.01-.01v-.01h.02v.01h.01v.02h.02v-.01h.04V340.74l-.01-.01V340.67h.02v.01h.03v.01l.01.01h.01-.01l.01-.01.01.01h.02v-.01l.01-.01.01-.01.01-.03v-.01h-.01v-.01l-.01-.01v-.01h-.01v-.01h-.01v-.01h-.01l-.01-.01-.01-.01h.01l-.01-.01v-.01h.01v-.02h.01v-.01h.01l.01-.01h-.01.01v-.03l.01-.01v-.01h.01v-.05l-.01-.01v-.01h-.01v-.01h-.01v-.01l.01-.01v-.02h-.01v-.01h-.01v-.01h-.01l-.01-.01v-.01h-.01V340.18l-.01-.01.01-.01v-.04h-.03l.01-.02h-.05v-.01h.01v-.02l.01-.01.01-.02h.01v.01l.01-.01v-.02h.02l.01-.01v-.03l.01-.01v-.01l.01-.02-.03-.01.01-.02v-.04l.01-.02v-.07l.01-.03v-.03h.15l.03-.01.04-.01h.01l.01-.01h.03l.02-.01h.01l.02-.01h.02l.05-.02h.02l.01-.01h.01l.05-.02h.01l.09-.04.06-.03.02-.01h.01l.04-.02.03-.01.03-.02h.01l.02-.01.03-.01.05-.02h.01l.02-.01h.01v-.01h.02v-.01l.02-.01h.02l.02-.01v-.04l.01-.08.01-.04v-.08l.01-.05v-.08l.01-.08v-.06l.01-.03v-.1h.01Z"/>
  <path class="region1 dot-map" id="svg_ciudad_de_m%C3%A9xico_Iztacalco" d="M487.78 336.2v.01l-.01.03v.06l-.01.01V336.41l-.01.01v.08l-.01.01v.09l-.01.01v.08l-.01.04v.03l-.01.03v.06l-.01.01V336.92l-.01.01v.05l-.01.01v.05l-.01.01v.05l-.01.01v.06h-.01v.02h-.04l-.02-.01h-.04l-.02-.01h-.03l-.02-.02-.03-.01-.01-.01-.02-.01h-.01l-.01-.01-.01-.01h-.02l-.01-.01-.01-.01h-.02l-.01-.01h-.01v-.01h-.01l-.03-.01-.01-.01h-.01l-.01-.01-.02-.01-.01-.01h-.01l-.01-.01-.02-.01h-.01l-.01-.01h-.01v-.01h-.02l-.01-.01h-.01l-.01-.01h-.01l-.01-.01v.02l-.01.01v.04l-.01.01-.04-.02-.01.01-.01-.01h-.04l-.01.01-.01.01v.01l-.01.01-.01.01v.01l-.01.01-.01.01v.01l-.01.02-.01.01-.01.01v.01l-.01.02h-.01v.02l-.01.01-.01.01-.01.02-.01.01v.01h-.01v.01l-.01.02h-.03l-.01-.01H486.68l-.03-.01H486.57l-.01-.01h-.09l-.01-.01H486.39v-.01h-.08v-.01h-.09v-.01h-.12v.17h-.01l-.01-.01h-.04l-.01-.01H485.97v-.01h-.05v-.01h-.09l-.02-.01h-.01l-.02.01h-.01v-.01l.01-.01v-.04l.01-.03v-.01l.01-.02v-.03l.01-.01v-.03l.01-.02v-.03l.01-.02v-.03l.01-.01V337l.01-.02v-.01l.01-.03v-.03l.01-.01v-.04l.01-.01v-.01l.01-.03v-.03h-.16v-.02l.01-.03v-.05h.02v-.01h.09v.01h.05l.01-.01h.03v-.01h.03l.01-.01h.04l.04-.01h.02l.02-.01h.04l.01-.01H486.29l.01-.01h.03l.01-.01h.02l.05-.01.07-.01.03-.01h.01l.02-.01h.04l.01-.01h.03l.02-.01h.03l.02-.01h.02l.01-.01h.04v.01h.07l.01.01h.05l.02.01h.05l.02.01H487.04l.01.01h.06l.01.01H487.22l.01-.02.01-.02v-.01h.01v-.01l.01-.01v-.01h.01v-.01l.01-.01v-.01l.01-.01.01-.01v-.01l.01-.01.01-.01.01-.01v-.02h.01v-.01l.02-.03.01-.01.02-.03.01-.03h.01v-.01l.01-.02h.01v-.01h.02l.01-.01h.28v-.01h.01l.01-.01h.01v-.02l.01.01Z"/>
  <path class="region1 dot-map" id="svg_ciudad_de_m%C3%A9xico_Cuauhtémoc" d="m486.11 335.25-.02.02-.01.01v.01l-.01.03v.02l-.01.03v.01l-.01.01v.02l-.01.03v.02h-.01v.01l-.01.02v.02l-.01.03v.02l.01.01.01.01.02.04.01.02v.01l.01.01.01.02V335.74l-.01.02v.05l-.01.03v.04l-.01.02v.03l-.01.02v.05l-.01.02v.04l-.01.02v.06l-.01.02v.02l-.01.01v.02l-.02.02v.05h-.01v.06l-.01.01v.04l-.01.02.01.01v.03l.01.01v.03l.01.01v.03h.01l.01.02v.02l.01.01v.04l.01.03h-.04l-.01.01h-.03v.01h-.03l-.01.01h-.05v-.01h-.09v.01h-.03v-.01h-.05l-.02-.01h-.15l-.02-.01h-.26l-.01.01h-.02l-.01.01h-.03l-.01.01h-.02l-.01.01h-.02l-.01.01h-.02l-.01.01h-.02l-.01.01h-.02v.01h-.02l-.02.01h-.01l-.01.01h-.02l-.03.01h-.01v-.02l-.01-.03v-.03l-.01-.01-.01-.01h-.02l-.03-.01-.01-.01h-.02l-.01-.01h-.03l-.02-.01-.01-.01h-.01l-.02-.01-.03-.01h-.02l-.04-.02h-.02l-.02-.01h-.01l.02-.04.01-.02v-.01l.01-.01h.01v-.01l.02-.03v-.01h.01v-.01l.02-.02v-.01l.02-.03v-.01l.01-.02.02-.03.01-.01v-.01l.01-.01v-.01l.01-.01h.01v-.01h.01v-.03l.02-.02v-.01h.01v-.01h-.03l-.01-.01h-.02l.01-.02.01-.02.01-.01.01-.01.01-.02.02-.03v-.01l.01-.01.02-.02.02-.03v-.02l.02-.02.01-.02v-.01l.01-.01.02-.02.02-.04.01-.02.01-.01.01-.02.01-.01v-.02l.01-.01.01-.01.01-.03.01-.03.01-.02.01-.01v-.02l.01-.01v-.03l.01-.01v-.04l.01-.02v-.04l.01-.03V335.39l.01-.04v-.03l.01-.02v-.03h.01v-.01l.01-.01v-.01h.01l.01-.01.01-.01h.01v-.01h.01v-.01l.01-.01v-.01l.01-.01v-.01h.01v-.01h.01l.01-.01h.05l.01.01h.03l.01.01h.06l.01.01h.04l.04-.01h.01v-.01h.04v-.01h.02l.02-.01.05-.01.02-.02h.03v.01h.09l.03.01h.08l.01.01h.01l.02.02.02.01h.01l.02.02h.01l.01.01h.01l.01.01h.01l.01.01h.02l.02.01.03.01h.01l.01.01h.02l.01.01h.01Z"/>
  <path class="region1 dot-map" id="svg_ciudad_de_m%C3%A9xico_Venustiano_Carranza" d="M487.9 335.49h.01v.01l.02.03v.01l.01.02.01.02h.01v.01l.02.04.01.02.01.02.02.02h-.01v.01l-.01.02-.02.02-.01.02v.01l-.04.08-.02.03-.01.02-.01.02-.02.06-.01.01v.01l-.03.08h-.01v.02l-.01.02h-.01v.02l-.01.01-.01.03v.02l-.01-.01v.02h-.01l-.01.01h-.01v.01h-.28l-.01.01h-.02v.01h-.01l-.01.02v.01h-.01l-.01.03-.02.03-.01.01-.02.03v.01h-.01v.02l-.01.01-.01.01-.01.01v.01l-.01.01-.01.01v.01l-.01.01v.01h-.01v.01l-.01.01v.01h-.01v.01l-.01.02-.01.02H487.12l-.01-.01h-.06l-.01-.01h-.06l-.02-.01h-.05l-.02-.01h-.05l-.01-.01h-.07v-.01h-.04l-.01.01h-.02l-.02.01h-.03l-.02.01h-.03l-.01.01h-.04l-.02.01h-.01l-.03.01-.07.01-.05.01h-.02l-.01.01h-.03l-.01.01h-.14l-.01.01h-.04l-.02.01h-.02l-.04.01-.01-.03v-.04l-.01-.01v-.02l-.01-.02h-.01v-.03l-.01-.01v-.03l-.01-.01v-.03l-.01-.01.01-.02v-.04l.01-.01v-.06h.01v-.05l.02-.02v-.02l.01-.01v-.02l.01-.02V336.08l.01-.02v-.04l.01-.02v-.05l.01-.02v-.03l.01-.02v-.04l.01-.03v-.05l.01-.02v-.06l-.01-.02-.01-.01v-.01l-.01-.02-.02-.04-.01-.01-.01-.01v-.02l.01-.03v-.02l.01-.02v-.01h.01v-.02l.01-.03v-.02l.01-.01v-.01l.01-.03v-.02l.01-.03v-.01l.01-.01.02-.02h.01l.01.01h.02l.01.01h.02l.01.01h.02l.01.01h.02v.01l.02.01.01.01.01.01.01.01.01.01.01.01h.01l.01.01.01.01h.01l.01.01v.01h.02v.01h.03v.01h.02l.01.01v-.01h.01v.01h.01l.01.01h.02v.01h.02l.02.01.02.01h.02l.01.01h.01l.01.01h.02l.01.01h.04l.01-.01h.01l.02-.01h.02l.01-.01h.01l.02-.01h.01l.01-.01h.05v.01h.01l.01.01v.01h.01l.01.01.01.01.01.01.01.01h.01v.01h.01v.01l.01.01h.01v.01h.01v.01h.01v.01l.01.01h.01v.01h.01l.04-.03.02-.02.01-.01.02-.01.01-.01.02-.01.01-.01.01-.01h.02l.03.01h.03l.03.01.03.01.01.01h.02l.09.03.01.01h.02l.01.01h.05l.05.02.02.01h.01l.02.01h.02l.01.01.02-.01.02-.01.03-.01.02-.01h.01l.02-.01h.01l.02-.01h.01l.01-.01.02-.01h.02l.01-.01.02-.01h.01v-.01h.01l.01-.01.01-.01v-.01Z"/>
  <path class="region1 dot-map" id="svg_ciudad_de_m%C3%A9xico_Azcapotzalco" d="m485.22 334.16.01.01v.01l.01.01v.02l.01.02.01.01v.01l.03.08v.01l.01.02.01.01.01.04.01.02v.01l.02.05.01.02.01.03.01.02v.02l.01.03.01.02.01.02v.01l.01.02.01.04.01.01v.01l.01.01v.01l.01.02v.01l.01.01v.02l.01.01v.01l.01.02v.01l.01.01v.02l.01.01v.02l.01.01.01.01v.03h.01v.02l.01.01v.02h.01v.03l.02.03v.03l-.05.01-.02.01h-.02v.01h-.04v.01h-.01l-.04.01h-.04l-.01-.01h-.06l-.01-.01h-.03l-.01-.01h-.05l-.01.01h-.01v.01h-.01v.01l-.01.01v.01l-.01.01v.01h-.01v.01h-.01l-.01.01-.01.01h-.01v.01l-.01.01v.01h-.01v.03l-.01.02v.01h-.05l-.04-.01-.03-.01-.07-.01-.06-.01h-.04l-.01-.01h-.05l-.01-.01h-.02l-.03-.01h-.05l-.03-.01h-.03l-.02-.01h-.01l-.04-.01-.03-.01v-.04l.01-.03-.03-.01-.02-.01h-.02v-.09l.01-.06h-.01l-.01-.01h-.01l-.03-.01h-.04l-.01-.01h-.02v-.01h-.03l-.01-.01h-.02l-.01-.01h-.02l-.02-.01h-.06l-.03.01-.02.01-.02.01h-.01l-.03.02h-.01l-.02-.01h-.03l-.01-.01h-.03l-.01-.01h-.01l-.02-.01h-.03l-.01-.01h-.03l-.01-.01h-.02l-.02-.01h-.02l-.01-.01h-.02l-.02-.01h-.02l-.02-.01.01-.02v-.02l.01-.02v-.02l.01-.02.01-.02v-.02l.01-.03.01-.02.01-.02v-.01l.01-.02v-.01l.01-.03.01-.01v-.02l.01-.02.01-.02v-.02l.01-.01v-.01l.01-.02.01-.02v-.02l.01-.02v-.01l.01-.02v-.02l.01-.02v-.01l.01-.01v-.02l.01-.01.01-.05.01-.03v-.02h.01v-.03l.01-.03.01-.05v-.03l.01-.01v-.01l.01-.01v-.03l.01-.01v-.01l.01-.01.01-.01v-.01h.01v-.01h.01l.01-.01.03-.01.01-.01h.01l.01-.01h.01v-.01h.01l.01-.01.01.01h.02l.01.01h.03v.01h.02l.02.01h.03v.01h.01l.04.01h.01l.07.02.05.02.01.02h.03l.01.01h.04l.02.01.01.01h.01l.01.01h.01l.01.01h.02l.01.01h.02l.01.01h.02v.01h.01l.11.03h.01l.01-.01.02-.01.01-.01h.01v-.01h.01l.02-.01h.01l.01-.01h.02l.02.01h.01l.01.01h.01l.01.01h.01l.01.01h.01l.04.02.02.01h.02l.01.01h.02l.01.01h.02l.01.01h.02l.01.01h.03v.01h.02l.01.01.05.01Z"/>
  <path class="region1 dot-map" id="svg_ciudad_de_m%C3%A9xico_Miguel_Hidalgo" d="M485.06 335.33v.02l-.01.04V335.45l-.01.03v.04l-.01.02v.04l-.01.01v.03l-.01.01v.02l-.01.01-.01.02-.01.03-.01.03-.01.01-.01.01v.02l-.01.01-.01.02-.01.01-.01.02-.02.04-.02.02-.01.01v.01l-.01.02-.02.02v.02l-.02.03-.02.02-.01.01v.01l-.02.03-.01.02-.01.01-.01.01-.01.02-.01.02h.02l.01.01h.03v.01h-.01v.01l-.02.02v.03h-.01v.01h-.01l-.01.01v.01l-.01.01v.01l-.01.01-.02.03-.01.02v.01l-.02.03v.01l-.02.02v.01h-.01v.01l-.02.03v.01h-.01l-.01.01v.01l-.01.02-.02.04h.01l.02.01h.02l.04.02h.02l.03.01.02.01h.01l.01.01.02.01h.03l.01.01h.02l.01.01.03.01h.02l.01.01.01.01v.03l.01.03v.02l-.05.01-.02.01-.02.01h-.01l-.03.01-.01.01h-.02l-.02.01H484.65l-.03.01h-.03v.01l-.03.01h-.03l-.01.01h-.02l-.01.01-.03-.01h-.01l-.02.01h-.01v-.02l-.01-.02-.01-.01v-.01l-.01-.01v-.01l-.01-.01v-.02l-.01-.01h-.01v-.01h-.01v-.01h-.01v-.07h-.02l-.02.01h-.07l-.02.01h-.03l-.01.01h-.01l-.01.01h-.02l-.01.01h-.01l-.01.01h-.08l-.03.01h-.04l-.02.01h-.05l-.01.01h-.01l-.02.01h-.01l-.01.01-.02.01h-.02l-.01.01-.03.01h-.02l-.01.01h-.02l-.01.01-.03.01-.06.02h-.01l-.03.01h-.02l-.02.01-.01-.01h-.05l-.02.01h-.04l-.01.01H483.32v.01l-.07.02-.01.01h-.05l-.02.02h-.01V337l-.01.02-.01.01v.01h-.01l-.01.01h-.01l-.01.01-.02.01-.01.01h-.01v.01l-.01-.01h-.01l-.02-.01h-.03v.01h-.01l-.01.01-.03.02v-.02l-.01-.01v-.01l-.01-.03v-.05h.01v-.02l.01-.01.02-.01v-.02l.01-.01v-.01h-.01v-.01h-.03v.01h-.01l-.01.01h-.03v-.01h-.01l-.01.01h-.05v-.01h-.01v-.01l-.01-.01-.01-.01h-.02v.01l.01.01v.01h-.01v.01h-.03l-.01.01v.01h-.05v.01h-.01l-.01-.01v-.01l-.01-.02v-.01l.01-.01h.01l.01-.01h.01l.01-.01.03-.03h.01l.01-.02.01-.02V336.69l-.01-.01v-.02l.01-.01.01-.01.01-.01h.03l.01-.02.02-.01h.01l.02-.01h.01v-.01h.01v-.01h.02l.01-.01v-.01h.01v-.01h.01l.01-.01h.03l.01-.01.03-.01.02-.01h.01v-.01h.01l.01-.01h.01l.01-.01h.01l.01-.01.02-.01h.08v-.01h.01v-.01h.01v-.02l.01-.01.01-.01.01-.01v-.01l.01-.01.01-.01.01-.01v-.01h.01l.01.01v-.03h.01v-.04h.02v-.01l.01-.01h.01v-.02h.01v-.01l.01-.01h.02v-.01h.01v-.01h.01v-.01h.01v-.01h.01v-.01h.01v-.01h.01v-.01h.02v-.01l.01-.01.01-.02v-.01h.01l.01-.01h.01l.01-.01.02.01.01.01h.01l.01-.01v-.01l-.01-.01v-.03h-.01v-.02h-.01l-.02-.01-.01-.01h-.01l-.03-.02h-.01v-.03l.01-.01.01-.02v-.01h-.01v-.01l-.02-.01-.01-.01.01-.02-.02-.01-.01.01-.01-.02h.01-.01l-.02-.02.01-.01h.01l.01-.01h.01v-.01l.11-.07.04-.03.03-.02.01-.01h.04l.02-.01h-.01l-.02-.01v-.01h-.01v-.01h-.01v-.19h.04l.01-.01.02-.01.01-.01.01-.01v-.01l.01-.01.01-.01.01-.01v-.01l.01-.02.02-.03v-.05l.04-.05h-.01l-.02-.01.03-.09.01-.02h.01v-.02h.01l.01-.01.01-.01.01-.01.03-.02h.02v.01h.02l.01-.04h.01l.03-.02h.01l.02-.01.02-.01.03-.01H484.15l.02.01h.02l.01.01h.02l.01.01h.03v.01h.02l.01.01h.04l.03.01h.01l.01.01h.01l-.01.06v.09h.02l.02.01.03.01-.01.03v.04l.03.01.04.01h.01l.02.01h.03l.03.01h.05l.03.01h.02l.01.01h.05l.01.01h.04l.06.01.07.01.03.01.04.01h.05Z"/>
  <path class="region1 dot-map" id="svg_ciudad_de_m%C3%A9xico_Gustavo_A._Madero" d="m486.21 331.95-.01.16.04.07.06.04.04.16v.01l.01.05.02.06.09.1-.08.08-.09.1-.02.03v.06l-.07.05-.05.06-.01.02-.01.01-.01.01v.02l-.01.01v.02l-.01.01-.01.01-.01.01-.01.01-.01.01-.02.02-.01.02v.01h-.01v.01h-.01l-.01.01-.03.03-.01.02-.05.06-.01.01v.01l.08.03v.08l-.02.13v.06h.01v.01h.01v.01l.01.02.01.01.01.02v.01h.01l.01.01v.01l.01.01.01.01h.01v.01l.08.07v.01l.09.06.01.01.02.01.04.05.1-.01.01.01v.01h.02l.01-.01v-.01.01h.01v.01h.02v-.01h.01v.03l.01-.01.01-.01.01.01.01.01.01-.02h.01l.02-.01.01-.01h.03v-.01h.05l.02-.01h.02l.01-.01h.04l.03.01.01.01h.01l.01.01.04.01v.01l.03.01.03.01.01.01h.02l.01.01h.01l.01.01h.02v.01h.03l.02.01v.01h.02l.02.01h.01l.01.01h.01l.01.01h.01l.01.01h.01l.02.01h.01v.01h.02l.01.01.02.01h.01l.01.01h.02l.01.01h.01l.01.01h.02l.01.01h.02v.01h.02l.03.01.01.01.02.01h.02l.01.01h.02l.02.01.01.01h.02l.02.01.02.01.02.01-.01.01v.01l-.01.02-.01.01v.02h-.01v.02h-.01l-.01.02v.03l-.01.02-.01.01v.02h-.01v.02l-.02.03h.01v.02l.01.01v.02h.01v.02l.01.01v.01l.01.01v.02l.01.01.01.02v.01l.01.02.01.01h.02l.01.01-.01.03h.02l-.01.03.01.02.01.02v.01l.02.04.01.02.01.04.01.02.03.06v.01l.01.01.01.02.02.05v.01l.01.01.01.02.01.03.01.02v.01l.01.01.01.04.01.01v.01l.01.01v.02h.01v.01l.01.01v.02h.01v.02l.01.01v.02h.01v.02l.01.01v.01l.01.01v.01l.02.04v.02l-.01.01-.01.01h-.01v.01h-.01l-.02.01-.01.01h-.02l-.02.01-.01.01h-.01l-.02.01h-.01l-.02.01h-.01l-.02.01-.03.01-.02.01-.02.01-.01-.01h-.02l-.02-.01h-.01l-.02-.01-.05-.02h-.05l-.01-.01h-.02l-.01-.01-.09-.03h-.02l-.01-.01-.03-.01-.03-.01h-.03l-.03-.01h-.02l-.01.01-.01.01-.02.01-.01.01-.02.01-.01.01-.02.02-.04.03h-.01v-.01h-.01l-.01-.01v-.01h-.01v-.01h-.01v-.01h-.01l-.01-.01v-.01h-.01v-.01h-.01l-.01-.01-.01-.01-.01-.01-.01-.01h-.01v-.01l-.01-.01h-.01v-.01h-.05l-.01.01h-.01l-.02.01h-.01l-.01.01h-.02l-.02.01h-.01l-.01.01h-.04l-.01-.01h-.02l-.01-.01h-.01l-.01-.01h-.02l-.02-.01-.02-.01h-.02v-.01h-.02l-.01-.01h-.01v-.01h-.01v.01l-.01-.01h-.02v-.01h-.03v-.01h-.02v-.01l-.01-.01h-.01l-.01-.01-.01-.01h-.01l-.01-.01-.01-.01-.01-.01-.01-.01-.01-.01-.02-.01v-.01h-.02l-.01-.01h-.02l-.01-.01h-.02l-.01-.01h-.02l-.01-.01h-.02l-.01-.01h-.02l-.01-.01h-.01l-.03-.01-.02-.01h-.02l-.01-.01h-.01l-.01-.01h-.01l-.01-.01h-.01l-.02-.02h-.01l-.02-.01-.02-.02h-.01l-.01-.01h-.08l-.03-.01h-.09v-.01h-.03l-.02.02v-.03l-.02-.03v-.03h-.01v-.02l-.01-.01v-.02h-.01v-.03l-.01-.01-.01-.01v-.02l-.01-.01v-.02l-.01-.01v-.01l-.01-.02v-.01l-.01-.01v-.02l-.01-.01v-.01l-.01-.02v-.01l-.01-.01v-.01l-.01-.01-.01-.04-.01-.02v-.01l-.01-.02-.01-.02-.01-.03v-.02l-.01-.02-.01-.03-.01-.02-.02-.05v-.01l-.01-.02-.01-.04-.01-.01-.01-.02v-.01l-.03-.08v-.01l-.01-.01-.01-.02v-.02l-.01-.01v-.01l-.01-.01-.01-.03v-.01l-.02-.03v-.01l-.01-.03v-.01l-.01-.03-.01-.01-.01-.04-.01-.03-.01-.01v-.01l-.01-.02-.01-.03-.01-.03-.01-.02-.01-.02v-.01l-.02-.01h-.01l-.02-.01-.03-.02-.01-.01-.01-.01h-.01l-.01-.01-.01-.01h-.01l-.02-.01h-.01l-.01-.01-.01-.01h-.02l-.01-.01h-.02l-.01-.01h-.02l-.01-.01h-.01l-.01-.01.01-.01h.01v-.01h.01v-.01l.01-.01.02-.02h.01v-.01l.02-.01-.01-.01h-.01l-.01-.01-.01-.01-.01-.01h-.01l-.01-.01-.01-.01-.02-.01h-.01v.01l-.01.02h-.01v-.01h-.02l.02-.04v-.01l.01-.02h.04l.01.01.03.01.01.01h.02l.03.01.01.01h.02l.01.01h.02l.01.01h.02l.02.01h.02l.02.01h.01l.03.01h.01l.01.01h.03l.01.01h.02l.01.01.01-.01.04-.02h.01v-.01l-.03-.01h-.01v-.01h.01l.02-.03v-.01l.01-.01.01-.01.01-.01.01-.01-.03-.02-.02-.01-.02-.01.01-.04h.01l.01-.02.01-.01.01-.01.01-.02.02-.02.02-.02.01-.02h.01l.01-.02v-.01l.01-.01.01-.01v-.01l.01-.01v-.01h.01v-.01l.01-.01v-.01l.01-.01h-.01l-.04-.02-.03-.01-.01-.01-.02-.01h-.01l-.02-.01-.01-.01h-.02l-.01-.01h-.01V333h-.02v-.01h-.01l-.01.01-.02-.01.04-.06.03-.05.01-.03v-.03l-.01-.01v-.02l.05-.07.05-.03.02-.01.01-.01.03.02.02.02.05-.04v-.01l.06-.06.02-.03v-.07l.03-.05.03-.04.08-.06.02-.02.01-.07.03-.07.08-.07.02-.03v-.03l.08-.02.06-.02.04-.02.08-.1h.04l.03.01h.03v.01h.01l.01.01.01.01.01.01Z"/>
  <path class="region1 dot-map" id="svg_ciudad_de_m%C3%A9xico_Cuajimalpa_de_Morelos" d="M482.74 336.67v.01l.01.01V336.8l-.01.02-.01.02h-.01l-.03.03-.01.01h-.01l-.01.01h-.01l-.01.01v.01l.01.02v.01l.01.01h.01v-.01h.05v-.01l.01-.01h.03v-.01h.01v-.01l-.01-.01v-.01h.02l.01.01.01.01v.01h.01v.01h.05l.01-.01h.01v.01h.03l.01-.01h.01v-.01h.03v.01h.01v.01l-.01.01v.02l-.02.01-.01.01v.02h-.01v.05l.01.03v.01l.01.01v.02l-.02.02-.03.02-.01.01-.01.01h-.01l-.01.01-.03.02-.04.03h-.01l-.01.01-.02.01-.01.01-.02.01h-.01l-.01.02h-.01l-.02.02v.01l-.02.01-.02.02-.01.01h-.01l-.01.01h-.01l-.02.01-.01.01h-.05l-.01.01h-.03v.01l-.01.01-.01.01h-.01l-.01-.01h-.03v.01h-.01v.03l.01.02.02-.01h.01v.04l-.01.01v.01l-.01.01h.04v-.01h.01v-.01l.01-.01v-.01h.01v-.02h.01v-.01l.01-.01h.01v.01l-.01.02v.02l-.01.01-.01.02v.01l-.01.01v.05l.01.01v.04l-.01.01.02.01.01.01h.02l.01.01h.02l.01.01h.02l.01.01h.01v.01h.01v.01l.01.01v.02l.01.04v.03l.01.01v.03l.01.03.01.03v.08h.01l.01-.01.01.01-.01.01-.01.01h-.01l-.01.01v.01h-.02l-.01.01h-.01.02v-.01h.01l.01.01.01-.01h.01v.01h-.03v.01h-.02v.01h-.03v.01h-.02v-.01.01h-.01v.01h-.01v.01h-.01v.01l-.01.01v-.01h-.01v.02h-.02v.01l-.01.01-.01-.01-.01.01-.01.01v.01l-.01.01-.01.01v.01h-.05v.01h-.01l-.01.01-.02.01h-.02v.01h-.02v.01h-.02l-.01.01-.02.01h-.01l-.01.01h-.02l-.01.01-.02.01-.01.01h-.05l-.01.01-.01-.01v.02h.01l.01.01h.01v.02l-.01.01h-.01l-.03-.01h-.01v-.01l-.02-.01h-.01l-.01-.01h-.02v.01H482v.01l-.02.04-.01.02-.01.01v.02h-.01l-.01.02v.03h.01l.01.01v.01h-.01v-.01h-.01l-.01-.01h-.01v-.04l.01-.01v-.01l.01-.01h-.01v-.01h-.01v.01h-.01l-.01.01-.01.02-.01.01-.01.02v.01l-.01.01-.01.01v.01h-.01v.03h.01l.01.02v.02h-.01l-.01.02v.01l-.01.01v.03h.01v.03h.02v.01h.01v.01h-.01v.01h-.03v.01h-.02l-.01.01h-.01v.02h-.01v.04l-.01.01v.01h-.01v.01h-.01v-.01h-.01v-.01l-.01.01h-.02v-.03l-.01-.01h-.02v-.01h-.02v-.02l-.01-.01v-.02h-.01l-.01-.01v-.01h-.01v-.01h-.01V338.77h-.01v.03h-.01v.01h-.01v.01l.01.01v.01l.01.01.01.02v.03l.01.01v.04l-.01.01-.01.01-.01.01V339.04h-.01l-.01-.01-.01-.02-.01-.01h-.01l-.01.01-.01.01v.02h-.02v.01l-.01.02-.01.01v.01h-.01v.01l-.01-.01-.01-.01h-.01v.02l-.01.01v.02l-.01.01h-.01v.01h-.02v-.04l-.01-.01-.01-.01h-.01v.01h-.01v.01-.01h-.02v.01l-.01.01v.02h-.01l.01.01v.02h-.03v.01l-.01.01-.01.01v.04h-.03l-.01.01v.01l-.01.01h-.01v.01l.01.01v.02l-.01.01v.02l-.01.01v.02l-.01.01v.02l.01.01-.01.01v.04l.01.01v.02l.01.02.01.01.01.01-.01.03v.03l-.01.01-.01.03.01.04.02.02v.04l-.01.03-.01.03-.01.01v.04l-.01.01v.06l-.01.01-.03.03-.12.21V340.52l-.02.31V340.98h-.06l-.09-.13-.01-.01-.13-.03-.16-.05v-.16l.02-.12.04-.19.06-.11-.04-.09h-.05l-.01-.01h-.02l-.01-.01h-.01l-.01-.01h-.01l-.01-.01h-.01l-.01-.02-.01-.01-.01-.01-.01-.01v-.02h-.01l-.02-.02-.02-.03-.2-.02-.15-.02-.07-.05.28-.36-.02-.03.02-.01h.02l.01-.01.01-.01h.02v-.02h-.01l-.03-.02-.01-.04.08.02-.15-.13-.01-.04v-.08l.57-.6.01-.02.02-.03.01-.03.01-.03v-.02l.01-.03v-.04l.01-.01v-.03h.01l.01-.03.01-.01.01-.02.01-.02v-.01l.01-.01v-.01l.01-.01v-.01l-.01-.01v-.01l.01-.02-.01-.02v-.03l.01-.01v-.02h-.01V337.95l.01-.01.01-.01.01-.01v-.01l.02.01h.01l.01-.02.01-.01v-.01h.01v-.02l.01-.01.02-.02v-.01l.02-.01.01-.01h.03l.02.01.01.01h.04l.01-.01h.01l-.01-.01-.06-.05.03-.08h.02l.02-.01v-.02l.01-.02.02-.02.04.02.02-.04.01-.03.01-.02.01-.03H481.35l.03-.02.01-.01h.04l.04-.05.02-.07.01-.01.02-.01.02-.02.03.02h.02l-.01.02v.04l.01.02v.05h.01v.05l-.01.01.02.02.02.02.02.01.01-.02v-.01h.01v-.01h.07l.01-.01h.01v-.01h.02v-.02l.01-.01v-.02h.01v-.01l.01-.01h.01v-.01h.01v-.01h.02v-.01l.01-.01v-.02l.01.01h.01l.01-.01h.02l.01-.01h.01v-.03l.02.01h.03v-.02l.01-.01.01-.01v-.03h.01v-.01h.01v-.01l.01.01v-.01l.01-.01.01-.01.01-.02h.02l.03-.01h.01v-.01h.01l.01-.01.01-.01.01-.01h.01l.06-.05v.01l.01-.01.04-.03.01-.01.01-.01v-.02l.01-.01v-.02h.01l.01-.01h.03l.01-.01h.02v-.03h.02l.01-.01v-.01h.03v.01l.03-.02v-.01h.02v-.02h.02v-.01l.07-.04v-.03h.01v-.07h.01l.01-.01.02-.01.01-.01.01-.01-.01-.01.01-.02v-.03l.01-.01.01-.01.01-.01v.02l-.01.01v.04l.01.01v.01h.01v.01l.01.01h.01v-.02l.01-.02v-.03h.01Z"/>
  <path class="region1 dot-map" id="svg_ciudad_de_m%C3%A9xico_Benito_Juárez" d="M485.74 336.68v.05l-.01.03v.02h.16v.03l-.01.03v.01l-.01.01v.04l-.01.01v.03l-.01.03v.01l-.01.02v.03l-.01.01v.03l-.01.02v.03l-.01.02v.03l-.01.01v.03l-.01.02v.01l-.01.03v.04l-.01.01v.04h-.01v.03l-.01.02v.03l-.01.03-.01.02v.03l-.01.03v.01l-.01.02v.04l-.01.02v.02l-.01.01v.05l-.01.02v.01l-.01.03v.03l-.01.02v.01H485.6l-.02-.01H485.39v-.01h-.18l-.01-.01H485.05l-.02-.01h-.13l-.01-.01h-.01l-.02-.02-.03-.01-.01-.01-.01-.01-.01-.01-.01-.02h-.01l-.01-.01-.01-.02h-.01l-.02-.02-.01-.01-.01-.02-.01.01-.01.01-.01.01-.01.01-.01.01-.01.01h-.04l-.01.01h-.02l-.01.01-.01.01h-.05l-.03-.01h-.01l-.02-.02h-.03l-.03-.01h-.02v-.04l.01-.02v-.04h-.01v-.02l-.01-.01v-.01l-.01-.01v-.04l.01-.02v-.01h-.01v-.02l-.01-.01v-.01l.01-.02v-.05l.01-.03v-.01l-.01-.02v-.11l.01-.01v-.01h.01v-.02l.01-.01.01-.02v-.02l.01-.02v-.02l.01-.01v-.03l.01-.03.01-.02v-.01l.01-.02v-.03h-.01v-.01l-.01-.02h.01l.02-.01h.01l.03.01.01-.01h.02l.01-.01h.03l.03-.01v-.01h.03l.03-.01h.06l.02-.01h.02l.01-.01.03-.01h.01l.02-.01.02-.01.05-.01h.01l.03-.01h.02l.01-.01h.01l.02-.01h.02v-.01h.02l.01-.01h.02l.01-.01h.02l.01-.01h.02l.01-.01h.02l.01-.01h.03l.01-.01h.02l.01-.01h.26l.02.01H485.66l.02.01h.05v.01h.01Z"/>
</svg>
