<svg id="svg_colima" viewBox="91.9 333.92 284.19 29.59" xmlns="http://www.w3.org/2000/svg" height="120vmin" width="120vmin" class="outline-hidden svg-state">
  <path class="region1 dot-map" id="svg_colima_Coquimatlán" d="m362.4 339.47.02.01.08.03.08.08.27-.01.04-.05.12-.02.08.03.29.07.06.12h.04l.1-.02.37-.11.11-.04.16-.05.01.03.11.07.08.04.02.01.05.03.06.04.07.05.05.01.01.01.04.03.04.02.02.01.01.01.07.09-.06.13.06.04.02.01.1-.01.21-.05.12.02.01.05.02.07.17.07h.01v.01l.23.12.1-.02.06.01.03-.01.03.02.02.01H366.11l.02-.01.02.01.02-.01h.03l.03.02.01.03h.17l.16.01h.09l.23.02h.03l.11.01h.01l.07.01h.03l.01-.01-.01.03-.01.05-.01.03-.01.01-.05.09-.01.01-.01.03-.01.01-.01.08.03.04.04.05v.1l.03.08h.01l.02.09.02.01v.03l.09.04-.01-.05-.02-.02v-.01l-.01-.01v-.01l-.01-.02-.04-.02-.02-.02-.02-.02-.01-.02-.01-.04.04-.08v-.04l-.02-.03v-.03l-.01-.01-.03-.07.04-.03.03-.07v-.04l.02-.05.02-.03.01-.03.04-.08v-.05l.02-.02v-.01l.01-.04.02-.03h.01v.04h.04v.01h.04l.01.01.01.01.02.01v.01h.01l.03.01h.02l.02.01h.01l.03.01h.06l.01-.01h.02l.03.01h.08l.09.01.03.01.01.01h.01l.01-.01v-.01h.01l.01-.01v-.01l.01-.03v-.02l.02-.02v-.01l.01-.02.01-.01v-.01l.01-.01.02-.02h.01v-.01l.01-.01h.02l.01-.02h.01l.02-.02.01-.01.04-.03.02.01v-.01l.06.08.12.09h.01v.01l-.01.02v.01l.01.02.01.01h.01l.01.01h.02v.01h.01l.02.02.01.01v.01h.01l.02.01.01.01h.01l.14-.02h.03l-.01.05h-.02l-.05.03-.06.02-.07.02h-.01l-.01.01-.01.01v.01h-.01l.15.08.09.05h.02v-.01l.01-.01.01-.02.01-.01v-.01l.01-.01v-.03l.01-.01v-.01l.01.01h.02l.02.02.01.01v.01l.01.02v.02l.01.02.01.02.01.02.01.01.02.02.01.01v.01h.02l.01.01h.01v.01h-.01l-.03.01-.02.01h-.03v.01l-.03.01h-.02l-.06.02-.01.01h-.01l-.02.01-.06.02h.01l.02.01.01.01h.01l.04.02h.02v.01h.01v.01l.01.01v.01h.01l.02.01h.03l.05.01-.01.02h-.01l-.01.02-.02.04v.01h.01l.01.12v.01h.02v.01h.02l-.01.04-.01.04-.01.01-.01.01-.01.01-.01.02h-.01v.01l-.02.01.02.01h-.01l-.01-.01v.01h-.01v-.01l-.05-.01-.01.01h-.01v.03l-.01.02.01.01v.02l-.01.02-.02.02-.01.01h-.01v.03l-.01.01-.01.01v.01h.01v.01l.01.01.01.01h.02v-.01l.01-.01.01-.01.01.01h.01v.01l.01.01h.01v.01l-.01.01v.01l-.01.02v.02l-.01.22-.05.11-.01.17-.01.18.05.18V342.8l-.12-.06-.03-.02-.04-.02-.04.07-.06.12-.01.02-.01.02-.01.03-.08.13-.01-.01-.02-.01v-.01h-.02l-.03-.04-.11.08-.03.03-.03.02-.03.01-.43.22-.02.03.22.36.16.12.33.27.17.2.12.14.09.1-.01.07-.03.13-.01.07-.01.08h-.02l-.06.01-.06.01.04.15.04.06.04.04h.01l.07.03-.01.05-.01.04h-.14l-1.29.27-.15.04H366.84l-.04.04h-.06l.02-.65.01-.19v-.04l-.13-.16.13.04.09.03.04-.1.01-.06.01-.06.03-.26v-.05l.01-.07-.11.03h-.01l-.01.01-.04.01-.03-.01-.04.03-.25.1-.03-.02v-.03l-.07-.02-.12-.18-.14-.02-.01-.01h-.03l.01-.02.01-.01.02-.01v-.05l-.01-.02-.01-.02-.01-.03-.01-.02-.01-.03v-.02l-.01.02-.01.02-.01.02v.03l-.01.01-.01.01-.01.01-.01.02-.01-.01h-.03v.03l.01.02v.02l.01.01-.01.01-.06.04-.02.01-.02.01-.02.03v.02l-.01.01v.02l-.01.01h-.01l-.02.02h-.01l-.01.02-.01.03h-.01l-.01.01v.01l-.01.01v.01l-.01.01v.08l.01.01.03.02h-.07l-.18-.08-.14-.09-.01-.01-.11-.09-.07-.05v.01l-.01.01h-.01l-.02-.03-.02-.01-.01-.02h-.02l-.01-.01-.03-.04-.04-.03-.13-.04h-.02l-.01.01h-.03l-.02-.01-.02-.01-.01-.01-.02-.02-.02-.02h-.03l-.03.01-.04.01h-.06l-.03-.01-.03.01h-.1l-.03.01-.02.01-.01.01-.02.01h-.06l-.03-.01h-.02l-.02-.01h-.04l-.01.01h-.01l-.01-.01v-.01l-.01-.01v-.02l-.02-.02v-.01l-.02-.02v-.02l-.01-.02-.02.01-.02-.01h-.02l-.02.01h-.02l-.03-.01-.03-.02-.02-.02-.02-.01v-.02l-.02-.01-.02-.03-.03.02-.15-.09-.02-.03h-.02l-.02-.02-.02-.03-.06.01-.03-.01h-.07l-.03.02v.01l-.04.01-.03-.01-.05-.01h-.02l-.03.01-.03-.01-.01-.01-.01.01h-.01l-.03.02-.02-.02-.02-.02h-.03l-.05-.01-.01-.01v-.03l.02-.05h-.04l-.05-.01h-.04l-.02.01h-.01l-.03-.01-.02-.02-.08-.04-.05-.04h-.11l-.04-.01-.01-.02-.01-.03v-.02l-.07.02-.13-.1-.02-.05-.04-.02-.01-.03-.02-.01-.03.02-.01.01h-.05l-.03-.02-.02-.03-.04-.01-.01-.01-.01-.01-.01.03v.03h-.08l-.03-.03.01-.02-.01-.01v-.01h-.01v.01h-.02l-.01-.01h-.01l-.01.01.01.01-.01.01v.02l-.03-.01-.04.01-.15.02-.07-.02v-.06l.14-.12.15-.05.09-.07v-.03l-.19-.18.03-.02-.05-.06-.13.06-.09-.08-.18-.15-.02-.02-.13-.11-.04-.04-.08-.07-.01-.01-.02-.02-.02-.01-.08-.08-.03-.02-.03-.03.06-.02.02-.06-.03-.05h-.03l-.01-.02v-.02l-.01-.01-.02.01-.05-.03h-.01l-.03-.02-.04-.01-.04.01-.02-.01-.05-.05-.07-.04v-.1l.2-.02.04-.05.13-.01.02-.02.3-.07.06-.06.27-.29-.13-.23v-.02l.28-.08.11-.04.01-.01.1.06.1-.04.01-.04.01-.05.05-.1.02-.01h.01v-.01l.03-.03v-.01l.02-.05.06-.03.06-.06.03-.07.02-.04v-.17l-.07.04-.15.04-.07-.01-.17-.02-.04.01v-.06l-.04-.01-.04-.08-.01-.05-.01-.06-.14.09h-.02l-.01.01h-.02v.01h-.03l-.02-.01h-.01l-.01-.01-.05-.11-.02-.01v-.01l.07-.03.01-.03.09-.05h.07v-.01h.02l.01-.01h.01v-.02h-.01l-.02-.03v-.02h-.01v-.01h-.01v-.01l-.01-.01h-.02l-.01-.01h-.01l-.01-.01v-.01l.02-.02v-.03l-.01-.02v-.01l-.02-.02-.01-.01v-.02h.02l.01-.01.04-.01.03-.01.01-.02.01-.02.01-.01.01-.01h.03l.01.01h.01v.01h.03l.01-.01.01-.01h.01l.01-.01h.01l.01-.01.09.09.04.01v.03h.01v.01l.01-.01h.04v.01h.03l.02.02v.02l.01.01.01.01v.02l-.01.01-.01.01v.01l-.01.01v.01h.03l.05.02v.04h.03l.01-.01h.05l.01.01.01.01v.01l.01.01v-.01h.03l.03-.01.01-.01h.03l.02.01.01.01h.01Z"/>
  <path class="region1 dot-map" id="svg_colima_Villa_de_Álvarez" d="m371.37 335.96.03.02.08.01.04.01h.05l.07.02h.18l.09.03.06-.01h.05v.03l-.02.01.01.03-.01.04-.02.02v.06l-.01.02v.05l-.01.01-.01.06.01.02v.02h.03l.01.01.02.05.01.03.01.03-.04.02.01.01v.02l-.01.04-.06.03-.05.03h-.01l-.01.05.02.04v.01l.02.03.02.03v.02h.01l-.01.01v.01h-.01v.04h-.02v.02l-.01.01h-.02v.03l-.01.01v.02h-.02l.01.01v.05l-.01.01v.02l-.01-.01-.01-.01v-.01l-.01-.01-.01-.01h-.01v-.03h-.01l-.01-.01V337l.01-.01h-.01v-.01h-.01l-.01-.01v-.01h-.01l-.01-.01v-.01h-.01v.01h-.01l-.01-.01h-.01v-.01h-.01v-.01l-.06.05-.05.01-.05-.05-.06-.06v.04l-.01.02v-.01.01l-.03.03-.02.02-.01.01h-.01v.01h-.01v.01l.01.01v.04l-.01.01-.01.01v.01l-.01.02-.01.01v.01l-.01.01-.01.01v.02l-.01.01-.01.01v.02l-.01.01-.01.01-.01.01-.01.01-.01.01v.01l-.01.01-.01.01-.01.01v.05h.01l.01.02.1.03-.04.07v.05l.04.05h.03l.03.09-.02.04-.02.02-.01.01v.02l.01.02.03.03.02.02.02.03-.01.01-.01.02-.03.03v.01l-.01.01-.01.02-.01.03-.01.01-.01.01-.01.01v.01l.01.01v.01h-.01v.01l-.01.01v.01l-.01.01-.01.02v.01l-.03.02v.03l-.01.02.01.02-.08-.04-.07-.03-.03-.02-.03-.03h-.03v.06l-.03.05-.03.08-.02.05.08.04h.01l.06.02H371.24l-.01-.01.01-.02.01-.03.01-.01.01-.01h.02v.01h.08l-.01.01v.03l-.01.03-.01.02v.01l-.01.04.01.01-.02.02.01.02-.05.03-.02.06-.03.04-.01.01-.01.01-.01.01v.01h-.01l.01.01-.01.01-.01.01-.02.01-.01.01h-.04v.02l-.02.1-.03.07-.03.01-.04.01-.13.11-.08.09-.03.04-.03.03v.01l-.05.08-.1.08-.09.04-.02.06-.01.02-.01.04-.01.03-.01.02-.02.03v.01h.01v.02l-.06.09v.01h-.01l.01.01-.01.01-.01.02v.01h-.02l-.02-.02h-.01l-.02-.01-.01.01v.01l-.01.01-.01.02v.01l-.01.01-.01.01.05.03.03.02h.02v.01l-.01.01.01.01v.02h-.01v-.01h-.02l-.02.01-.01.01-.01.01-.01.01-.01.01-.01.02v.01l-.01.01-.01.01v.03l-.01.01h-.01v.02l-.01.02.01.03v.02l-.01.02v.02l-.01.01-.01.03-.01.03-.01.02-.01.02v.01h-.03l-.02-.01h-.01l-.01-.01-.03-.01H370l-.01-.01h-.02l-.03-.01v.09l-.03.01h-.02v.02l-.01.01v.02l-.03-.01-.04-.01-.02-.01h-.01v-.01h-.02v.01l-.01.01v.02l-.01.01v.02l-.01.01h-.01v.02l-.01.01v.03h-.01v.04h-.01v.02h-.01v.01h-.01l-.01.01v.01h-.01l-.01.01v.01l-.01.01v.01h-.01v.01h.01v.01l-.01.01h-.13l-.02.01h-.02l-.01.01h-.01l-.03.02h-.02v.01h-.01l-.01.01h-.12v-.01h-.02l-.02.01h-.01l-.01.01h-.01l-.04.02h-.01v.01l-.05.02h-.02l-.01.01h-.02l-.01.01-.01.01h-.05l-.01.01H368.88l-.01-.01h-.02v-.01l-.01-.01-.02-.02-.01-.01-.01-.02-.01-.02-.01-.02v-.02l-.01-.02v-.01l-.01-.01-.02-.02h-.02l-.01-.01v.01l-.01.01v.03l-.01.01v.01l-.01.01-.01.02-.01.01v.01h-.02l-.09-.05-.15-.08h.01v-.01l.01-.01.01-.01h.01l.07-.02.06-.02.05-.03h.02l.01-.05h-.03l-.14.02h-.01l-.01-.01-.02-.01h-.01v-.01l-.01-.01-.02-.02h-.01v-.01h-.02l-.01-.01h-.01l-.01-.01-.01-.02v-.01l.01-.02v-.01h-.01l-.12-.09-.06-.08v.01l-.02-.01-.04.03-.01.01-.02.02h-.01l-.01.02h-.02l-.01.01v.01H368l-.02.02-.01.01v.01l-.01.01-.01.02v.01l-.02.02v.02l-.01.03v.01l-.01.01h-.01v.01l-.01.01h-.01l-.01-.01-.03-.01-.09-.01h-.08l-.03-.01h-.02l-.01.01H367.55l-.03-.01h-.01l-.02-.01h-.02l-.03-.01h-.01v-.01l-.02-.01-.01-.01-.01-.01h-.04v-.01h-.04v-.04h-.01l-.02.03-.01.04v.01l-.02.02v.05l-.04.08-.01.03-.02.03-.02.05v.04l-.03.07-.04.03.03.07.01.01v.03l.02.03v.04l-.04.08.01.04.01.02.02.02.02.02.04.02.01.02v.01l.01.01v.01l.02.02.01.05-.09-.04v-.03l-.02-.01-.02-.09h-.01l-.03-.08v-.1l-.04-.05-.03-.04.01-.08.01-.01.01-.03.01-.01.05-.09.01-.01.01-.03.01-.05.01-.03-.01.01h-.03l-.07-.01h-.01l-.11-.01h-.03l-.23-.02h-.09l-.16-.01h-.17l-.01-.03-.03-.02h-.03l-.02.01-.02-.01-.02.01h-.12l-.02-.01-.03-.02-.03.01-.06-.01-.1.02-.23-.12v-.01h-.01l-.17-.07-.02-.07-.01-.05-.12-.02-.21.05-.1.01-.02-.01-.06-.04.06-.13-.07-.09-.01-.01-.02-.01-.04-.02-.04-.03-.01-.01-.05-.01-.07-.05-.06-.04-.05-.03-.02-.01-.08-.04-.11-.07-.01-.03-.16.05-.11.04-.37.11-.1.02h-.04l-.06-.12-.29-.07-.08-.03-.12.02-.04.05-.27.01-.08-.08-.08-.03-.02-.01.07-.08.03-.01.01-.01v-.05l.02-.01v-.1l.02-.01.01-.02.01-.02.01-.01.01-.02v-.02l.01-.02v-.04h-.01l-.02-.01-.01-.01v-.01l-.03-.03-.01-.01v-.01l-.02-.01v-.03h-.01l-.01-.01.02-.02.01-.02.01-.01h.01v-.01h.01l.01-.01.01-.01-.01-.03.05-.01.08-.03.08-.13.07-.03.04-.02.06-.02.01-.01.05-.11h.01l.01-.03.01-.02.03-.05.03-.01.09-.04.04-.03v-.1l-.04-.06v-.03l.01-.06v-.01l-.02-.03h.01l.1.02.1.03.18.02.03-.31.05-.03h-.01v-.01l-.01-.02h.07l.04.02v-.03l.02-.01.02.01.01-.02h.02l.03-.01.07.04.02.01-.01.01.03.01.07.02.09-.02h.03l.03.04.09.15.07.02.06.02.03-.01.17.07.09.04.03.04.04.04h.03l-.01-.07.55-.35.05-.04v-.01l.03.02-.12.13.15.42.02.01.02.02.01.01h.02l.01.01.02.01v-.02l.01-.02h.01l.01-.01.03.01.02-.02h.03l.04-.01.03-.02h.01l.01-.01h.01v-.01h.02l.01.01h.01l.01.01h.05v-.02l-.01-.01h.03-.01v-.01l.03-.04h.01l.01-.01h.03v.01h.02l.17-.1.07.07.01.1.03.09h.01v.02h.01l.41-.2.04-.02.07-.04.03-.02.04-.02.54.3-.01.15-.05.01-.01.01-.01.02-.13.02.14.36.07.18.01.02.02-.03h.01l.01-.01h-.01l.01-.02.03-.05.01-.01v-.01l.01-.01.01-.01.01-.01-.1-.21-.01-.03.11.05.12.07.05.02h.02v.01h.02v-.03l.01-.02.01-.01.01-.01.01-.02.01-.03.01-.01.01-.03v-.01l.01-.01.01-.02h.01v-.01l.01.02v-.01l.02-.01.02-.03.01-.03h.01l.02.01h.04v.01l.01.01v.09h-.01v.01h-.01l-.01-.01h-.01l-.05-.02-.04.03-.02.05-.01.03-.02.04v.02l-.04.14-.02.03-.02.02-.03.02-.01.01.04.02-.02.04.04.01.11.03.08.03-.03.07.17.12.01-.01.21.15h.03l.01-.02.02-.01.02-.03.01-.02.01-.01.01-.02.01-.01v-.01l.01-.01v-.01l.01-.02v-.03l.02-.02.01-.01.02-.02.01-.02.03.01.05.02.08.06-.02.01h-.01v.01h-.01l-.01.01.01.01.01.01.02.01.06.04.06.03.12.09-.07.13-.03.04-.03.04.13.08v-.02l.01-.01.01-.03.01-.01.01-.01.01-.01.01-.02.01-.01.02-.02.03-.01.01-.01.02-.01.01-.03.01-.01.02-.01.01-.01.01-.01v-.01l.01-.02.01-.01.01-.02.02.01H369.43l.02-.01h.02l.02-.01-.04-.07-.01-.03-.04-.09-.02-.06-.01-.02h-.01v.01l-.02-.05h.04v.01l.12.01v-.04l.02-.08.04-.09-.06-.03.02-.05.01-.01v-.01l.02-.02v-.03l.02-.08h.01l.05-.02h.01l.03.01h.02l.02.01v-.01l-.01-.02.01-.01h.01l.02-.01.03-.03h.01v-.04h-.01v-.01l-.01-.06v-.01h.02l-.01-.02.02.01.03-.02h.01l.05-.02.02-.01h.02l.04-.04.04-.03.11-.07.03-.02.03-.02.07-.03.05-.03.01.01.07.06.01.01.01.01v.01l.02.01.01.01.01.01.01-.02.01-.02.03-.01.01-.01v-.02l.02-.04.04-.04.02-.02.01-.01.01-.01h.02l.03-.06-.02-.01h-.01l-.01-.02v-.01l-.01-.02.01-.02.01-.01.01-.01v-.03l.01-.02-.01-.01v-.02l.01-.01.01-.01v-.01l.01-.01h.01l.02-.01v-.01l.01-.02.01-.01.02-.04-.01-.04.01-.04.01-.04v-.04l.01-.01.01-.01.01-.02.02-.03.01-.01.01-.03.01-.02.01-.03.01-.01.01-.02.01-.02.01-.01.03-.02.01-.02v-.01l.03-.02.01-.03.01-.02.01-.02.01-.01h.01l.01-.02.01-.01v-.01l.01-.01v-.01l.01-.01v.01h.01l.01-.01h.02v-.01l.02-.02v-.04l.01-.01v-.01h.02v-.02l.01-.03v-.04l.02-.03-.02-.01-.02-.03-.06-.01.01-.01v-.01h-.01l-.01-.01.03-.04.02-.01-.01-.03h.01l.03-.03-.09.01h-.03l-.01-.01h-.07l-.04-.01.01-.01h-.01l-.01-.02h-.01l-.02.01.01-.01h-.01l.01-.01h-.01l-.02.03h-.02l-.02-.01-.01.01-.01-.02h-.01v-.02h-.01l.04-.03.03-.03.02-.01.03-.01.02-.02h.01l.01-.02.01-.02v-.01h.01l.01-.01.01-.02.03-.04.03-.05.06-.01.03-.01.02-.01.03-.01h.02l.02-.01v.01h.03l.02-.01v-.02l.03-.02-.01-.02.01-.01v-.01h.01l.01-.06-.03-.02-.04-.02-.05-.04v-.01l-.01.01-.01-.02-.02-.01-.02-.02-.03-.02-.01-.01h-.01l-.01-.01-.03-.04h-.01l-.05-.04-.03-.03-.05-.04-.01-.01v-.01l.07-.05.01-.01.03.02.02.02h.02l.02.01.03.01.05-.04h.01l.01-.01h.01l.01.01.09.02.04.02.1-.02Z"/>
  <path class="region1 dot-map" id="svg_colima_Minatitlán" d="M365.67 335.88v.05h.01v.01h.01l.01.01.01.01v.01h.01v.01h.01l.01.01h.01l.02.01.01.01.02.01.02.01h.01v.01l.01.01.01.01.01.01.01.01.01.01v.01l.01.01.01.01.02.03h.05l.03.01h.01l.02.01v.03l.01.01v.08l.01.01v.01l.01.01V336.38l.01.02v.04l-.08.17.11.28.04.03-.05.17v.02l-.02.23v.01l-.01.04-.03.16v.01l.09.27-.11.08-.32.28-.03.02-.04.01h-.03l-.02.02-.03-.01-.01.01h-.01l-.01.02v.02l-.02-.01-.01-.01h-.02l-.01-.01-.02-.02-.02-.01-.15-.42.12-.13-.03-.02v.01l-.05.04-.55.35.01.07h-.03l-.04-.04-.03-.04-.09-.04-.17-.07-.03.01-.06-.02-.07-.02-.09-.15-.03-.04h-.03l-.09.02-.07-.02-.03-.01.01-.01-.02-.01-.07-.04-.03.01h-.02l-.01.02-.02-.01-.02.01v.03l-.04-.02h-.07l.01.02v.01h.01l-.05.03-.03.31-.18-.02-.1-.03-.1-.02h-.01l.02.03v.01l-.01.06v.03l.04.06v.1l-.04.03-.09.04-.03.01-.03.05-.01.02-.01.03h-.01l-.05.11-.01.01-.06.02-.04.02-.07.03-.08.13-.08.03-.05.01.01.03-.01.01-.01.01h-.01v.01h-.01l-.01.01-.01.02-.02.02.01.01h.01v.03l.02.01v.01l.01.01.03.03v.01l.01.01.02.01h.01v.04l-.01.02v.02l-.01.02-.01.01-.01.02-.01.02-.02.01v.1l-.02.01v.05l-.01.01-.03.01-.07.08h-.01l-.01-.01-.02-.01h-.03l-.01.01-.03.01h-.03v.01l-.01-.01v-.01l-.01-.01-.01-.01h-.05l-.01.01h-.03v-.04l-.05-.02h-.03v-.01l.01-.01v-.01l.01-.01.01-.01v-.02l-.01-.01-.01-.01v-.02l-.02-.02h-.03v-.01h-.04l-.01.01v-.01h-.01v-.03l-.04-.01-.09-.09-.01.01h-.01l-.01.01h-.01l-.01.01-.01.01h-.03v-.01h-.01l-.01-.01h-.03l-.01.01-.01.01-.01.02-.01.02-.03.01-.04.01-.01.01h-.02v.02l.01.01.02.02v.01l.01.02v.03l-.02.02v.01l.01.01h.01l.01.01h.02l.01.01v.01h.01v.01h.01v.02l.02.03h.01v.02h-.01l-.01.01h-.02v.01h-.07l-.09.05-.01.03-.07.03v.01l.02.01.05.11.01.01h.01l.02.01h.03v-.01h.02l.01-.01h.02l.14-.09.01.06.01.05.04.08.04.01v.06l.04-.01.17.02.07.01.15-.04.07-.04v.17l-.02.04-.03.07-.06.06-.06.03-.02.05v.01l-.03.03v.01h-.01l-.02.01-.05.1-.01.05-.01.04-.1.04-.1-.06-.01.01-.11.04-.28.08-.03-.02-.04-.02h-.02l-.01-.02-.06-.04-.02-.03-.43.04-.16-.04-.16-.04-.17-.05-.04-.01-.04-.01-.06-.02-.02-.01-.1-.04.04-.08.02-.05.05-.09-.11-.01-.05-.01-.11-.01-.11-.01h-.04l-.01-.01h-.03l-.1.03-.04-.01-.07-.01v-.01l-.06-.01-.13-.05-.05-.02-.05-.02h-.01l-.05-.01-.08-.02-.09-.02v-.01h-.03l-.14-.05h-.01l.03-.1.01-.01-.01-.02-.05-.03-.08-.05-.03-.01-.05-.01-.19-.04-.04-.01-.03-.02h-.01l-.08-.03h-.01l-.05-.02-.05-.02-.04-.01-.02-.01-.04.05-.1-.03-.12-.05-.11-.04-.11-.04-.16-.03.01.01h-.05v-.05l.08-.02.01-.02.01-.01h.02l.01.01h.01l.01-.01h.02l.01.01h.01v.01l.01.01-.01.01v.02h.01l.01.01h.04v-.01h.02l.01-.01.01-.02.01-.01.02-.02v-.01h.03l.03.01h.04l.01.01.01.01h.02l.01.02.01.01h.03l.01-.01.01-.02.01-.01v-.01l.01-.02v-.01l.01-.01.01-.01.01.01.01.01.01.01.02.02.02.01.02.03.03.03.01.01h.03l.01.01.01.01.01.01.01.01v.01h.01l.01.01h.01l.02.01.02.01h.04v.04l.01.01-.01.02.01.01h.05v-.01l.01-.01V339.39l.01-.02v-.07l-.01-.03-.01-.01v-.01l-.01-.01.01-.01.01-.01v-.01h.02l.01-.01h.01l.02-.01H358.48v-.04l-.01-.01-.01-.01v-.01h.01l.01-.01h.03l.01-.01h.03l.01-.01.01-.01v-.01l.01-.01h.02l.01-.01v-.02l-.01-.01-.01-.01-.02-.01h-.01v-.01l.01-.01.01-.01h.01l.02-.01.02-.01h.02l.03-.01h.02l.01-.01h.01l.01-.01h.05l.01.01.01.01h.03l.01.01h.02l.01.01v.03l.01.01v.01h.01v.05h-.01v.02h.02l.01.01h.05v-.01h.01l.01-.01h.03v.01l.01.01V339.15l.01.01v.02l.01.02.01.01h.01l.02-.01.01-.01.01-.01.02-.04v-.03l.01-.02v-.04h.01l.01-.03V339h.04l.01-.01h.01l.01-.01h.03l.01-.01-.01-.01v-.03l.01-.02.02-.02.01.01h.01v.02l.01.01h.01l.02-.01h.03l.01.01h.01l.01.01h.01l.01.01h.01l.01.01.01.01.01.01h.01v.01h.03v-.01h.01v-.02l.02-.03.01-.01v-.01l.01-.01.02-.01.01-.01.03-.01h.01v.02l.01.01.01.02v.01l.01.01.01.01v.01h.04v-.01h.01l.01-.01v-.04l-.01-.01v-.02l.01-.01v-.02l.01-.01.01-.01v-.02h.01v-.01l.01-.01h.01l.01-.01.01-.01h.01l.01-.01h.03l.01.02.01.01v.04l.01.01h.01l.01-.01h.01l.01-.01h.01v-.01h.01l.01-.01.01-.01h.01v-.01l.01-.01h.01l.01.01v.01h.01l.01.01h.02v.01h.01v-.01h.01v-.03l-.01-.01-.01-.01v-.01l-.01-.01h-.01v-.01H360v-.02l-.01-.01-.01-.01v-.04l.01-.01v-.01h.03v-.01l.01-.01h.05l-.01-.01-.01-.01h-.01l-.03-.01H360v-.01l-.08-.23-.13-.37-.01-.03.12-.06.21-.1.03-.29.08-.08.14-.14.02-.02.14-.08.13-.1.19-.11.03-.01.09-.3.04-.07.02-.03.01-.17.04-.07.28-.42-.16.06-.07.02.01-.02v-.01l-.01-.02-.01-.03-.01-.02-.03-.03-.01-.02-.01-.01-.01-.02-.01-.02-.02-.01-.03-.02-.02-.02.02-.08.23-.89.01-.02.02-.02.01-.01.01-.01h.01l.02-.01v.01l.02.01.01.01.01-.01h-.01v-.03h.05l.02-.01.01-.01.02-.03.01-.03.01-.01.01-.01.01-.02.01-.02.01-.02v-.02l.02-.03.01-.03.02-.02.01-.03.01-.01.03-.06h.25l.12.12v.01l.2.2.07.03.12.05h.05l.02.01.03.01.03.02.03.01.03.02.03.01.04.02.03.01.03.02.03.01.03.01h.03l.04.02h.03l.04.02.03.01.03.01.05.02h.03l.02.02.11.06.01.01.06-.07.15.01h.09l.02-.05.01-.03h.32v.09l.03.11.04.1.05.08.12.13.44.12.41.1.25.08.16.05.11.03.27.11Z"/>
  <path class="region1 dot-map" id="svg_colima_Tecomán" d="M92.41 362.67h.05l.02.01h.06l.03.01.02.02.02.04.03.01.01.02.03.01.02.02h.02l.01-.02.01-.02h.01l.01.03.03.02h.04l.03-.01h.04l.03-.01.02.01.01-.02-.01-.01h.02l.02.01.02-.01v.01h.02l.01-.01.02.01.02-.01.02.01.03-.01.03-.01.02.01h.03l.02.01.02.01.02-.02.02-.02.03-.01h.08l.02-.01h.02l.02-.01.02.01.01.01.01.01h.04l.01-.02v-.02l.01-.02.01-.01-.01-.01h.01l.02.01h.07l.01.01.01.02.02.01.05.03h.01l.02.02v.02l.01.01.01.01v.01l.01-.01v.01l-.01.02.03.02h.02l.02.01.01.03.01.03-.01.02-.02.01-.01.01-.01.02-.01.02-.02.01-.01.02h-.03l-.02.02-.02.01v.02l-.02.01h-.01l-.01.03-.02.01-.01.01h-.02l-.01.02-.02.01v.02l-.03.01-.03.01-.01.02-.02.01-.01.01.01.01v.01l-.02.01.01.01-.01.01-.04.02-.02.01-.01-.01h-.02l-.01-.02h-.01l-.01-.03h-.02l-.01-.01v-.02l-.01-.01-.02.01-.01-.01-.02-.01-.02.01h-.02l-.01-.01h-.02v-.02h-.04l-.02-.01-.01.01-.02.01-.02.01v.01l-.01.01-.01.01h-.02l-.04.01-.04.02h-.03l-.05.02h-.05v.04l-.01.01-.02-.01-.01.01-.01.01-.02.01-.02.01-.01-.01h-.02l.02-.03.04-.02-.02-.04-.04-.03-.03-.02h-.04l-.05.01-.01.01-.01.02.01.02v.01l-.02.02-.03.01.01.02.01.05-.03.01-.04.02h-.01l-.01-.04h-.02l-.02.03-.02-.04-.02-.01-.02-.01h-.03l-.03.01-.04.02h-.06l-.05.03-.02.02-.03.01v.02h-.03l-.01.02-.04-.03-.02-.03-.02-.01-.02-.03-.01-.02-.05-.01-.03-.05.01-.02-.01-.04.02-.03.01-.03.01-.02-.02-.04.01-.02.01-.02v-.04l.01-.02v-.07l.02-.01.02-.03v-.04l-.02-.01.01-.05.02-.03h.05l.03-.01-.02-.01.02-.01.02.01.01-.03.03.01-.01.01.02.03.04-.01.03-.04.03-.02h.04l.04-.04-.01-.01.04-.01.05-.01Zm94.61-12.33v.03l.02.01.02-.01h.04l.01-.02h.02v.02l-.01.02.02.01.02.02.02.01v-.02l.03-.04v-.03l.04-.01.01.02v.08l-.02.03-.01.04h.03l.02.04.01.01.02-.02h.02v.02l.04-.02.07-.02.02.02-.01.04h.03l.02.03.02.03.04.01v.03l.04.02.02.01-.02.01v.02l.02.03.01.02.02.01v.01h.02v.01l.02.01.01.01v.01h.02l-.01.01-.02.01.01.03h.01l.01.02.02.01.03.01h.02l.01.02.03.01h.02l.02-.01.02-.01.02.02.02-.02.01-.04.01-.01h.02l.02-.03.02.01.04.01.02.03.01.02-.01.03v.02l.01.01-.01.01.02.02.02.01h.01l.02-.01h.04v.02l.01.02-.02.01-.01.01.02.01v.01l.01.01v.01l.01.01v.01l.02-.01v.04l.01.01h.01l-.01.01-.01.01.01.01v.02l-.02.01-.01.01-.01.01.02.04-.01.01.02.02h.03l.01-.01h.02l.01.01v.02l.02.01.03.01.01.01v.02l.02.03h.04l.02.01v.07l-.02.01.03.02-.02.01.02.02.02.01v.01l.01.02h.04l.01.01.01.02v.02l.02.02.01.02.02.02.03.01.02.03.01.01.02.02.02.03.01.01.03.03v.01l.01.01h.01v.01l.01.01v.01h.01l.02-.01v.01l.02.01v.01l-.01.01h-.02v.04l-.01.02v.03l-.01.01v.05l.01.01.01.03v.04l.01.01v.06l.02.02h.03l.01.01v.01h-.01v.01h-.02v.02l.01.01v.01h.03l.01.01h.02v.01h-.02l.01.02.03.01h.03l.03.02.03.01h.01v.02l-.02-.01-.02-.01-.03-.01-.01.01h-.03l-.01-.01-.01.01-.01.01-.01.01.01.01-.01.01h.01l-.01.01h-.05v.02h-.01l-.01.03-.01.01-.01.03-.01.01-.01.03-.02.03-.01.02v.03l.01.03-.01.01.01.01v.06l.01.02v.01l.01.01.01.01h.01l-.01.01.01.01v.01l.01.01-.02.02-.01.01.01.01h.01l-.01.01v.01l.01.01-.02.01.01.01h.02v.03l.02.02v.04l-.01.02-.02.01-.01.01.01.03.01.01v.03l-.01.01-.01.01v.03l.01.02v.02l-.01.02v.01l-.02.02v.09l-.01.02v.01l-.01.01v.01l-.01.01-.01.01.01.01-.01.01v.02l-.01.01.02.01-.01.01v.01l.01.01-.01.01h-.01v.01l.01.01v.01l-.02.01-.01-.01-.01.02h-.01v.01l-.01.01h-.02l-.01-.01v.01h-.01l-.01.01h-.02l-.01.01v.01h-.02v.01l-.01.01-.01.01h-.02l-.01.01h-.01v-.01h-.09l-.01-.01-.01-.01-.01-.01-.01.01h-.01l-.01.01-.01-.01-.01-.01h-.02v.01l-.01-.01h-.01l-.01-.01h-.04l-.01-.01h-.02l-.02.01-.01.02v.02l.01.01v.03l-.01.02.01.01v.01l-.01.02v.02l-.02.01h-.01l.01.03-.02.01-.01-.01-.02-.01h-.01v-.02l-.01-.01-.01-.01h-.02l-.01-.01-.02-.01-.01-.01-.02-.02-.01-.01h-.01l.01.01h-.01v-.01h-.01v.05l.01.03-.01.01.01.02v.02l-.01.03-.02.01-.02.01h-.02l-.01-.01-.02-.01-.03-.01-.02-.01-.03-.02h-.01l-.02-.02v-.03l-.01-.01v-.02l.01-.03v-.02l-.01-.01v-.02l.02-.02h.01l.02-.02h.01l.01-.01v-.01l.01-.01v-.02l-.01-.01-.01.01h-.03l-.01-.02h-.02l-.01-.01h-.02l-.01-.01h-.01l-.01-.01h-.01l.01-.02v-.06l-.01-.01h-.02l-.01-.01h-.01l-.01.03-.01.02h-.01v-.04l.01-.01v-.04h-.03l.01-.02v-.03h-.05l-.02-.01v-.01l-.01-.02-.01-.01v.01l-.01-.01h-.04v-.02l.01-.01-.02-.02-.02-.01h-.01l-.01.01-.01-.01v-.02l-.02.01-.01.01-.02-.01h-.01l-.01-.01-.01.01-.01-.01-.02-.01h-.01l-.01-.01h-.05l-.01-.01-.01.01h-.01l-.01.01-.01.01v.01l-.01.01-.03.02h-.02l-.03-.01-.03-.02-.01-.02-.02-.01v-.03l-.01-.01-.01.01-.01-.02v-.04h.01l.01-.01v-.01l-.02-.02-.01-.01-.01-.01-.01-.01-.01.01-.01-.01-.02-.01-.02.01h-.04l-.02-.01v-.01H186.76l-.01-.01v-.01h-.01v-.01h-.01l-.01-.01v-.02l-.01-.01v-.01h-.04l.01-.01v-.01l-.01-.01-.01.01-.02.02-.02.02-.02.02-.03.03h-.02v.02l-.02.01v.01l-.01.01-.01-.01-.01-.01h-.02l-.01.01-.01-.01-.02.01h-.01v-.04l-.01-.01v-.01h-.01l-.01-.01v-.02h-.06v.02l-.01.01-.01.01-.02.02-.01.01h-.01l-.02-.03-.02-.03-.01-.01v-.02l.01-.03v-.03l-.02-.01-.01-.01-.01-.01.02-.02h.02l.02-.02.02-.02.01-.01v-.02l-.01-.02-.01.01-.01-.01h-.03v.01h-.02v.01l-.01.01h-.01v-.02h-.01V352.71l-.01-.01h-.01l-.01-.01-.02-.01v-.02l-.01.01h-.02v-.01l.02-.02v-.03l-.01-.02h.01l.01-.02V352.51l-.01-.01v-.01l-.01-.01h-.02v.02l-.01.01h-.03l-.01-.01h-.02l-.01-.01H186l-.01.02-.01.01-.01-.01h-.01l-.01-.01v-.02l.01-.02.02-.01v-.02l-.02-.01h-.04l-.02-.01h-.02l-.01-.01v-.01h-.01l-.01-.01h-.02v-.01h-.01l.01-.01-.01-.01v-.02l-.01-.01.01-.01h-.01l-.01-.02V352.23l-.01-.02-.01-.02h-.01l-.01-.01v.01l-.02.01-.01.02-.01.02-.01.02h-.02l-.02.02h-.05v-.01h-.02l-.01-.01h-.01v.01l-.01-.02v-.01h-.03v-.01l-.02.01h-.01l-.02.01-.02.01v.01l-.02.01-.01.01.01.02v.01l-.02.02-.01.02.01.01.01.01v.01l-.02-.01v-.01h-.01v-.01h-.04l-.01-.01h-.01l-.01.01h-.02l-.01.01h-.01v.03l-.01-.01-.01-.02h-.01v-.01h.02v-.01l-.01-.02v-.01h.01l.01-.01-.01-.01.01-.02.01-.02.01-.02.01-.02.01-.01.02-.02h.01l.03-.02.02-.02h.02l.02-.01.04-.02h.02l-.01-.01-.01.01v-.06l-.01.01v-.02h-.01v-.02l.01-.01h.03l.01.01v.02h.02l.02-.02h-.01l.01-.01v-.01l.01-.01.01.02.02-.01.01-.02v.01l-.01.02.02-.01v-.06l.01-.02v-.03l-.01.02-.01.01v-.02l-.01-.02-.01-.01-.01-.01-.01-.02-.01.01h-.03l.01-.01-.01-.02h-.03l-.01.01v-.01h.01v-.02l.01-.02.01-.01.01-.01-.01-.02-.01-.01.01-.01v-.01h-.01l.02-.02-.01-.01-.01-.01h-.01l-.01-.01-.01.01-.02-.01h-.01v-.02l.02-.01.01.01.03-.01.01-.02.02-.02.01-.02.01-.03.01-.03v-.01l-.02.01-.05.01-.01-.01h-.01v-.01h-.02l-.01-.02h-.02l-.02.02h-.01l-.02-.01h-.01l-.01-.02-.01-.01.01-.01.01.01v-.02l.01-.01h.03l.02.01.01.01.01.01h.05l.01.01h.03l.03-.02h.04l.02.01-.01.01-.01.01h-.02l-.01.01v.01l.01.02h.05l.02-.01.01-.01-.01-.01h-.02v-.02h.02l.01-.02.02.01.02-.02v-.01h-.01l.01-.01.01-.01v-.01h-.01.01l.01-.02v-.04h.01l.01.01.01-.01h.01l.01.01.01.01h.02v-.01l.02.01h.02l.02.01.04.02.02.01h.01l.01-.01h.02l.01-.01-.01-.01-.02-.01.01-.01v-.02l-.02-.02v-.02l.02-.02v-.01h.01l.01-.01.03-.01.02-.03.02.01-.01.01h.02v.01h.01l.02.01.02.01.02.01h.02l.02.01v.01l.02-.01.01.01.01.01h.01l.01-.01.01-.01.02-.01.02-.01.02-.01v-.02l.02-.01.01.01h.01l-.01-.02h.02l-.01-.02h.02l.01-.02h-.02l-.02-.01.01-.01h-.01l.01-.02.02.02.02-.02-.01-.01.02-.02.01-.02v-.03l-.03-.01-.02-.03h.01V351l.04.05.02-.04.02-.01.01-.03.01-.02h-.02l-.01-.05.05-.01.01-.02-.02-.01-.03-.03-.03-.05h.03v-.06l.02-.02h.03l.02-.07.02.01.03-.02.03-.04h.03l.01-.03.02-.01.01.03.01.01.05-.01-.02-.04.02-.02-.01-.02v-.06l-.02-.01v-.03l.02.01.03-.02.04-.03.01.03.06-.02.04-.01h.04l.02-.03h-.02l-.04-.02v-.05l.02-.02.04-.02.03.01.01.02h.04l.02.03h.02l-.01.04-.05.03Zm181.55-5.47.29-.01-.01.02v.03l-.01.02-.01.01-.01.01-.01.01v.01l.01.01-.01.01-.01.01h-.02v.02l.05.03.11.06.03.01-.06.06-.02.02-.01.02-.05.11.01.04.01.04-.01.03v.02l.02.03.01.02.01.02v.04l.02.03v.02l.01.02.01.05v.06l-.01.02v.02l-.02.05v.04l.01.04v.03l.02.03.02.05v.01l.01.05.01.01.03.06-.1.13.01.01.01.01v.06l.01.01v.04l.02.37v.05h-.27v.03l.07.38-.01.14h.01l.01.01-.02.05-.14.5.21.12.03.01h.01l.1.06-.05.05-.04.03-.02.01-.02.02-.03.02v.01l.28.06.07-.21.28.1-.07.07-.16.19-.09.1-.03.04-.14.13-.02.04-.12.11.02.05.05.01.03-.01v-.06l.04-.01.02-.01.02-.01.01-.03.04-.05.08.04-.07.13-.03.03-.02.03-.01.06.04.01h.01l.48.04.02-.04.04-.13.01-.04h.07v-.01.01h.04l.01.01V349.02l.02.09.01.06v.05l.03.03-.08.06.01.03.02-.01.03-.02.03-.05.05.04.04-.07.06-.06.05-.01.01.04.03.07.01-.01-.01-.03v-.04l-.02-.03-.01-.01v-.02l-.01-.02-.01-.01v-.01l-.01-.01v-.03h.01l.04-.01.13.18.07.1.03-.01h.07l.02.01h.01l.01.01.01.01H370.43v.17l.06.02.05.01.05.02.04.01-.06.04.17.11h.01l.04.03-.02.02.04.04.01-.02.04.01.01-.02.04.01v-.01h.01l.06.01.03.02.03.01-.02.04-.01.04-.02.04h-.01v.01l-.06.13-.07.15.18.11.21.08.08.03.09.05h.01l.01.01.06-.1.26.14.16.1-.03.08.05.02.03.1.15.09.46.27.03.01.01.01.02.05.04.04.02.03.01.02.01.04v.05l-.01.04-.01.04-.01.03V351.64l.01.03.01.05.01.02.01.03.01.05-.01.03-.06.06-.03.04-.02.02-.02.02-.04.05-.05.05-.02.01-.03.02-.03.01-.03.01-.04.03-.05.07-.01.03-.01.03h-.04v.01h-.11l-.04.02-.04.01-.03.03-.03.03-.05.04-.03.02-.04.01-.04-.01-.02-.01-.02-.03-.04-.01h-.09l-.01.01h-.02l-.01.01-.03.01-.03.02-.02.02-.01.01-.02.02-.03.01-.03.01-.03.01-.03.01h-.12l-.04.01-.02.01-.02.01-.02.05-.04.09-.03.07-.01.04-.01.05v.02l-.01.03v.03l-.06.04-.04.03-.02-.01h-.03l-.03-.02h-.06l-.04-.01h-.03l-.02.01h-.01l-.02.02-.02.01-.01.02v.01l-.04.05-.02.07v.06l.01.03V353.33l-.01.04v.03l-.01.02-.03.05-.02.03-.01.04-.01.02-.01.01v.01l-.01.01-.01.03-.02.03-.02.02-.03.02-.04.02-.02.03-.01.04v.01l-.01.03-.02.03-.02.03v.01l-.02.04-.01.06-.01.03-.01.05-.04.07h-.01l-.06.02-.06.01-.05.04-.02.05-.01.05-.01.04v.01l-.01.02-.02.02-.04.03-.03.02-.04.01-.04.01-.04.03-.01.02-.01.01-.02.02-.01.03.01.02.01.03.01.01.01.06v.02h-.01V354.78h-.01v.02h-.03l-.01-.01h-.02v-.01l.01-.01v-.02l-.01-.02v-.01l-.01-.02-.01-.02-.01-.02v-.01l-.01-.01-.04-.06-.1-.1-.05-.06-.09-.1-.1-.06-.1-.1-.05-.05-.01-.01-.32-.31-.31-.29-.13-.11-.2-.16-.06-.06-.22-.15-.12-.09-.11-.08-.09-.06-.04-.03-.06-.05-.05-.04-.08-.05-.03-.02-.1-.07-.2-.13-.27-.18-.04-.03-.01-.01-.07-.04-.04-.03-.03-.02-.03-.02-.01-.01-.25-.16-.23-.14-.04-.03-.02-.01-.03-.02h-.01l-.15-.1h-.01l-.05-.03-.09-.05-.03-.02-.16-.1-.01-.01-.03-.01-.05-.03-.04-.03-.03-.02-.05-.03-.02-.01-.04-.02-.01-.01-.07-.04-.03-.02-.23-.14-.21-.12-.15-.09-.09-.06-.01-.01-.02-.02-.01-.01h-.01v-.01h-.01l-.01-.01-.03-.03-.02-.02-.01-.01-.02-.02-.02-.02-.01-.01-.01-.01-.02-.02v-.01l-.01-.01-.01-.01-.02-.01-.01-.02v-.01h-.01v-.01l-.01-.01h-.01v-.01l-.01-.01-.02-.02-.01-.01-.01-.01v-.01h-.01l-.01-.01H364l-.01-.01h-.01v-.01h-.01v-.01l-.01-.01-.02-.01v-.01h-.01l-.01-.01v-.01l-.03-.02-.01-.01-.01-.01v-.01l.01-.02.02-.07-.04-.02.03-.07.07-.08.14.04.01-.03.07-.02.01-.03.01-.06.03-.03.03-.03.01-.01h.05l.01-.01v-.07l.01-.04v-.04l.01-.04.01-.04.01-.03v-.11l.01-.03-.01-.01-.01-.05-.04-.1v-.04l.01-.06.03-.05.01-.02h.02l.02-.04v-.01l.01-.03v-.06l.02-.03.03.01.03-.02.02-.03v-.02l.01.01v-.03l.01-.04v-.01l-.01-.01h.01v-.1l.01-.08v-.08l-.01-.02v-.01l-.01-.05V348.34h.01v-.01l-.01-.02-.01-.01v-.01h-.01v-.01h-.01v-.01l.01-.01h.01l.01-.01.01-.01.01-.02.01-.01.02-.01.01-.03.01-.01v-.02l-.01-.04-.03-.05-.02-.03-.03-.03v-.01l-.01-.01-.01-.01.01-.02v-.01l.01-.02h.02l.02-.01h.02l.01-.01H364.67l.02.01h.02l.02.01v-.02l.01-.01h.1l.02-.01h.03l.02-.01h.02l.01-.01.03-.03.01-.01.03-.02.05-.03h.01l.02-.04v-.02l-.01-.01h.02l-.01-.07.01-.04.03-.04-.01-.03v-.07l-.01-.02.01-.01.01-.02v-.04l.02-.04v-.02l.01-.04.01-.02.01-.04.03-.06v-.02h.01l.04-.1.03-.05.01-.03.01-.03-.01-.03V346.72l-.01-.03v-.05l.01-.04H365.24l.01-.02V346.49l-.02-.02.01-.04h-.02l-.02-.01v-.03l.02-.02v-.02l.02-.02v-.03l.01-.01.01-.01.01-.01.03-.09.02-.05.01-.02.01-.02v-.07l-.03-.03.01-.05.03.01.03.02-.08-.07-.02-.02h-.04l-.02.01.02-.11.01-.12h.03v-.03l.02-.01-.01-.03-.02-.02.01-.07.01-.03v-.08l.01-.06.03-.04v-.05l.05-.07.05-.07.02-.04.01-.05.02-.06v-.01l.02-.03.02-.05.03-.05.02-.02.03-.07v-.04l.01-.02v-.05l.01-.01.03-.05.06-.08.01-.02.04-.07-.03-.02-.01-.01v-.08l.01-.01v-.01l.01-.01v-.01l.01-.01h.01l.01-.03.01-.02h.01l.02-.02h.01l.01-.01v-.02l.01-.01v-.02l.02-.03.02-.01.02-.01.06-.04.01-.01-.01-.01v-.02l-.01-.02v-.03h.03l.01.01.01-.02.01-.01.01-.01.01-.01v-.03l.01-.02.01-.02.01-.02v.02l.01.03.01.02.01.03.01.02.01.02v.05l-.02.01-.01.01-.01.02h.03l.01.01.14.02.12.18.07.02v.03l.03.02.25-.1.04-.03.03.01.04-.01.01-.01h.01l.11-.03-.01.07v.05l-.03.26-.01.06-.01.06-.04.1-.09-.03-.13-.04.13.16v.04l-.01.19-.02.65h.06l.04-.04H367.02l.15-.04 1.29-.27h.14l.01-.04.01-.05-.07-.03h-.01l-.04-.04-.04-.06-.04-.15.06-.01.06-.01h.02l.01-.08Z"/>
  <path class="region1 dot-map" id="svg_colima_Comala" d="m372.91 334.52-.34.07-.02.05h-.04l-.04.22-.02.01-.03.02-.08.06v.04l-.01.03-.02.03-.03-.08.01-.05.01-.08-.02-.08-.03-.02-.19.1.08.12-.07.02h-.01l-.03.01-.17.09h-.16v.05l-.16.04-.05.02-.03.15.04.06-.04.09-.02.1v.02l-.1.01v.05l.06.03.01.04-.01.07v.07l-.03.08-.1.02-.04-.02-.09-.02-.01-.01h-.01l-.01.01h-.01l-.05.04-.03-.01-.02-.01h-.02l-.02-.02-.03-.02-.01.01-.07.05v.01l.01.01.05.04.03.03.05.04h.01l.03.04.01.01h.01l.01.01.03.02.02.02.02.01.01.02.01-.01v.01l.05.04.04.02.03.02-.01.06h-.01v.01l-.01.01.01.02-.03.02v.02l-.02.01h-.03v-.01l-.02.01h-.02l-.03.01-.02.01-.03.01-.06.01-.03.05-.03.04-.01.02-.01.01h-.01v.01l-.01.02-.01.02h-.01l-.02.02-.03.01-.02.01-.03.03-.04.03h.01v.02h.01l.01.02.01-.01.02.01h.02l.02-.03h.01l-.01.01h.01l-.01.01.02-.01h.01l.01.02h.01l-.01.01.04.01h.07l.01.01h.03l.09-.01-.03.03h-.01l.01.03-.02.01-.03.04.01.01h.01v.01l-.01.01.06.01.02.03.02.01-.02.03v.04l-.01.03v.02h-.02v.01l-.01.01v.04l-.02.02v.01h-.02l-.01.01h-.01v-.01l-.01.01v.01l-.01.01v.01l-.01.01-.01.02h-.01l-.01.01-.01.02-.01.02-.01.03-.03.02v.01l-.01.02-.03.02-.01.01-.01.02-.01.02-.01.01-.01.03-.01.02-.01.03-.01.01-.02.03-.01.02-.01.01-.01.01v.04l-.01.04-.01.04.01.04-.02.04-.01.01-.01.02v.01l-.02.01h-.01l-.01.01v.01l-.01.01-.01.01v.02l.01.01-.01.02v.03l-.01.01-.01.01-.01.02.01.02v.01l.01.02h.01l.02.01-.03.06h-.02l-.01.01-.01.01-.02.02-.04.04-.02.04v.02l-.01.01-.03.01-.01.02-.01.02-.01-.01-.01-.01-.02-.01v-.01l-.01-.01-.01-.01-.07-.06-.01-.01-.05.03-.07.03-.03.02-.03.02-.11.07-.04.03-.04.04h-.02l-.02.01-.05.02h-.01l-.03.02-.02-.01.01.02h-.02v.01l.01.06v.01h.01v.04h-.01l-.03.03-.02.01h-.01l-.01.01.01.02v.01l-.02-.01h-.02l-.03-.01h-.01l-.05.02h-.01l-.02.08v.03l-.02.02v.01l-.01.01-.02.05.06.03-.04.09-.02.08v.04l-.12-.01v-.01h-.04l.02.05v-.01h.01l.01.02.02.06.04.09.01.03.04.07-.02.01h-.02l-.02.01h-.34l-.02-.01-.01.02-.01.01-.01.02v.01l-.01.01-.01.01-.02.01-.01.01-.01.03-.02.01-.01.01-.03.01-.02.02-.01.01-.01.02-.01.01-.01.01-.01.01-.01.03-.01.01v.02l-.13-.08.03-.04.03-.04.07-.13-.12-.09-.06-.03-.06-.04-.02-.01-.01-.01-.01-.01.01-.01h.01v-.01h.01l.02-.01-.08-.06-.05-.02-.03-.01-.01.02-.02.02-.01.01-.02.02v.03l-.01.02v.01l-.01.01v.01l-.01.01-.01.02-.01.01-.01.02-.02.03-.02.01-.01.02h-.03l-.21-.15-.01.01-.17-.12.03-.07-.08-.03-.11-.03-.04-.01.02-.04-.04-.02.01-.01.03-.02.02-.02.02-.03.04-.14v-.02l.02-.04.01-.03.02-.05.04-.03.05.02h.01l.01.01h.01v-.01h.01v-.09l-.01-.01v-.01h-.04l-.02-.01h-.01l-.01.03-.02.03-.02.01v.01l-.01-.02v.01h-.01l-.01.02-.01.01v.01l-.01.03-.01.01-.01.03-.01.02-.01.01-.01.01-.01.02v.03h-.02v-.01h-.02l-.05-.02-.12-.07-.11-.05.01.03.1.21-.01.01-.01.01-.01.01v.01l-.01.01-.03.05-.01.02h.01l-.01.01h-.01l-.02.03-.01-.02-.07-.18-.14-.36.13-.02.01-.02.01-.01.05-.01.01-.15-.54-.3-.04.02-.03.02-.07.04-.04.02-.41.2h-.01v-.02h-.01l-.03-.09-.01-.1-.07-.07-.17.1h-.02v-.01h-.03l-.01.01h-.01l-.03.04v.01h.01-.03l.01.01v.02h-.05l-.01-.01h-.01l-.01-.01h-.02v.01h-.01l-.01.01h-.01l.32-.28.11-.08-.09-.27v-.01l.03-.16.01-.04v-.01l.02-.23v-.02l.05-.17-.04-.03-.11-.28.08-.17v-.04l-.01-.02V336.32l-.01-.01v-.01l-.01-.01V336.21l-.01-.01v-.03l-.02-.01H366l-.03-.01h-.05l-.02-.03-.01-.01-.01-.01v-.01l-.01-.01-.01-.01-.01-.01-.01-.01-.01-.01v-.01h-.01l-.02-.01-.02-.01-.01-.01-.02-.01h-.01l-.01-.01h-.01v-.01h-.01v-.01l-.01-.01-.01-.01h-.01v-.01h-.01v-.05l.03-.01.01-.01.01-.02v-.03l-.01-.03-.26-.36-.01-.02.07-.05.03-.03.13-.07h.01l.01-.01h.02l.01-.01v-.01l.01-.01.02-.01h.01l.02-.01h.03l.01-.01.01-.01.02-.01h.02l.02-.01h.04l.02.01.04.04.05.07.04.07.03.08.03.07.04.14.1.04.01-.02h.01l.01-.02.01-.01h.01l.02-.01h.01l.01.01h.03l.01.01.01-.01h.02l.01-.01h.01v-.01h.02v-.01h.01v.01h.01l.01-.01h.01v-.01h.03l.01-.01.01-.01.04.12.1.14-.02.05v.04l.02.04.05.02.04.01.05-.01.03-.02.01-.01.01-.01h.01l.01-.01h.04l.01-.01h.04l.01-.01v-.01l.01-.01h.02v-.01h.01v-.01h.01l.01-.01v-.01l.01-.01h.01v-.01h.01l.01-.01h.01l.01-.01.01-.01h.04l.01-.01.01-.01h.01l.01.01h.03v-.01l.01-.01h.02v-.01l.01.01.01-.01h.01v.01h.02l.01-.01v-.01h.03l.02.01.01.01.01.01h.01l.01.01h.07l.01.01h.03l.02.01.01.01v.02l-.01.01v.01l-.01.01-.02.01h-.01l-.01.01-.01.01-.01.01-.01.01h-.01v.03l.01.01v.01l.01.01h.01v.01l.01.01.01.01.01.01.01.01.02.02v.01l.01.01.01.01v.07l.01.01v.01l.01.01h.01v.01l.01.01-.01.01v.01l-.01.01v.03l-.01.01v.03l-.01.01v.04h.01l.01.01v.01l.01.01.01.01.01.02.01.01v.07l.01.01v.01l.01.01.01.02h.01l.01.01v-.01h.01v-.05h.01v-.02l.01-.01.01-.01h.02l.01.01h.01v-.03l.01-.01h.01l.01-.01H367.87l.01-.01h.03l.02-.01.02-.01.01-.01v-.01h.01l.01-.01v-.01l.01-.01h.03l.01-.01.01-.01.02-.01.01-.01.01-.02v-.01h.01v-.01l.01-.01h.01l.01-.01v-.01h.02l.01-.01h.01l.01.01.01.01.01-.01h.04v-.01l.01-.01.01-.01v-.02h.01v-.01l.01-.01.01-.01.01-.01h.01l.01-.01h.01l.01-.01.01-.01v-.01l.01-.01.01-.01.03-.01h.02l.02-.01h.03l.01-.01.01-.01h.08l.01-.01h.04l.01-.01H368.68l.01-.01.01-.01.01-.01h.05l.01.01.01.01h.05l.01-.01.01-.01v-.01l.01-.01.01-.01.01-.01.01-.01v-.01l.01-.01h.04l.01-.01h.03l.01-.01.02-.02.01-.01h.01v-.01l.01-.01h.01l.01-.01.01-.01h.01l.01-.01h.02l.02-.01.01-.01.01-.01h.01l.01-.01h.01l.01-.01h.01v-.01l.02-.01h.01l.01-.01.01-.01.01-.01.01-.01.01-.01h.01l.02-.01.01-.01.02-.01.01-.01h.01l.01-.01h.01v-.01h.01l.01-.01h.01l.02-.01h.03l.02.01h.01l.02.01h.03l.01-.01h.03l.01.01h.01l.02.01h.01l.01.01h.02l.01.01h.03l.01.01h.02l.01.01h.05l.01-.01h.02l.01-.01h.01v-.01h.01v-.01l.01-.01.01-.01.01-.01h.01l.03-.02h.01l.03-.02.02-.02.02-.01.01-.02.01-.01.02-.02h.01l.01-.01v-.01h.02l.01-.01h.01l.01-.01h.02l.01-.01.02-.01h.04l.01-.01h.03l.01-.01h.01v-.01h.01l.01-.01v-.01l.01-.01v-.03l.01-.01-.01-.02V335.08h.01v-.01l.01-.01.01-.01h.03v-.01H370.42l.01-.01h.01l.01-.01h.01l.01-.01h.01l.01-.01v-.01h.01l.01-.01v-.01l.01-.01v-.01l.01-.01v-.04l.01-.01.02-.01v-.01h.01v-.01l.01-.01v-.01l.01-.01v-.01l.01-.01v-.01l.02-.01.01-.01v-.01l.01-.01.01-.01.01-.01.02-.01.01-.01h.01l.01-.01.01-.01.01-.01v-.01l.01-.01v-.03l-.01-.01v-.01l.01-.01.01-.01h.01v-.01h.01l.01-.01h.02l.01-.01h.01l.01.01h.03l.01-.01.01-.01.01-.02v-.01l.01-.01.01-.01v-.01l.01-.01.01-.01v-.02l.01-.01v-.01l.01-.02h.03l.01-.01.02-.01h.01l.01-.01h.04l.01-.01h.03v.01l.01.01v.01h.02v-.01h.02v-.02l.01-.01.01-.01v-.01l.01-.01h.01l.01-.01h.01l.01-.01h.03l.01.01h.02l.01-.01h.01l.01-.01h.01v-.01l.01-.01h.02l.01-.01.02-.01.01-.01.01-.01h.01v-.02h.01l.01-.01h.01l.01-.01H371.52l.02-.01.01-.01.01-.01h.02l.01-.01h.03l.01-.01h.02l.01.01h.01l.01.01h.01l.01.01h.05l.02-.01h.04l.01.01h.01l.01.01.01.01h.01l.01-.01v.01h.01v.01l.01-.01h.03l.08-.02.76-.27.31.3-.01.01-.03.03-.03.02-.02.03-.03.04-.01.01h-.07l-.01.01-.01.01.01.02v.02l.02.01v.01l.01.01v.03h.01v.01h.01v.03Z"/>
  <path class="region1 dot-map" id="svg_colima_Armería" d="m365.76 344.38-.04.07-.01.02-.06.08-.03.05-.01.01v.05l-.01.02v.04l-.03.07-.02.02-.03.05-.02.05-.02.03v.01l-.02.06-.01.05-.02.04-.05.07-.05.07v.05l-.03.04-.01.06v.08l-.01.03-.01.07.02.02.01.03-.02.01v.03h-.03l-.01.12-.02.11.02-.01h.04l.02.02.08.07-.03-.02-.03-.01-.01.05.03.03v.07l-.01.02-.01.02-.02.05-.03.09-.01.01-.01.01-.01.01v.03l-.02.02v.02l-.02.02v.03l.02.01h.02l-.01.04.02.02v.09l-.01.02h.06l-.01.04v.05l.01.03v.15l.01.03-.01.03-.01.03-.03.05-.04.1h-.01v.02l-.03.06-.01.04-.01.02-.01.04v.02l-.02.04v.04l-.01.02-.01.01.01.02v.07l.01.03-.03.04-.01.04.01.07h-.02l.01.01v.02l-.02.04h-.01l-.05.03-.03.02-.01.01-.03.03-.01.01h-.02l-.02.01h-.03l-.02.01h-.1l-.01.01v.02l-.02-.01h-.02l-.02-.01h-.09l-.01.01h-.02l-.02.01h-.02l-.01.02v.01l-.01.02.01.01.01.01v.01l.03.03.02.03.03.05.01.04v.02l-.01.01-.01.03-.02.01-.01.01-.01.02-.01.01-.01.01h-.01l-.01.01v.01h.01v.01h.01v.01l.01.01.01.02v.01h-.01v.1l.01.05v.01l.01.02v.08l-.01.08v.1h-.01l.01.01v.01l-.01.04v.03l-.01-.01v.02l-.02.03-.03.02-.03-.01-.02.03v.06l-.01.03v.01l-.02.04h-.02l-.01.02-.03.05-.01.06v.04l.04.1.01.05.01.01-.01.03v.11l-.01.03-.01.04-.01.04v.04l-.01.04v.07l-.01.01h-.05l-.01.01-.03.03-.03.03-.01.06-.01.03-.07.02-.01.03-.14-.04-.07.08-.03.07.04.02-.02.07-.01.02v.01l-.01-.01h-.02l-.01-.01-.01-.01h-.02l-.02-.01v-.01h-.01l-.01-.01h-.03v-.01h-.01v-.01l-.01-.01-.01-.01-.01-.01-.03-.03-.06-.04v-.01h-.01l-.01-.01-.02-.01-.01-.01h-.03l-.01-.01h-.01l-.06-.01h-.01l-.01-.01h-.01l-.01-.01h-.02l-.02-.01h-.01v-.01l-.02-.01-.08-.06-.04-.04h-.02v-.01l-.03-.02-.02-.01v.02l-.08-.04-.07-.05-.04-.02-.06-.03-.04-.01-.02-.01-.06-.02-.17-.07-.24-.11-.19-.1-.06-.03-.02-.01-.02-.01-.05-.03h-.01l-.03-.01v-.01l-.02-.01h-.01l-.02-.02h-.02l-.01-.01h-.01v-.01h-.02v-.01h-.01l-.01-.01h-.01l-.01-.01h-.01l-.01-.01h-.01v-.01h-.02v-.01h-.01l-.03-.02-.02-.01-.03-.02-.02-.01h-.01l-.01-.01h-.01l-.02-.02-.02-.01-.02-.01-.01-.01h-.01l-.01-.01-.02-.01-.01-.01h-.01v-.01l-.04-.01-.06-.04-.07-.05h-.01l-.02-.02h-.01l-.01-.01h-.01l-.03-.02-.06-.04h-.01l-.01-.01-.03-.02-.04-.02-.07-.04-.16-.1-.13-.06-.09-.06-.09-.05-.07-.04-.05-.03h-.01l-.03-.02-.08-.04-.05-.03h-.01l-.03-.02-.04-.02-.06-.03h-.01v-.02h.03l.01.01.03.01.01.01.02-.05v-.02l-.03-.01-.01-.01h-.01l-.01-.01h-.02l.01-.02.01-.01v-.02l.01-.02v-.01l.01-.02.01-.01.01-.03.02-.05.16-.34.14-.31h.01v-.02l.02-.02v-.02l.01-.02v-.01l.02-.01.03-.02v-.02l.01-.02.03.01h.07l.03-.01.01.01h.03l.01-.02.01-.01v-.04l.01-.01.05.02.02.01.28.04.03-.04.03-.08.01-.03.01-.01.01-.01.03-.06.01-.01.01-.02.02-.04v-.01l.04-.06.01-.03.02-.04.02-.03.03-.08.13-.09.04-.02.05.05v-.01l.02-.02.03-.02.01-.01.06.08-.02.02h.04l.04.02.01.01h.03l.17-.07.05-.03.11.05.16-.05-.17-.23.03-.01.1-.05-.07-.01v-.09l.05-.08h.03l.01-.03v-.01h.03l.02-.01.02-.01.02-.01.02-.01.01-.03.04-.04.01-.01.03-.03-.02-.02-.06-.07-.04-.09.01-.03v-.1l.01-.02-.05-.14.05-.06-.08-.06-.02-.04.02-.04.01-.04-.04-.08-.06-.04-.15-.11-.02-.04-.02-.02-.01-.02v-.05l-.01-.02h-.01l-.02-.02-.03-.01-.05-.01-.13-.11-.13-.12-.18-.2-.1-.03.11-.37.02-.05-.16-.25v-.04l-.01-.06.04-.05.04-.21h.02l.02-.06.1-.02.02-.09-.02-.05.15-.02.04-.01.03.01v-.02l.01-.01-.01-.01.01-.01h.01l.01.01h.02v-.01h.01v.01l.01.01-.01.02.03.03h.08v-.03l.01-.03.01.01.01.01.04.01.02.03.03.02h.05l.01-.01.03-.02.02.01.01.03.04.02.02.05.13.1.07-.02v.02l.01.03.01.02.04.01h.11l.05.04.08.04.02.02.03.01h.01l.02-.01h.04l.05.01h.04l-.02.05v.03l.01.01.05.01h.03l.02.02.02.02.03-.02h.01l.01-.01.01.01.03.01.03-.01h.02l.05.01.03.01.04-.01v-.01l.03-.02h.07l.03.01.06-.01.02.03.02.02h.02l.02.03.15.09.03-.02.02.03.02.01v.02l.02.01.02.02.03.02.03.01h.02l.02-.01h.02l.02.01.02-.01.01.02v.02l.02.02v.01l.02.02v.02l.01.01v.01l.01.01h.01l.01-.01h.04l.02.01h.02l.03.01h.06l.02-.01.01-.01.02-.01.03-.01h.1l.03-.01.03.01h.06l.04-.01.03-.01h.03l.02.02.02.02.01.01.02.01.02.01h.03l.01-.01h.02l.13.04.04.03.03.04.01.01h.02l.01.02.02.01.02.03h.01l.01-.01v-.01l.07.05.11.09.01.01.14.09.18.08h.07Z"/>
  <path class="region1 dot-map" id="svg_colima_Colima" d="M375.39 341.36v.02h.04l.01-.01h.02l.01.01.01.01v.01h.01v.01l.01.02v.02l-.01.01v.01h-.01v.01h-.02l-.01.01H375.39l-.01.01h-.02v.02h.02l.01.01.01.01.01.01.01.01.01.01.01.01v.01l.01.01v.02l.01.01v.02h.01v.01l-.01.01.01.01v.04h-.01V341.78h.01v.03h.02v.01h.02l.04.01.02.01.01.01v.01l.01.01.01.01.01.01h.01l.02.03.02.01v.01l.01.01.01.01v.01l.01.02v.01l.01.02v.01l.01.02.01.01h.01l.03.03.01.01v.01l.01.02.01.02v.09l-.01.01v.03l-.01.01v.01l.01.01v.03l.01.01.01.01.01.01v.01l-.01.02v.05l-.01.01-.01.01v.01h-.01v.01l-.01.01h-.02l-.01.01h-.01l-.01.01h-.02l-.01.01-.01.01v.01l.01.01v.01l.01.01v.02l.01.02v.03l-.01.01v.08l-.01.01h-.01v.01l-.01.02h-.01l-.01.02h-.01l-.03.02-.01.01-.01.01-.01.01-.01.01h-.01v.01l-.01.01h-.01l-.01.01v.01l-.01.01v.02l-.01.05v.1l-.01.04-.01.01h-.01l-.01.01h-.01l-.01.01v.04l-.01.01v.03l-.01.02v.04l-.01.03v.02l-.01.01h-.01v.03l.01.01v.01h.01l.01.01.02.03.02.03v.02h.01v.02l-.01.01h-.03l-.01.01-.02.01-.01.01-.01.01v.01l-.01.01v.01l-.01.01-.01.01-.01.01-.01.01h-.01l-.01.02-.02.01-.01.01v.01l-.02.01-.01.01-.01.01v.02l-.01.01-.01.02v.01l-.01.01-.01.01v.02l-.01.01v.04h-.01v.01l-.01.02h-.01v.02l-.01.01v.04h.01v.01l.02.01.01.01h.01l.01.01h.01v.03l.01.01v.02l-.01.01v.04l-.01.02-.01.06v.05l.01.01v.02l.01.01h.01l.01.01.01.01.01.01h.01l.01.01.01.01.01.01.01.01-.01.01v.01l-.01.01v.01h-.01l-.01.02-.02.02-.01.01-.01.01-.01.01-.01.01-.01.01-.01.01h-.01v.02l-.01.02v.02l-.01.01v.05l-.01.01v.03l-.01.02h-.01v.03l-.01.01v.04h-.01V344.81l-.01.01-.01.01v.01h-.01v.02l.01.01.01.01h.02l.01.01h.01l.01.01h.01l.01-.01.01.01v.01l.01.01V345l-.01.01v.01l-.01.01-.01.01v.11l.01.01.01.01v.01h.02l.01.01.01.01h.02l.01.02.01.01h.01l.01.01.01.01v.01l.01.01v.01h.01v.01l.01.01v.01h.05l.02.01h.01l.01.01.01.01h.01l.01.01h.01l.01.01h.01l.01.01.02.01.01.01.01.01v.04l.01.02.01.01.01.01v.01l.01.02v.01l.01.01v.06h.01l.01.01H375.7l.01.01.01.02v.02l.01.01h.01l.02.02.01.01.01.01.01.01v.01l.01.02.01.01v.01l.01.03v.01l.01.01v.02l.01.02v.05l-.01.01v.02l-.01.01v.01l.01.01h.02l.01.01.01.01h.01l.01.01h.02v.01h.02l.01.01h.02l.01.01.01.01-.01.01v.05l.02.01.01.01.02.01.01.02v.03l-.01.01-.02.02-.01.01-.02.01-.01.01-.02.01-.02.01-.01.01-.01.03-.01.04v.09l-.01.05-.01.01-.04.01-.04.02-.01.01v.03l.01.01.02-.01.01.01.02.01v.01l.02.02.01.02.01.02.01.02.01.01.01.04.01.04.01.07v.01l.01.04.02.04.02.03v.05l-.02.04-.01.08-.01.06.01.03.01.04v.01l.01.03.01.02.02.01v.01l-.01.02-.01.01-.02.01v.02l-.01.01v.03l-.02.02-.01.01-.02.01-.01.02-.01.01-.02.01v.01l-.01.01v.02l.01.02.01.02.02.01.01.01h.01l.01.01h.01l.02.01h.02l.02-.01.01.01.01.01.01.02.01.01V347.72l.01.03-.01.04-.02.03-.01.02-.01.03h-.01l-.01.02-.02.01h-.03l-.03-.01-.02-.01-.02-.01-.02-.01-.01-.02-.02-.01-.02-.01h-.03l-.02-.01-.01-.01H375.66l-.03-.01-.02-.01-.03-.01-.01-.01-.02-.01h-.02l-.01.01v.03l.01.02.01.02.01.02.03.01H375.64l.01.01.01.01.01.01v.03l-.01.01-.01.02-.01.01v.01l-.01.02v.05l-.01.01v.03l-.01.02v.01h-.01v.02l-.02.01-.02.02-.02.01-.01.01-.02.01h-.03l-.01-.01-.01-.01-.01-.01v-.02l-.01-.02-.01-.01h-.08l-.01-.01h-.02l-.02-.01h-.05l-.02.01-.03.01-.01.01-.01.02v.03l.01.02.01.01.01.02.01.03.02.02.01.02.02.01h.02l.01.01.04.04.03.02.01.02v.01l.01.02.01.02-.01.02v.02l-.01.01-.02.01-.02.01h-.02l-.02.01-.03.01h-.01l-.01.01-.02.02-.01.01-.01.01v.03l-.01.01v.01l-.01.01-.01.02h-.01l-.02.01-.02.01-.01-.01-.02-.01h-.02l-.02-.01h-.03l-.04.01h-.06l-.02.01-.01.01-.01.02-.01.02V348.79l.01.02v.02l.02.04.04.06.02.03.02.03.01.01.01.01h.01v.02l.01.02-.02.01-.01.01-.01.02v.02h-.01v.03l-.01.01v.03l-.01.01-.01.01-.01.01v.01l-.02.01h-.01l-.02-.02-.02-.01h-.03l-.02-.01-.01-.02-.02-.02-.02-.01-.02-.02h-.08l-.02.01h-.02l-.01.01h-.05l-.03.01-.05.01h-.01l-.03.02v.01h-.01l-.02.01-.02.01-.03-.01h-.02l-.02-.01h-.05l-.01.01v.01l-.01.03v.02l-.01.03.01.03v.03l-.01.06v.04l-.01.01-.02.03-.03.02h-.08l-.03.01h-.02l-.02.01-.01.01h-.01l-.01.01v.08l-.01.03v.02l.01.05v.04l-.01.02-.02.02-.02.02-.03.02-.01.01V350.07l-.02.01h-.04l-.01-.02-.01-.01-.02-.01-.01-.01h-.01l-.01-.02V350l-.02-.02h-.02l-.03-.02-.02.01.04-.03.03-.05v-.03l-.05-.1-.01-.05-.02-.03-.01-.02-.03-.04h-.01l-.03-.04-.04-.01-.04-.15-.04-.09h-.01l-.02-.06-.14-.02.17-.07.02-.05.02-.02.04-.07-.01-.09.04-.03.13.01-.04-.1.02-.16.02-.02-.12-.02-.08.05-.04-.18.05-.15-.01-.11-.05-.07.05-.07-.04-.04.01-.02.03-.2v-.04l.02-.08v-.04l.01-.03.01-.07.02-.17-.15-.08-.02-.01.06-.03.02-.08v-.07l-.01-.03-.03-.13-.01-.01-.01-.05-.01-.01-.03-.07-.01-.04.03-.08-.09-.04-.05-.03-.13-.07-.04-.07-.03-.06-.07-.09-.01-.08.02-.02-.09-.14-.11-.04-.11.04h-.05l-.12-.02h-.03l-.01-.01h-.02l-.06.02-.02-.01v.02h-.05l-.03.01-.28.16v.03l-.01.08h-.01v.02H372v-.04l-.01-.01h-.02l-.01-.01.01-.01v-.03h-.01v-.03h.02l.01-.01-.01-.02v-.04l.01-.03v-.04h.01V346.02l.01-.01v-.02l.01-.01.01-.01v-.08l.01-.03v-.06h.02l.02-.01v-.04h.02v-.04l.03-.08-.02-.03.01-.02.02-.04h-.03l-.01-.03-.01-.09h-.05l-.03-.01-.23-.04-.03-.01v-.1l-.05-.02h-.01l-.21-.08-.1-.04-.04-.02-.04-.01-.04-.01-.03-.02-.08-.04h-.01l-.02-.02.03-.05-.91-.34h-.02l-.01.02v.01l.01.01v.04l-.01.01-.01.01v.01l-.01.01V344.79h.01v.01l-.01.01v.01l-.01.01h-.02v.01h-.01l-.01.01-.01.01v.02h.01v.01l-.01.01v.02l-.01.01-.01.01-.01.01v.01l-.01.01h-.01v.01l-.01.01h-.03v.01l-.02.01-.01.03v.04l.02.04.01.02.03.07-.05-.02-.03-.01-.03-.01h-.03l-.01-.01-.03-.01-.03-.01-.03-.01-.04-.01-.02-.01-.06-.02-.03-.01-.01.03-.02.04-.01.03-.21.04.01.01v.04h-.02v.01h-.01l.01.02h-.02v-.01h-.02l-.01-.01-.01-.01-.01-.01h.01l.01-.01v-.01h.01l.01-.02V345.1l-.01-.02v-.03l-.01-.02-.35.03-.01.02-.01.01-.03.03-.03-.01-.11-.06-.05-.03V345h.02l.01-.01.01-.01-.01-.01v-.01l.01-.01.01-.01.01-.01.01-.02v-.03l.01-.02-.29.01.01-.07.03-.13.01-.07-.09-.1-.12-.14-.17-.2-.33-.27-.16-.12-.22-.36.02-.03.43-.22.03-.01.03-.02.03-.03.11-.08.03.04h.02v.01l.02.01.01.01.08-.13.01-.03.01-.02.01-.02.06-.12.04-.07.04.02.03.02.12.06V342.58l-.05-.18.01-.18.01-.17.05-.11.01-.22v-.02l.01-.02v-.01l.01-.01v-.01h-.01l-.01-.01v-.01h-.01l-.01-.01-.01.01-.01.01v.01h-.02l-.01-.01-.01-.01v-.01h-.01v-.01l.01-.01.01-.01v-.03h.01l.01-.01.02-.02.01-.02v-.02l-.01-.01.01-.02v-.03h.01l.01-.01.05.01v.01h.01v-.01l.01.01h.01l-.02-.01.02-.01v-.01h.01l.01-.02.01-.01.01-.01.01-.01.01-.04.01-.04h-.02v-.01h-.02v-.01l-.01-.12h-.01v-.01l.02-.04.01-.02h.01l.01-.02-.05-.01h-.03l-.02-.01h-.01v-.01l-.01-.01V341h-.01v-.01h-.02l-.04-.02h-.01l-.01-.01-.02-.01h-.01l.06-.02.02-.01h.01l.01-.01.06-.02h.02l.03-.01v-.01h.03l.02-.01.03-.01h.01v-.01h.05l.01-.01h.05l.01-.01.01-.01h.02l.01-.01h.02l.05-.02v-.01h.01l.04-.02h.01l.01-.01h.01l.02-.01h.02v.01h.12l.01-.01h.01v-.01h.02l.03-.02h.01l.01-.01h.02l.02-.01h.13l.01-.01v-.01h-.01v-.01h.01v-.01l.01-.01v-.01l.01-.01h.01v-.01l.01-.01h.01v-.01h.01v-.02h.01v-.04h.01v-.03l.01-.01v-.02h.01l.01-.01v-.02l.01-.01v-.02l.01-.01v-.01h.02v.01h.01l.02.01.04.01.03.01v-.02l.01-.01v-.02h.02l.03-.01v-.09l.03.01h.02l.01.01h.01l.03.01.01.01h.01l.02.01h.03v-.01l.01-.02.01-.02.01-.03.01-.03.01-.01v-.02l.01-.02v-.02l-.01-.03.01-.02v-.02h.01l.01-.01v-.03l.01-.01.01-.01V340l.01-.02.01-.01.01-.01.01-.01.01-.01.02-.01h.02v.01h.01v-.02l-.01-.01.01-.01v-.01h-.02l-.03-.02-.05-.03.01-.01.01-.01v-.01l.01-.02.01-.01v-.01l.01-.01.02.01h.01l.02.02h.02v-.01l.01-.02.01-.01-.01-.01h.01v-.01l.06-.09v-.02h-.01v-.01l.02-.03.01-.02.01-.03.01-.04.01-.02.02-.06.09-.04.1-.08.05-.08v-.01l.03-.03.03-.04.08-.09.13-.11.04-.01.03-.01.03-.07.02-.1v-.02h.04l.01-.01.02-.01.01-.01.01-.01-.01-.01h.01v-.01l.01-.01.01-.01.01-.01h.01l.06.02.04.02.06.01.06.02.03.01h.01l.09.03.04.02h.02l.04.05-.01.03-.01.05.02.03.01.01-.01.02-.01.01-.01.01H371.58l-.01.01.01.01v.01l.02.01h.01v.01l.01.01v.01l-.01.01v.01l-.01.02-.02.03-.01.01-.02.01-.01.01-.01.02-.01.01-.02.01-.01.02-.01.01v.01l-.02.04-.02.04-.02.02v.03h.01l-.01.01v.03l.01.02v.08l-.01.01v.01l-.01.01-.02.06-.01.01v.02h-.01v.01l-.01.02v.01l-.01.02-.01.02-.02.02v.01l-.01.02-.01.01h-.01l-.04.02-.01.01-.01.01-.01.02-.03.09-.01.01-.01.01-.05.03-.01.01-.02.02-.01.02-.03.02-.01.01v.01l-.02.01-.02.02.04.04.06.04.05.03v.01h.01l.07-.06v-.01l.07-.04.05-.02v-.01l.04-.02.08.05h.01l.01-.01.03-.05.06.02H371.64l.01.03.04.12.01.03v.02l.01.01v.02l-.01.01v.01l-.01.01h-.01l-.01.01v.01l-.01.02v.02l-.01.01.01.01.08.02-.03.03-.08.08-.09.08-.13.11-.06.05-.01.01h-.01l-.01.01v.02l.01.01.01.04v.03l.01.05-.02.01.01.01h.01l.02.01.05.02h.03l.04.02.02.01.04.01.02.01.05.01-.01.01h-.01l-.02.01.11-.03h.01l.09-.02.08-.01.01-.01.06-.01.01.03v.04h-.01l-.01.01v.01l.01.01v.03l.01.01v.01h.01v.01h.01l.01.01h.01v.02l-.01.01v.01l.01.01-.01.01v.01h-.02l-.01.01h-.01v.02l-.01.01v.04h.01v.02l.01.01v.01l.01.01-.01.01v.01h-.01l-.01-.01-.01-.01h-.02v-.01l-.01.01v.01l.01.01v.01h-.01l-.01.01v.03h.01l.01.01v.01h-.01l-.01.01h-.03v.01h-.01v.02h.01l.04.02.12.06h.01l.14.06.03.01.04.02-.08.09-.06.07-.03.03-.1.11.01.02v.02l.01.02.01.03h.01v-.01h.01l.01-.01V342h.02v.02l-.01.01v.01h-.01v.01h.07v.02l.01.01v.01h.03v-.01l.01-.01-.01-.01.01-.01h.02v-.01l-.01-.01v-.02h.02V342l-.01-.01-.01-.01v-.02h.02l.01-.01H372.24l.01-.01v-.02h.05v-.04l.01-.01.01-.01.01-.01v-.03h.01l.01-.01h.03l.01.01h.02v-.03l.01-.01v-.02h.02l.01.01h.02l.01-.01v-.01l.01-.01h.02v-.01h.01v-.03l.01-.01.01-.01h.01l.01-.01h.01l.01.01v.01h.01l.02.01.01-.02v-.04l.01-.01.01-.01.01-.01h.02l.01-.01h.02l.01-.01.01.01h.01l.01-.01.01-.01h.02l.01.01h.01l.01.01.01.01.01-.01v-.01h-.01v-.01l-.01-.01h.01v-.02h.05l.01-.01v-.01h.01l.02.01h.01l.01.01.01-.01v-.01l-.01-.01v-.03l.01-.01h.01l.01.01-.01.01v.02l.01.01.02-.01.01-.01.02-.01h.02l.02-.01.01-.01V341.42h.01v-.01h.01l.03.02h.03v-.05h.04l.01-.01V341.31l.01-.01h.02l.02.01.01-.01.01-.01-.01-.01.01-.01v-.01h.03l.01.01h.02l.02.01.02-.01h.02l.13-.07h.01l.02.01.02-.01.01-.01.01-.01.02-.01h.02l.01.01h.03l.01-.01.01-.02.01-.01.01-.01h.02l.01.01h.05l.02-.01.02-.02.02-.01.01-.02.02-.02.01-.01.08.07.03-.05.02.06.02.09.02.06v.01l.01.01v.01l.01.02v.02l.01.03v-.01.01h.03l.01.01.06.01.01-.01h.01l.14-.02h.12l.07.01h.03l.11.02.03-.01.03-.01h.03l.16.01.02-.01.06.02h.05l.02.01h.08l.03.01h.04l.02-.01.03-.01.01-.01.06-.02.04-.01h.02Z"/>
  <path class="region1 dot-map" id="svg_colima_Cuauhtémoc" d="M376.09 338.32v.02l-.01.01v.04l-.01.02-.01.02v.05l.01.02v.01l.01.02v.06h-.01l-.01.01-.01.01h-.01l-.01.01v.01l-.01.01h-.01l-.01.01v.02h-.01v.01l-.01.01h-.02v.01h-.04v.01h-.03v.02l-.01.01-.01.01h-.01v.02l-.01.01.01.01v.01l-.01.01h.02l.01.01h.01v.01h.01l.01.01h.01l.01.01h.01l.01.01.01.01.01.01.02.02.01.01V338.97l.01.01-.01.02v.01l-.01.01v.01h-.01v.01h-.01v.01h-.01v.01h-.01l-.01.01h-.01l-.01-.01h-.01l-.01-.01-.02-.03h-.01l-.01.01h-.02l-.01.01h-.04v.01h-.01l-.01.01h-.01v.01h-.01v.01h-.01v.04h.01v.01l.01.01v.02h-.01l-.01.01v.01l-.01.01v.03l-.01.01v.05l-.01.01H375.62l-.01.02-.01.01v.05h-.01l-.01.01h-.05l-.01.01-.01.01.01.01v.03h.02l.01.01h.01l.01.01.01.01v.05l.01.01v.01h-.02V339.64l.01.01v.01l-.01.01v.03l-.01.01v.04l.01.01V339.82l-.01.01v.01l-.01.01v.04l-.01.01h.01v.02l.01.01v.03h.01l-.01.02-.01.01v.02h-.01v.01l-.01.01v.03l-.01.01v.04h.04l.01.01.01.01-.01.01v.02h.01l-.01.02V340.24l-.01.01v.02l-.01.01v.04l-.01.01.01.01v.01h.01v.01l.02.02.01.01v.01l.01.01v.01l.01.01v.05l-.01.01v.01h-.01l-.01.01v.01l-.01.01-.01.01-.01.01v.01l-.01.01v.03l.01.01v.03h-.01v.02h-.01v.02l-.01.01-.01-.01-.01.01v.01l-.01.01h.01v.03l.01.01v.03h.01v.02l.01.01h.01l.01.01.01.01.01.01.01.01.01.01.01.01v.02l-.01.01h-.01v.02h-.01V340.98l-.01.01v.02h-.01v.03h.02l.01.01h.01v.02l-.01.01v.03l-.01.01-.01.01-.01.01-.01.01h-.01l-.01.01h-.02l-.01.01h-.01l-.01.01v.02h.01v.02l-.01.01v.02l-.01.01v.01h-.02v.01h-.01v.01h-.01v.01h-.01v.01h-.01v.01h-.01v.04h-.02l-.04.01-.06.02-.01.01-.03.01-.02.01h-.04l-.03-.01h-.08l-.02-.01h-.05l-.06-.02-.02.01-.16-.01h-.03l-.03.01-.03.01-.11-.02h-.03l-.07-.01H374.33l-.14.02h-.01l-.01.01-.06-.01-.01-.01h-.03v-.01.01l-.01-.03v-.02l-.01-.02v-.01l-.01-.01v-.01l-.02-.06-.02-.09-.02-.06-.03.05-.08-.07-.01.01-.02.02-.01.02-.02.01-.02.02-.02.01h-.05l-.01-.01h-.02l-.01.01-.01.01-.01.02-.01.01h-.03l-.01-.01h-.02l-.02.01-.01.01-.01.01-.02.01-.02-.01h-.01l-.13.07h-.02l-.02.01-.02-.01h-.02l-.01-.01h-.03v.01l-.01.01.01.01-.01.01-.01.01-.02-.01h-.02l-.01.01V341.37l-.01.01h-.04v.05h-.03l-.03-.02h-.01v.01h-.01v.06l-.01.01-.02.01H373l-.02.01-.01.01-.02.01-.01-.01v-.02l.01-.01-.01-.01h-.01l-.01.01v.03l.01.01v.01l-.01.01-.01-.01h-.01l-.02-.01h-.01v.01l-.01.01h-.05v.02h-.01l.01.01v.01h.01v.01l-.01.01-.01-.01-.01-.01h-.01l-.01-.01h-.02l-.01.01-.01.01h-.01l-.01-.01-.01.01h-.02l-.01.01h-.02l-.01.01-.01.01-.01.01v.04l-.01.02-.02-.01h-.01v-.01l-.01-.01h-.01l-.01.01h-.01l-.01.01-.01.01v.03h-.01v.01h-.02l-.01.01v.01l-.01.01h-.02l-.01-.01h-.02v.02l-.01.01v.03h-.02l-.01-.01h-.03l-.01.01h-.01v.03l-.01.01-.01.01-.01.01v.04h-.05v.02l-.01.01H372.18l-.01.01h-.02v.02l.01.01.01.01v.01h-.02v.02l.01.01v.01h-.02l-.01.01.01.01-.01.01v.01h-.03v-.01l-.01-.01v-.02h-.07v-.01h.01v-.01l.01-.01V342h-.02v.01l-.01.01H372v.01h-.01l-.01-.03-.01-.02v-.02l-.01-.02.1-.11.03-.03.06-.07.08-.09-.04-.02-.03-.01-.14-.06h-.01l-.12-.06-.04-.02h-.01v-.02h.01v-.01h.03l.01-.01h.01v-.01l-.01-.01h-.01v-.03l.01-.01h.01v-.01l-.01-.01v-.01l.01-.01v.01h.02l.01.01.01.01h.01v-.01l.01-.01-.01-.01v-.01l-.01-.01v-.02h-.01v-.04l.01-.01v-.02h.01l.01-.01h.02v-.01l.01-.01-.01-.01v-.01l.01-.01v-.02h-.01l-.01-.01h-.01v-.01h-.01v-.01l-.01-.01v-.03l-.01-.01v-.01l.01-.01h.01V341l-.01-.03-.06.01-.01.01-.08.01-.09.02h-.01l-.11.03.02-.01h.01l.01-.01-.05-.01-.02-.01-.04-.01-.02-.01-.04-.02h-.03l-.05-.02-.02-.01h-.01l-.01-.01.02-.01-.01-.05v-.03l-.01-.04-.01-.01v-.02l.01-.01h.01l.01-.01.06-.05.13-.11.09-.08.08-.08.03-.03-.08-.02-.01-.01.01-.01v-.02l.01-.02v-.01l.01-.01h.01l.01-.01v-.01l.01-.01v-.02l-.01-.01v-.02l-.01-.03-.04-.12-.01-.03H371.58l-.06-.02-.03.05-.01.01h-.01l-.08-.05-.04.02v.01l-.05.02-.07.04v.01l-.07.06h-.01v-.01l-.05-.03-.06-.04-.04-.04.02-.02.02-.01v-.01l.01-.01.03-.02.01-.02.02-.02.01-.01.05-.03.01-.01.01-.01.03-.09.01-.02.01-.01.01-.01.04-.02h.01l.01-.01.01-.02v-.01l.02-.02.01-.02.01-.02v-.01l.01-.02v-.01h.01v-.02l.01-.01.02-.06.01-.01v-.01l.01-.01v-.08l-.01-.02v-.03l.01-.01h-.01v-.03l.02-.02.02-.04.02-.04v-.01l.01-.01.01-.02.02-.01.01-.01.01-.02.01-.01.02-.01.01-.01.02-.03.01-.02v-.01l.01-.01v-.01l-.01-.01v-.01h-.01l-.02-.01v-.01l-.01-.01.01-.01H371.67l.01-.01.01-.01.01-.02-.01-.01-.02-.03.01-.05.01-.03-.04-.05h-.02l-.04-.02-.09-.03h-.01l-.03-.01-.06-.02-.06-.01-.04-.02-.06-.02h-.01l.03-.04.02-.06.05-.03-.01-.02.02-.02-.01-.01.01-.04v-.01l.01-.02.01-.03v-.03l.01-.01h-.08v-.01h-.02l-.01.01-.01.01-.01.03-.01.02.01.01h-.15l-.06-.02h-.01l-.08-.04.02-.05.03-.08.03-.05v-.06h.03l.03.03.03.02.07.03.08.04-.01-.02.01-.02v-.03l.03-.02v-.01l.01-.02.01-.01v-.01l.01-.01v-.01h.01v-.01l-.01-.01v-.01l.01-.01.01-.01.01-.01.01-.03.01-.02.01-.01v-.01l.03-.03.01-.02.01-.01-.02-.03-.02-.02-.03-.03-.01-.02v-.02l.01-.01.02-.02.02-.04-.03-.09h-.03l-.04-.05v-.05l.04-.07-.1-.03-.01-.02h-.01v-.05l.01-.01.01-.01.01-.01v-.01l.01-.01.01-.01.01-.01.01-.01.01-.01v-.02l.01-.01.01-.01v-.02l.01-.01.01-.01v-.01l.01-.01.01-.02v-.01l.01-.01.01-.01v-.04l-.01-.01V337h.01v-.01h.01l.01-.01.02-.02.03-.03v-.01.01l.01-.02v-.04l.06.06.05.05.05-.01.06-.05v.01h.01v.01h.01l.01.01h.01v-.01h.01v.01l.01.01h.01v.01l.01.01h.01v.01h.01l-.01.01v.01l.01.01h.01v.03h.01l.01.01.01.01v.01l.01.01.01.01v-.02l.01-.01v-.05l-.01-.01h.02v-.02l.01-.01v-.03h.02l.01-.01v-.02h.02v-.04h.01v-.01l.01-.01h-.01v-.02l-.02-.03-.02-.03v-.01l-.02-.04.01-.05h.01l.05-.03.06-.03.01-.04v-.02l-.01-.01.04-.02-.01-.03-.01-.03-.02-.05-.01-.01h-.03v-.02l-.01-.02.01-.06.01-.01v-.05l.01-.02V336.17l.02-.02.01-.04-.01-.03.02-.01v-.03h-.05l-.06.01-.09-.03h-.18l-.07-.02h-.05l-.04-.01-.08-.01-.03-.02.03-.08v-.07l.01-.07-.01-.04-.06-.03v-.05l.1-.01v-.02l.02-.1.04-.09-.04-.06.03-.15.05-.02.16-.04v-.05h.16l.17-.09.03-.01h.01l.07-.02-.08-.12.19-.1.03.02.02.08-.01.08-.01.05.03.08.02-.03.01-.03v-.04l.08-.06.03-.02.02-.01.04-.22h.04l.02-.05.34-.07v.01l-.01.01v.02l.01.01v.04h-.01v.03h-.01v.02l-.01.01v.02h-.01v.01l-.01.01v.01l.02.01v.01l-.01.01v.03l-.01.02v.01h-.01l-.01.01v.05l.01.01h.01l.01.01v.01l.01.01.01.01v.04l.01.01h.01v.01h.01v.01l.01.01h.07l.01.01v.02l.01.02v.02l.01.01v.02l.01.01h.04l.01.01h.03l.01.01.01.01h.01l.01.01v.01l.01.01.02.01v.01l.01.02h.01l.01.01v.02l-.01.01.01.01h.01v.04h.01l.01.01v.01h.01v.03h.01v.01h.03v.02h.01v.01h.02v.01l.01.01h.02v.01l.01.01.01.01v.01h.01v.02l.01.01.01.01h.01l.01.01.01.02v.02l.01.01h.01l.02.02.01.01v.01l.01.02.01.01h.01l.02.01.01.01.01.01.01.01v.03l.01.02-.01.01v.04l.01.01.02.01h.01l.01.01v.01l.02.02h.01v.01h.05l.01.01h.03l.01.01v.01l.01.01v.01h-.01v.01h.01v.03l.01.04v.01h.01v.02l-.01.01v.08l-.01.01v.02h.01l.01.01v.04h.01l.01.01v.01l.01.03.03.03v.01l-.01.02h-.01v.01l-.01.01v.01l-.01.02v.03l.01.01.01.01h.03l.02.01v.08l.01.01.01.01.01.01.01.01.01.01h.01l.01.01h.01v.03h.01v.01l.01-.01h.01l.01.01v.02l.01.01.01.01H374.07l.01-.01h.04v-.03l.01-.01h.01l.01.01.01.01h.02l.01-.01h.02v-.01h.01l.01-.01.01-.01h.03v.02l-.01.01.01.01h.02l.01.01h.03v.01l.01.01v.03l.01.01h.02v.01l-.01.02v.01l.01.01v.01l.01.01.01.01h.04l.01.01-.01.01v.03h.01v.01h.05l.01.01.01.01.01.01h.01v.02l.01.01h.02l.01.01.01.01.01.01v.01l.01.01h.03v.01l.01.01.01-.01.01.01v.05h.01l-.01.01.01.01v.01h.02v.01h.04v.04h.02l.01-.01v.01h.02v.01l.01.01v.01l-.01.01h.01v.01h.01v.03h.01l.01.01v.02l-.01.01v.02l.01.01v.02h.01v.03l.01-.01h.01v.01l.01.01v-.01h.01v.01l-.01.01h-.01.01v.01l.01-.01h.03v-.01h.01v.03h.01v.01h.02v.02h.02v.01h-.01.01l.01.01v.01h.03v.03l.01.01v.01h.01l.01.01v.02h.02v.02h.02v.03h.01v.04h.01v.01l-.01.01.01.01h.04v.01h-.01v.04l.01.01h.01l.01.01v.04h.01v.03l-.01.01v.01l-.01.01.01.01h.01l-.01.01v.01l.01.01-.01.01v.02l.01.01h.02v.03h.02l.01-.01h.03v.05h.01v.01h.01l.01-.01.01-.01h.01l.01-.01h.02v.01l-.01.01h-.02v.01l-.01.01v.01h-.01l.01.01.01.01.02-.01h.03l.01.01h.01v.02l-.01.01.01.01v.02h.05l.01.01h.04v.01l.01-.01h.01l.01.02h.02l.01.01v.02h.01l.01-.01h.03l.01.01v.01l.01.01h.03l.02.01v.01l.01.01.01.01v.01h.01v.02l.01.01.01.01h.01l.01.01h.02l.01.01h.02l.01-.01h.01v-.01l.01-.01v-.01l.01-.01-.01-.01.01-.01h.01l.01.01h.01l.01-.01h.03v.01h.02v.01h.03v-.01h.01l.01.01v.01h.01v.01h-.01v.01h-.01v.02h.03v.02h.01l.01.01h.01l.01.01v.04h.01v-.01h.01l.01.01v.01h.01l.01.01h.01v.01l.01.01v.03h.01v.01h.01Z"/>
  <path class="region1 dot-map" id="svg_colima_Ixtlahuacán" d="M373.7 349.97h-.03l-.02.02-.02.03.01.02v.07l-.01.02-.01.06v.02l-.02.02h-.05l-.01-.01-.01-.01-.02-.02v-.03l-.01-.03-.02-.01v-.02l.01-.03.01-.03v-.01l.01-.01.02-.04-.01-.01-.01-.01-.01-.02-.02-.01-.01-.01-.01-.01h-.01l-.02-.02-.01-.02-.02-.01-.01-.02h-.01l-.03-.04-.01-.01-.01-.01v-.01l-.01-.01h-.01l-.01-.01h-.01l-.01.01v.01l-.02.02-.01.01-.02.01-.03.02h-.03l-.01-.01-.02-.01-.03-.01-.01-.01h-.01l-.01-.01-.01-.02-.01-.02-.01-.02-.02-.04-.01-.01-.02-.02-.02-.02-.03-.02-.04-.02-.03-.02-.03-.01-.02-.01h-.04l-.03-.01h-.01v-.01h-.03l-.01.01-.01.01-.02.01-.01.02-.01.03-.02.02-.02.01h-.01l-.02.01h-.03l-.01-.01-.01.01-.02.02v.01l-.01.01-.05.04-.02.03-.01.02-.01.03v.05l-.01.02-.01.02-.02.01-.02.03h-.01l-.01.02v.01h-.01l-.01.03-.03.03-.02.03-.02.02-.02.02-.01.01-.01.02-.01.01v.05l.01.01.01.01.01.01.02.02.02.01.01.02v.01l.01.02.02.02.01.02.02.03.02.02.03.01.04.02.03.02.04.03.03.02.04.03.04.03.02.03.01.02.02.02.02.02.01.02.02.01.02.04.02.01.01.02.01.02.02.04v.01l.01.03v.02l-.01.01-.01.01v.01l-.01.01-.01.01h-.02l-.02.02-.01.01-.02.02-.02.03-.03.03-.02.02-.02.02-.01.02-.03.02.01.03-.01.02.01.01v.01l.02.02.01.03-.03-.01-.46-.27-.15-.09-.03-.1-.05-.02.03-.08-.16-.1-.26-.14-.06.1-.01-.01h-.01l-.09-.05-.08-.03-.21-.08-.18-.11.07-.15.06-.13v-.01h.01l.02-.04.01-.04.02-.04-.03-.01-.03-.02-.06-.01h-.01v.01l-.04-.01-.01.02-.04-.01-.01.02-.04-.04.02-.02-.04-.03h-.01l-.17-.11.06-.04-.04-.01-.05-.02-.05-.01-.06-.02v-.17h-.1l-.01-.01-.01-.01h-.01l-.02-.01h-.07l-.03.01-.07-.1-.13-.18-.04.01h-.01v.03l.01.01v.01l.01.01.01.02v.02l.01.01.02.03v.04l.01.03-.01.01-.03-.07-.01-.04-.05.01-.06.06-.04.07-.05-.04-.03.05-.03.02-.02.01-.01-.03.08-.06-.03-.03v-.05l-.01-.06-.02-.09V348.93l-.01-.01h-.04v-.01.01h-.07l-.01.04-.04.13-.02.04-.48-.04H369l-.04-.01.01-.06.02-.03.03-.03.07-.13-.08-.04-.04.05-.01.03-.02.01-.02.01-.04.01v.06l-.03.01-.05-.01-.02-.05.12-.11.02-.04.14-.13.03-.04.09-.1.16-.19.07-.07-.28-.1-.07.21-.28-.06v-.01l.03-.02.02-.02.02-.01.04-.03.05-.05-.1-.06h-.01l-.03-.01-.21-.12.14-.5.02-.05-.01-.01h-.01l.01-.14-.07-.38v-.03h.27v-.05l-.02-.37v-.04l-.01-.01v-.06l-.01-.01-.01-.01.1-.13-.03-.06-.01-.01-.01-.05v-.01l-.02-.05-.02-.03v-.03l-.01-.04v-.04l.02-.05v-.02l.01-.02v-.06l-.01-.05-.01-.02v-.02l-.02-.03v-.04l-.01-.02-.01-.02-.02-.03v-.02l.01-.03-.01-.04-.01-.04.05-.11.01-.02.02-.02.06-.06.03-.03.01-.01.01-.02.35-.03.01.02v.03l.01.02V345.22l-.01.02h-.01v.01l-.01.01h-.01l.01.01.01.01.01.01h.02v.01h.02l-.01-.02h.01v-.01h.02v-.04l-.01-.01.21-.04.01-.03.02-.04.01-.03.03.01.06.02.02.01.04.01.03.01.03.01.03.01.01.01h.03l.03.01.03.01.05.02-.03-.07-.01-.02-.02-.04v-.04l.01-.03.02-.01v-.01h.03l.01-.01v-.01h.01l.01-.01v-.01l.01-.01.01-.01.01-.01v-.02l.01-.01v-.01h-.01v-.02l.01-.01.01-.01h.01v-.01h.02l.01-.01v-.01l.01-.01v-.01h-.01V344.73l.01-.01v-.01l.01-.01.01-.01v-.04l-.01-.01v-.01l.01-.02h.02l.91.34-.03.05.02.02h.01l.08.04.03.02.04.01.04.01.04.02.1.04.21.08h.01l.05.02v.1l.03.01.23.04.03.01h.05l.01.09.01.03h.03l-.02.04-.01.02.02.03-.03.08v.04h-.02v.04l-.02.01h-.02v.06l-.01.03v.08l-.01.01-.01.01v.02l-.01.01v.13h-.01v.04l-.01.03v.04l.01.02-.01.01h-.02v.03h.01v.03l-.01.01.01.01h.02l.01.01v.04h.02v-.02h.01l.01-.08v-.03l.28-.16.03-.01h.05v-.02l.02.01.06-.02h.02l.01.01h.03l.12.02h.05l.11-.04.11.04.09.14-.02.02.01.08.07.09.03.06.04.07.13.07.05.03.09.04-.03.08.01.04.03.07.01.01.01.05.01.01.03.13.01.03v.07l-.02.08-.06.03.02.01.15.08-.02.17-.01.07-.01.03v.04l-.02.08v.04l-.03.2-.01.02.04.04-.05.07.05.07.01.11-.05.15.04.18.08-.05.12.02-.02.02-.02.16.04.1-.13-.01-.04.03.01.09-.04.07-.02.02-.02.05-.17.07.14.02.02.06h.01l.04.09.04.15.04.01.03.04h.01l.03.04.01.02.02.03.01.05.05.1v.03l-.03.05-.04.03Z"/>
  <path class="region1 dot-map" id="svg_colima_Manzanillo" d="M159.84 347.05v.01h-.02v-.01l-.01-.01h-.01l-.01-.01v-.02h.02v.01h.01v.01h.01l.01.01v.01Zm191.05-2.85v.01h.01v.01h.02v.01l-.01.01h.01v.01h-.02v.01h-.03l.01.01v.01l-.01-.01v.01h-.01v.01h-.01v-.01h-.01v-.01h-.01v-.01h-.01.02l-.01-.01h.01v-.01l-.01-.01h-.01v-.01l.01-.01v-.01H350.89Zm6.62-4.97-.01.01-.01.02-.08.02v.05h.05l-.01-.01.16.03.11.04.11.04.12.05.1.03.04-.05.02.01.04.01.05.02.05.02h.01l.08.03h.01l.03.02.04.01.19.04.05.01.03.01.08.05.05.03.01.02-.01.01-.03.1h.01l.14.05h.03v.01l.09.02.08.02.05.01h.01l.05.02.05.02.13.05.06.01v.01l.07.01.04.01.1-.03h.03l.01.01h.04l.11.01.11.01.05.01.11.01-.05.09-.02.05-.04.08.1.04.02.01.06.02.04.01.04.01.17.05.16.04.16.04.43-.04.02.03.06.04.01.02h.02l.04.02.03.02v.02l.13.23-.27.29-.06.06-.3.07-.02.02-.13.01-.04.05-.2.02v.1l.07.04.05.05.02.01.04-.01.04.01.03.02h.01l.05.03.02-.01.01.01v.02l.01.02h.03l.03.05-.02.06-.06.02.03.03.03.02.08.08.02.01.02.02.01.01.08.07.04.04.13.11.02.02.18.15.09.08.13-.06.05.06-.03.02.19.18v.03l-.09.07-.15.05-.14.12v.06l.07.02.02.05-.02.09-.1.02-.02.06h-.02l-.04.21-.04.05.01.06v.04l.16.25-.02.05-.11.37.1.03.18.2.13.12.13.11.05.01.03.01.02.02h.01l.01.02v.05l.01.02.02.02.02.04.15.11.06.04.04.08-.01.04-.02.04.02.04.08.06-.05.06.05.14-.01.02v.1l-.01.03.04.09.06.07.02.02-.03.03-.01.01-.04.04-.01.03-.02.01-.02.01-.02.01-.02.01h-.03v.01l-.01.03h-.03l-.05.08v.09l.07.01-.1.05-.03.01.17.23-.16.05-.11-.05-.05.03-.17.07h-.03l-.01-.01-.04-.02h-.04l.02-.02-.06-.08-.01.01-.03.02-.02.02v.01l-.05-.05-.04.02-.13.09-.03.08-.02.03-.02.04-.01.03-.04.06v.01l-.02.04-.01.02-.01.01-.03.06-.01.01-.01.01-.01.03-.03.08-.03.04-.28-.04-.02-.01-.05-.02-.01.01v.04l-.01.01-.01.02h-.03l-.01-.01-.03.01h-.07l-.03-.01-.01.02v.02l-.03.02-.02.01v.01l-.01.02v.02l-.02.02v.02h-.01l-.14.31-.16.34-.02.05-.01.03-.01.01-.01.02v.01l-.01.02v.02l-.01.01-.01.02h.02l.01.01h.01l.01.01.03.01v.02l-.02.05-.01-.01-.03-.01-.01-.01h-.03v.02l-.03-.02h-.01l-.01-.01-.04-.02-.07-.03-.06-.03h-.02l-.01-.01-.01-.01h-.02v-.01h-.02l-.02-.01-.02-.01-.03-.01-.01-.01-.02-.01-.02-.01-.17-.07-.2-.08-.24-.12-.16-.06-.12-.04-.13-.07-.15-.05h-.02l-.01-.01h-.01l-.01-.01h-.01l-.01-.01h-.01l-.02-.01-.02-.01h-.02v-.01h-.02l-.03-.01v-.01l-.08-.02-.04-.02-.02-.01-.1-.04-.17-.06-.22-.08-.05-.02-.03-.01-.04-.01v-.01h-.02l-.03-.02h-.02l-.01-.01-.03-.01h-.03l-.03-.02-.04-.01-.04-.02h-.01l-.01-.01h-.02l-.01-.01h-.02l-.02-.01h-.02l-.03-.02h-.01l-.03-.01-.06-.02h-.01l-.02-.01-.03-.01-.04-.01-.01-.01h-.02l-.04-.02h-.02l-.02-.01h-.01l-.02-.01h-.01l-.01-.01h-.01l-.02-.01h-.04l-.03-.01h-.02l-.02-.01h-.03v.02l-.01.03h-.01v.01h-.01v-.02l.01-.01.01-.02v-.01l.01-.02v-.01l-.02-.01h-.02l-.01.01v.02h-.01l-.03-.01h-.01l.01-.01-.03-.02v.01l-.01.01-.01.03v.01h-.02l.01-.01v-.01l.01-.01v-.01l.01-.01-.01-.01v-.01l-.02-.01h-.01l-.02-.01-.01-.02h-.01l-.02-.01-.02-.01h-.01l-.03-.02-.04-.01-.01-.01h-.02l-.04-.02h-.01l-.03-.01-.01-.01-.03-.01-.03-.01-.04-.02-.03-.01-.06-.02-.02-.01-.02-.01h-.01l-.03-.01-.05-.02-.06-.02-.08-.03-.06-.02h-.03l-.01-.01-.03-.01h-.02l-.03-.01-.03-.01-.04-.01-.02-.01-.02-.01h-.02l-.02-.01h-.02l-.02-.01h-.02l-.02-.01h-.02l-.02-.01h-.01l-.02-.01h-.02l-.03-.01h-.01l-.01-.01h-.05l-.02-.01-.03.01-.02-.02h-.06l-.04-.01h-.04l-.02-.01H354.87l-.01-.01h-.01l-.01.01v.03l-.01.01v.01h-.01v-.01h-.01v.01h-.01v.01l-.01-.01v.01h-.02v-.03h-.01v-.01l-.01-.01v-.01l-.01-.01-.02-.01h-.01v.01h.01l-.01.01-.01-.01h-.01v-.01h.01v-.01h-.01v-.01h-.01v-.01h-.01l-.01-.01v-.01h.01v.01h.01v-.03l.01-.01v-.01h.01-.01v-.01h.01v-.04l.01-.01h-.01v-.03h-.01l.01-.01v-.01h-.01l-.01-.01h-.01l-.01-.01h.01v-.01h.01l.01.01v-.01h.02v-.01.01l-.01-.01v.01-.01h.01v.01-.01h.01v-.01h.01v-.01l-.01.01v-.01h.03-.01v-.01h-.02v-.01h.02v-.02h.01l-.01-.01V346h-.02v-.01h.01-.01v-.01h.01v.01-.02h.01-.01.01v-.01h-.01.01l-.01-.01h.04v-.01l.01.01v-.01h.01v-.01l.01-.01v-.01l-.01-.01.01-.01v-.04h-.01v-.02.01-.01.01h-.01v-.01h.02l-.01-.01.01-.01h-.01v-.01l-.01-.01v-.01h.01v-.05h-.02v-.01h.01v-.05h.02l.01.01v-.01l.01-.01v-.01l.01-.02v-.03h-.01v-.02h.01v-.02h-.01v-.02l.01.01v-.01h.02v-.01h-.01.02-.01.03v-.01h.01v-.01h.02v-.01h.02l.01-.01.01-.01.01-.01h.01l.01-.01h.01v-.01h.01v-.01h-.01.01-.01l.01-.01h.01v.01h.02v-.01l.01-.01v-.01h.01v-.01h.01v-.01.01h.01v-.01.01h.02v-.01l.01-.01.01-.01v-.01h.01v-.01h.02l.01-.01.01-.01h.01l.01-.01.01-.01h.01v-.01h.02l-.01.01h-.01l-.01.01-.02.01v.01h-.01l-.01.01h-.01.01v.01-.01.01l.01-.01v.01l-.02.01v-.01h.01l-.01-.01-.01.01-.01.01v.01l-.01.01v.02h.01l.01.01h.01v-.01h.01v-.01h.01v-.01h.02-.01v.01h-.02l.01.01v-.01.01h-.01v.01-.01h-.01l-.01.02v.01h.02-.02v.02h.03l.01.01h.03-.01.01l.01-.03v-.02l.02-.01.01-.01.02-.02.02-.02v.01l-.02.01-.02.02-.01.01-.01.01v.01h.01l-.01.05h.03v-.02h.01v.01h-.01.01v.01-.01.01l.01.01v-.01l.01.01h.02v-.01h.01l-.01-.01.01.01v-.01h.02l.01-.01v.01l.01-.01.01-.02h.01l.01-.01v-.01h.01v-.01l.01.01h.02l-.01-.01h.01v-.01h.01l.01-.01.01-.01h.01l.01-.01v-.03.01l-.01-.01v-.01l-.01-.02v-.01l-.01-.01v-.01h.03l.01-.01h.01v-.02l.01-.02v-.11l-.01-.04v-.01l-.01-.01v-.03l-.01-.03-.01-.03v-.01l-.02-.04-.02-.05-.02-.04-.01-.01-.01-.02-.01-.02-.01-.02-.01-.01-.01-.02-.03-.03v-.01l-.02-.03-.02-.02-.01-.01v-.01h-.01l-.02-.03-.02-.02-.03-.03-.02-.02-.02-.02-.05-.03-.02-.02-.03-.02-.06-.04-.02-.01-.03-.02-.04-.02-.02-.01-.04-.02-.05-.02-.02-.01-.02-.01-.02-.01-.03-.01-.03-.01h-.01l-.04-.01-.03-.01h-.03v.02h-.02.01l-.01-.01h-.01v.01l-.01.01h-.01l-.01-.02v-.01h-.02l-.02.01-.02.01-.01.01v.01h-.01l-.01.01h.01-.01v.01h-.01v.02l.01.01h.01l.02.01h.01v.01l-.01-.01h-.03v.01l.01.02h.04v-.01l.01-.01v.02h.01v.01h-.02l-.01.01h-.03l-.01.01-.01-.01h-.02v.01l-.01.01-.01.01-.01.01v.03h.01v.02l-.01.01h-.01v.01h.01-.01l.01.01v.01h-.01v.01-.01l.01.01h-.01v.01h-.02v.03h-.02v-.01H354.23l-.01-.01v.01h.01v.01h-.01l-.01-.01-.01-.01h.01v-.01l.01.01v-.01h-.01l-.01-.01h-.01v-.01l.01-.01v-.01l.01-.01v-.01h.01-.01v-.02h-.03v-.01h.01v-.01l-.01-.01v.01l-.01-.01h-.01v-.02l.01-.01h.03v-.01l.01-.01.01-.01.01-.01h.02v-.03h.03l.01-.01h.01v-.02h-.01v-.01h.01v-.01l.01-.01h.01v-.04l-.01-.01-.01-.01-.02-.01h-.01v.01h-.02v.01l-.01.01v.01-.01l-.01.01h-.01v-.01h-.01v-.02h-.01v-.01h.02l.01-.01h.02v-.02h.01v-.01h.01l.01-.02.01-.01-.01-.01h-.02v-.01h.01v-.01l.01.01v.01l.01-.01.01-.01v-.01l-.01-.01v-.02l-.02-.02h.01v-.01h-.01l-.01-.01-.01-.02-.01-.01-.01-.01-.01-.01-.04-.02-.04-.02-.07-.02-.05-.02-.05-.02h-.04l-.01-.01h-.04l-.03-.01h-.07l-.02-.01h-.12l-.06.01h-.03l-.02.01h-.06l-.02.01-.03.01h-.03l-.04.02-.03.01-.03.01-.03.02-.02.01-.03.02-.02.02h-.01v.01l-.02.01-.02.03-.01.01-.02.03-.01.01v.02l-.01.02v.02l-.01.01.01.01v.03l.01.01v.01h.02-.02l.01.01h.01l.01.01v.02h.01l.01.01h.02l.01.01h.02l.01.01h.01v-.01l.02.02.02.01v.02h.01v.01l.01.01-.01.01.01.01.02.02v.01l.01.02v.02l-.01.01h-.02l-.01.01-.01.01v.01h-.01l.01.01h-.01v.02-.01.01h.01v.01h-.01v.01l-.01.01h.02v.02-.01h-.01v-.01h-.01v.01h-.01l-.02.01h-.01l-.01.01-.01.01-.01.01.01.01v.02l.01.01h.01v.01h-.04v.01h.01v.02h.02v.01h-.01v-.01.02l-.01.01v.01h.01-.01v.01h-.01l-.01-.02v-.03l-.01-.01v-.01l-.01-.01v.01h-.01v.01l-.01-.01-.01.01v-.01h.01v-.01h.01v-.01l-.01-.01.01-.01h-.01v-.01h-.02v.01h-.01v-.03l.01-.01V344.49h-.01v-.01h-.01l-.02-.01-.01-.01v-.01l-.01-.01h-.01v-.01h-.01.01l-.01-.01.01-.01-.01-.02h-.02v-.01h-.01l-.01.01-.01.01-.01-.01v-.02l-.01-.01v-.03l.01-.02v-.01h-.01v-.01.01h-.01l-.01-.01v.01h-.01l-.01.01v-.02h-.02v.01h-.01v-.02l.01-.01h.02l-.01-.01h.01v-.01l-.01-.01h-.04v-.02h-.01l-.01-.01h-.01l-.01.01v.01h-.01.01l-.01-.01h-.01v-.03h-.01l.01-.01v-.02h-.04v.01h-.02v.01h-.04v-.01h-.05l-.02.01h-.01v.01l-.01.01v.02l-.01.01-.01.01v.01h-.01v.01l-.01.01v.02l-.01.01-.01-.01v.01h-.07v.01h.01v.01h-.01v.05l-.01.01v-.01h-.02l-.01.01h-.01v-.01l-.01.01h-.01v.02l-.01.01v.01h-.01l-.01.01h-.01l.01.01v.01h-.01l-.01.01v.01l.01.02v.01h.01v.01l-.01.01h-.02v-.01h.01v-.02h.01-.01v.01h-.01v.01-.01h-.02l-.01.01v.01h-.01v-.03l-.01.01-.01.01v-.03h-.01v.01h-.01l-.01-.01-.01-.01v-.02h-.02l-.01.01v.01h.01l-.01.01h-.01v-.02l.01-.01-.01-.01h-.01v.01l-.01-.02v-.04l-.01-.01-.04-.02h-.01v-.01h-.02l-.01.01-.01.01-.01.03h-.01v.05l.01.01v.01l.01.01.01.01v.01h-.01l.01.01h.01v.01h.01v.01h.01v.01h.01v.01h-.01.02l-.01.01v.01l-.01.01-.01.01h-.02v-.01.01l.01.01.01.01.01.01-.01.01-.01.01v.01h.01v.01l-.02.02h.03l-.01-.01.01-.01.02.01-.01.02h-.03v.01h-.01v-.01.01h.01v.02l.01.01h-.01v.01l-.01-.01h-.01v-.01h.02-.01v-.01h-.01l-.01-.01h-.02l-.01.01-.01.01h-.01v.01h.01l-.01.01-.01-.01v.01H352l-.01-.01h.01v-.01h.01l-.01-.01v-.05h-.02v-.01h.01l-.01-.01v-.01l-.01.01v-.01h-.03v-.01h.01v-.01l-.01-.02v-.01h-.02v-.01h.01v-.01h-.01v-.01l.01-.01h-.03v-.01l-.01.01h-.01v.03h-.01l-.01-.01h.01v-.01h-.03v-.01h.01v-.01h.04l.02-.01-.01-.01v-.02h-.01v-.01h-.01v-.01h-.01l-.01-.01-.01-.01-.01.01-.01.01h-.02v-.02h.02v-.04h.01v-.03h.01v-.04h-.01v-.01l-.01-.01-.01-.01v-.01h-.02l-.01-.01v.01h-.01l-.01.01h-.02l-.01-.01h-.01v-.01h.02v-.01.01h.03v-.01h.01l-.01-.01h-.02v-.01h.01v.01-.01h.01l.01-.01h.01v-.01h-.01l.01-.01v-.01h-.01l-.02.01v-.01h-.01v-.01.01l.01-.01v.02l.01-.01h.01-.01v-.01h-.01.01-.01v-.01h-.01.02-.01v-.01h.01v-.01.01-.01h-.01l-.02-.01v-.01h.03v-.02l-.01-.01v-.01l-.01-.02h-.01l-.02-.01v-.01h-.02l-.02-.01h-.02v-.01h-.01v.01h-.01v.01h-.01l-.01.01v-.02h.01l-.01-.01v.01h-.03v-.01h.01v-.02h-.02v-.01l-.01.01h-.01l-.01.01h-.01.01v.01h-.01v-.01h-.01l-.01-.01h.01-.02v-.01h-.01l-.01-.01-.01.01h-.01v.01h.02l-.01.01-.01-.01h-.02v-.01h.01v-.01h-.02l-.01.01h-.01v-.01h-.02v.01h-.01v.02h-.01l-.01.01v.01h-.02l-.01-.01h-.01v-.01l-.01-.01h.01v-.02l-.02.01v-.01h-.03v-.01h.01l-.01-.01h-.01l-.01-.01h-.01l-.01-.01v-.01h.01v-.01h.01-.01v-.02l-.01-.01h-.01l-.01-.01-.02-.02-.03-.01-.02-.02-.03-.01-.04-.02-.04-.03-.04-.01-.02-.01-.01-.01-.03-.01-.01-.01-.01-.01-.02-.01h-.01l-.05-.02-.05-.02-.02-.01h-.04l-.04-.02h-.02l-.02-.01h-.02l-.05-.02h-.04v-.01l-.11-.03-.19-.05-.12-.04-.04-.01-.05-.01-.07-.02-.08-.02-.1-.02-.15-.04-.19-.05-.25-.06-.09-.03-.16-.04-.07-.01-.15-.04-.15-.02-.1-.02-.07-.01h-.07l-.13-.01-.04-.01-.07-.01-.07-.02-.06-.01-.06-.01-.09-.03-.12-.04-.13-.05-.06-.01-.04-.02-.08-.03-.09-.03-.05-.02-.05-.02-.06-.02-.05-.02-.07-.02-.07-.03h-.01l-.05-.02-.06-.02-.06-.02-.05-.02h-.02l-.01-.01h-.02l-.01-.01h-.01l-.04-.01-.01-.01h-.03l-.02-.01-.01-.01-.06-.02-.05-.01-.04-.01-.02-.01-.02-.01h-.03l-.02-.01-.03-.01h-.02l-.01-.01h-.02l-.04-.01-.01-.01h-.01l-.03-.01h-.01l-.02-.01h-.02l-.02-.01h-.03l-.01-.01H346l-.01-.01h-.04v-.01l-.05-.01-.05-.01h-.09v.01h-.03l.01.01h-.01v-.01l.01-.01h.01v-.03h-.01v-.01l.01-.02v-.02l.01-.04.01-.05h.01v-.01h.01v-.01h.02v-.01h.01v.01l.01.01h.01v-.01h.03v.01l.01.01v.02l-.01.01v.01h.06l.01-.01.01-.01.02-.01v-.03h.01l.01-.01v-.01l-.01-.01-.02-.02-.02-.01-.01-.01v-.01h.02l.01-.01v-.01h-.02l-.01-.01h-.01l-.01-.01v-.02h.01v-.01l.08-.06-.01.01.01.01v.01h.01v.01l-.01.01h.01v.01h.01v.01h.02v.03l.01.01.01.01v.01l.01.01v.02l.01.01.02.01h.01v.01h.01l.01.01v-.01l.01.01v-.01H346.2v.01h.01l.01-.01h.03l.01.01h.02l.01.01h.02v.01h.01v.01h.02l.01.01h.03v.01h.03l.01.01H346.48l.01.01v-.01h.01l.01.01h.03l.01-.01H346.65l.01.01h.02l.01.01.01.01.01.01h.01l.02.01h.02l.01.01h.02l.01.01.02.01h.01l.02.01h.01l.01.01h.01l.02.01h.01l.03.01.02.01.02.01.02.01.06.02.03.01h.01l.02.01.02.01h.03l.01.01h.03v.01l.01.01.02.01h.01l.01-.01h.01v.02h.01l.01-.01.01-.02h.01v-.01l-.01-.01v-.01h.03l.02-.01V342.35h.01l.01-.01h.02l.01-.01h.01l.01-.01v-.01l.01-.01H347.49l.02-.01h.01l.01-.01h.01l.01.01v.01l.01.01-.01.01v.01h.02l.01.01.02.01h.01v.03l.01.01v.05l.01.01v.02l-.01.02v.04l-.01.01-.01.01h-.01l-.02.01-.01.01-.01.01-.01.01-.01.01.01.01.01.01.02.01.01.01.01.01.01.02-.01.02v.02l.01.01v.03l.02.01.01.01h.08l.01.01.01.01v.02l-.01.02-.02.02v.01l-.01.01-.01.02v.02l.01.01.02.01h.02l.03.01h.01l.01-.01h.03l.01.01.03.02.03.02.03.02.02.01h.02l.03.01.04-.01h.08l.02.02.02.01.05.01.05.01h.03l.02-.02.03-.03.02-.04.01-.03v-.12l.01-.03.01-.02v-.02l-.02-.01-.02-.01h-.01l-.01-.01h-.04l-.01.01-.02.01-.01.01h-.03l-.02-.01-.01-.02-.01-.01h-.04l-.01-.01v-.01l-.01-.01v-.02l.01-.02v-.01l.01-.04v-.05l-.01-.03-.01-.02-.01-.02-.01-.02-.02-.02-.01-.02-.02-.02-.02-.02v-.02l-.01-.01.01-.01.01-.02.03-.03.01-.01.02-.02.01-.02.02-.02.01-.01.01-.01.01-.01.02-.01.02-.01.02-.01.02-.01h.09l.02.01.02.02.01.01.01.02v.01l.01.04.01.01v.04l.01.02v.02l.02.01.02.01h.05l.02-.01.03-.01.02-.01.02-.02.02-.01.01-.02.01-.02.01-.03.02-.04.01-.01v-.06l.01-.03v-.05l-.01-.02-.01-.01v-.04l.02-.02.01-.02.02-.01.05-.03.03-.02.02-.03.02-.02.01-.03.01-.02v-.06l-.01-.01v-.01l-.01-.01-.01-.01-.01-.01h-.01l-.01-.01v-.02l.01-.02v-.06l-.01-.02-.01-.01v-.02l-.01-.02v-.06l.01-.01.01-.02.01-.02v-.04l.01-.02h.01l.01-.01h.04l.01.01h.01v.01l.02.01.01.01h.05l.01-.01h.01l.01-.01.01-.01h.01l.01-.01v-.01l.01-.01.01-.01v-.04h-.01v-.01h-.01v-.02l-.01-.01v-.09l.01-.01v-.01l.01-.02v-.01h.01v-.01l.02-.01.01-.01.02-.01v-.02h.01v-.01l.01-.02.01-.02.01-.01.01-.02.01-.02v-.02h.01v-.01l.03-.02.02-.02.02-.02.02-.02.01-.02.01-.01v-.01l.02-.01.01-.01h.01v-.02h.02l.03-.01.02-.01.03-.01.01-.01v-.01l.01-.01.02-.01.02-.01.01-.01.02-.02.02-.01.02-.02.02-.02.02-.01.02-.02.02-.02.02-.03.01-.03.01-.02.02-.06v-.02l.02-.01.05-.02.02-.01.02-.01.05-.01.04-.01h.03l.02.01.02.01.02.01.02.04.03.04.02.03.02.03.04.04.03.04.01.01.02.03.02.03.01.01.03.01.04.03.01.01.01.01.01.02.01.01h.06l.02-.02.01-.01.01-.03v-.01l.04-.04v-.01l.01-.01v-.03l.02-.02.01-.02.02-.01.03-.02.02-.01.03-.01.02-.01h.04l.03.02.04.02.01.03.02.02.02.02.01.01.01.01.01.01.02.01.01.02.01.02-.01.04-.01.03-.01.03v.01l-.01.03.01.02v.11l-.01.06-.01.03.03.06v.01l.02.01.02.01.04-.01.05-.02.03-.02.02-.02.03-.04.02-.04.02-.04.02-.03.02-.02h.01l.03.01.01.01h.01l.02.01.01.03.01.02v.03l.01.04v.09h.01l.01.01h.03l.02-.01.01-.01.02-.01.03-.01.01-.01h.04l.01.01.02.01.01-.01.01-.02.01-.02.02-.02v-.1l-.01-.02v-.01l-.02-.01-.01-.02v-.02l-.02-.01-.02-.01-.01-.03-.01-.03v-.02l-.01-.02.01-.01.02-.02.02-.01.02-.01.02-.01.02-.01.01.01.02.01.03.02h.01l.02-.01.03-.02.01-.02h.05v-.02l-.01-.02-.02-.02-.01-.02-.02-.01-.01-.03-.01-.02-.01-.01h-.01v-.04l.01-.02v-.02l.01-.02.01-.01.01-.02.02-.01.01-.01.02-.01h.01l.01.01h.06l.02.01h.01l.01.01h.08l.01-.01v-.01l.01-.01h.03l.03-.01h.02l.01-.01h.02l.01-.01h.02l.01-.01.01-.01.01-.01.01-.01h.01l.01.01h.02l.01-.01v-.04l.01-.01.01-.01.01-.02v-.05l.01-.01.02-.02v-.04l-.01-.01v-.02l-.01-.01v-.02l-.01-.01-.01-.02-.01-.01-.02-.01v-.01l-.02-.02-.01-.01v-.01l.01-.01.01-.01.01-.01h.01l.01-.01.01-.01H352.32l.01-.01.02-.01h.02l.02-.01h.01l.02-.01h.01v-.01l.01-.01.01-.01h.03v.01l.01.01.01.01.01.01.02.01.01.01h.02v-.01h.05l.01-.01.01-.01.01-.01h.02l.01-.01.01-.01h.02l.01-.01.01-.01.01-.01v-.04l.01-.01h.01l.02-.01.01-.01h.1l.01-.01h.02l.01-.01h.02l.01-.01.01-.01.01-.01.02-.01h.02l.01-.01.01-.01h.03l.02.01v.01l.01.01.01.01.01.01.01.01v.02l-.01.03-.01.02-.01.01-.02.01-.01.02-.01.02-.02.01v.02l-.01.01-.01.02v.01l-.01.01h-.01l.01.01v.03h.02v.02l-.01.02-.01.02v.01l-.01.01h-.01V340l.01.01v.01l.01.01.01.01-.01.03v.01l.01.01v.01h.01v.01l.01.01.01-.01h.02l.01-.02.01-.01.01-.02v-.01l.02-.01.01-.01.02-.01h.01l.01-.01.01-.01h.07l.01-.01h.11l.02.01h.01l.01-.01.02-.01h.03l.01-.01.02-.01v-.01l.01-.01.01-.01.01-.02.01-.02.02-.01.01-.01.01-.02.02-.02.01-.01.02-.01.01-.01.01-.01.02-.02.01-.01.01-.01h.02l.01-.02h.02l.01.01h.01l.02.01.01.01.01.01.01.01h.02l.01.01.03.01.01.01.01.01h.02l.02.02h.01l.01.01.02.02.01.01.01.01.01.01v.01l.01.01v.02l-.01.03-.01.03-.01.01v.02l-.01.01.01.01h.02l.02.01h.02l.01-.01h.03l.02-.01.01-.01.01-.01h.02v-.01l.02-.03.01-.01.02-.01.02-.02v-.03l.02-.01v-.01l.02-.03.02-.04.01-.01.01-.02.01-.02.03-.02.01-.01.01-.01.02-.02.03-.04.01-.01.01-.01.01-.02.01-.01.01-.02h.01l.01-.02.01-.01v-.02l.01-.01h.01l.02-.01h.04l.02.02h.06l.03.01.02.01.01.02.01.01.01.01.02.01.01-.01h.02l.02-.01v-.01h.03l.02.01v.01l.03.02h.01l.03.02.02.01.02.01.01.01.02.01.01.01.01.02v.01l.01.02v.01l.02.01h.02l.02-.01h.02l.01.01.01.01h.08l.01.01.02.01.02-.01h.02l.01-.01.01-.02v-.02l.01-.01.01-.01v-.01l.01-.01v-.02l.01-.02v-.11l.01-.01.01-.01.01-.01h.02l.02-.02.01-.01.01-.01.02-.02.02-.02.02-.01h.04l.02-.01.01-.01.02-.01.02-.01.01-.01.01-.02.01-.01.01-.01v-.04l.01-.03v-.02l.01-.02v-.01h.01l.01-.01.02-.01.02-.01h.07l.02.01.02.01.02.01.02.01.03.02.01.01.01.01h.01l.01.01.01.01v.01l-.01.02v.03h.01l.02.01h.02l.02-.01h.02l.02-.01.01-.01v-.05l-.01-.01v-.01l.01-.03h.01v-.01l.01-.01.02-.01h.01l.02-.01.01.01.01.01h.01v.02h.02v.01l.01.01h.01l.01.01h.04l.02-.01h.01l.02.01h.01l.01-.01h.01l.01-.01.02-.01h.02l.01-.01.01-.01.01-.01v-.02l.02-.02.01-.01h.01l.01-.01.02-.01.02-.01h.02l.01-.01.02-.01h.01l.01-.01.01-.01v-.03l.01-.02v-.05h.05l.02.01.02.01h.02l.01.01.01.01v.01h.02l.03-.01h.04l.02-.01h.01l.03-.01.01-.01.01-.01h.02l.02-.01h.04l.01.01.01.01.01.01.02.01.02.01v.02h.03l.01.01h.01l.02.01h.04l.02.01h.05l.01.01h.05v.01l.01.01.02.01.01.01v.01l.01.01.01.01h.01l.01.01H357.38v.01l.01.01.01.01.02.01.01.01.01.01.01.01h.06Zm-165.82-.83h.08l.01.01.03.01h.02l.02.01v.02l-.01.03.01.02-.01.02v.03l.01.01v.02l.01.02h.06l.01.01-.01.01-.01.02.01.01.01.01v.01l-.01.01-.02.01-.04.01.01.02v.01l-.02.02-.02.02v.08l-.01.02-.02.02v.02l-.02.01-.04.02-.03.01-.01.03V339.07l.01.01h.02l.03.01.02.01.01.02.01.03.01.01h.01l-.01.03-.01.01.01.01h-.02l.01.03h-.02l-.01.01-.02.02h-.02v.02l-.01.01-.02-.01v.01l-.01-.01-.01.01v.01l-.01-.01v-.01l-.01.01v.01h-.01v-.01l-.01.01h-.01l-.01.01v-.02l-.02.01v-.01l-.01-.02h-.02l-.02-.02-.02-.01h-.05l-.03.01.02.01v.01l-.02.01-.03.01-.02.01v.01h-.01l-.03-.01-.01-.02-.01-.01-.03-.01-.04-.02-.01-.01v-.01l-.01-.01.01-.02v-.03l-.01-.02-.01-.02v-.02l.02-.01.01-.02v-.02l.01-.02v-.02l.01-.01v-.03l.01-.01.02-.01-.01-.02v-.01l.01-.02h.03v-.02l.01-.01.01-.01.01-.01.01.01h.02l.04-.02.05-.03.03.01.01.01.05-.02.02-.02.03-.03v-.01l-.03-.01-.01-.01v-.02l.01-.01v-.02l-.03-.02-.01-.03.02.01.01-.01.02-.01.01-.03.01.01-.01.03.03.01.03-.02.01-.02v-.01l-.02-.01.01-.02h-.02v-.05l.02.01.01-.01-.01-.03v-.02l-.02-.03-.01-.02.01-.03.02.01Z"/>
</svg>
