<?xml version="1.0"?>
<svg xmlns="http://www.w3.org/2000/svg" version="1.2" baseProfile="tiny" width="800" height="665" viewBox="0 0 800 665" stroke-linecap="round" stroke-linejoin="round">
<g id="ohio-with-county-boundaries_1118">
<path d="M 317.64 183.71 317.83 187.61 318.01 237.51 302.8 237.69 292.78 237.51 282.03 237.69 282.03 240.47 260.69 240.47 256.98 240.47 256.98 237.69 246.41 237.69 246.6 216.17 242.89 216.17 243.07 200.04 250.12 200.04 250.12 192.06 253.64 191.87 254.02 183.9 260.69 183.9 277.57 183.71 317.64 183.71 Z" id="39175"/>
<path d="M 261.62 89.67 261.25 121.76 260.69 135.3 260.51 151.44 239.36 151.62 207.27 151.25 175.18 151.25 174.62 118.79 174.81 104.88 177.59 105.06 190.76 100.43 194.47 96.53 198.55 95.23 201.71 92.82 205.6 91.15 206.71 89.85 207.27 85.96 208.94 83.36 216.17 80.39 219.33 78.17 225.63 75.75 226.56 74.09 232.87 67.96 261.44 67.41 261.62 89.67 Z" id="39173"/>
<path d="M 89.48 92.26 89.67 103.02 46.63 103.21 3.6 103.39 3.41 53.31 27.71 52.38 79.09 51.27 79.28 67.96 82.43 67.96 82.43 87.07 89.67 87.07 89.48 92.26 Z" id="39171"/>
<path d="M 581.97 184.45 589.39 184.64 589.39 198.37 589.39 231.2 589.21 244 500.72 244 500.54 223.59 500.17 183.9 560.45 184.64 581.97 184.45 Z" id="39169"/>
<path d="M 657.1 440.99 660.44 440.99 660.25 446.37 664.7 446 703.28 447.3 702.73 453.24 695.86 458.8 691.41 463.07 686.59 469.56 685.29 470.67 678.24 471.97 675.83 473.46 671.75 476.98 670.08 481.25 668.78 481.99 663.22 481.43 658.95 482.36 653.02 484.96 644.85 489.41 642.07 490.15 638.36 489.59 636.51 487.92 634.28 482.55 632.05 479.58 629.27 477.91 625.56 477.54 623.52 478.28 619.07 482.92 614.06 485.88 609.05 487.74 607.01 489.59 605.53 496.09 604.79 503.14 603.49 503.88 599.04 502.39 594.03 502.39 589.02 501.84 585.5 502.39 582.34 504.06 581.04 506.29 581.79 509.07 581.41 512.04 575.85 513.34 576.03 503.14 557.86 502.76 558.04 497.38 554.7 497.2 554.89 494.6 551.36 494.42 552.85 469.93 556.56 470.12 557.3 461.77 564.35 462.14 568.62 462.88 568.62 463.62 578.45 464 578.82 454.91 575.66 454.91 575.48 451.38 576.78 448.79 576.59 446 578.08 444.7 581.79 443.78 600.52 444.52 621.67 445.26 621.85 433.57 625.75 433.76 625.75 436.36 632.98 436.36 632.8 439.14 636.32 439.14 636.32 441.92 643.37 441.92 643.37 443.41 657.1 443.59 657.1 440.99 Z" id="39167"/>
<path d="M 157.37 447.86 156.07 460.66 151.81 506.1 104.88 503.32 104.51 499.98 91.15 499.05 87.63 499.24 89.11 482.36 90.59 469.75 90.04 468.82 91.52 451.94 86.51 452.5 85.4 451.94 85.21 443.96 98.94 444.15 131.96 446.19 157.37 447.86 Z" id="39165"/>
<path d="M 470.3 482.17 468.82 498.68 475.87 499.05 474.2 515.56 467.15 515.38 464.18 548.21 443.41 546.91 445.26 527.81 423.93 526.69 424.49 519.83 403.34 518.35 403.52 515.93 382.56 514.82 385.16 485.14 406.12 486.44 406.49 483.66 428.2 484.96 428.57 479.95 470.3 482.17 Z" id="39163"/>
<path d="M 79.09 184.27 79.28 200.41 89.85 200.22 89.85 208.57 90.04 216.55 79.28 216.55 79.46 240.85 68.52 240.85 68.52 232.87 25.3 232.87 4.34 232.87 4.15 196.88 4.15 184.45 25.49 184.45 79.09 184.27 Z" id="39161"/>
<path d="M 307.07 341.38 307.07 348.06 300.39 347.88 286.66 347.5 245.11 347.32 246.97 326.17 236.39 325.43 242.14 274.42 260.88 274.23 292.6 273.86 292.6 285.55 292.23 297.05 292.6 299.65 292.6 322.46 306.7 322.65 307.07 341.38 Z" id="39159"/>
<path d="M 659.51 287.4 658.58 311.52 647.64 311.33 646.89 328.21 594.03 326.91 595.33 299.65 577.52 299.09 578.08 285.36 585.5 285.18 586.79 250.49 589.21 250.12 622.97 246.41 624.45 244.56 627.97 245.11 628.53 246.78 650.79 246.97 649.86 262.73 660.62 263.1 659.88 272.75 659.51 287.4 Z" id="39157"/>
<path d="M 798.81 89.85 799 119.35 799 157.74 748.73 157.56 709.22 157.56 709.03 117.86 709.03 89.3 734.08 89.67 744.65 89.48 780.27 90.04 798.81 89.85 Z" id="39155"/>
<path d="M 636.69 184.45 632.43 184.45 631.68 199.85 589.39 198.37 589.39 184.64 581.97 184.45 582.53 131.03 605.34 130.85 606.27 130.48 601.82 123.98 600.52 120.64 600.52 117.31 636.88 117.68 636.88 145.69 636.69 170.17 636.69 184.45 Z" id="39153"/>
<path d="M 693.45 200.78 693.45 232.87 672.68 232.68 672.68 233.98 665.63 233.61 664.89 247.15 650.79 246.97 628.53 246.78 627.97 245.11 624.45 244.56 622.97 246.41 589.21 250.12 589.21 244 589.39 231.2 589.39 198.37 631.68 199.85 632.43 184.45 636.69 184.45 693.64 184.64 693.45 200.78 Z" id="39151"/>
<path d="M 150.51 317.08 148.84 333.78 112.48 331.74 112.48 330.81 89.67 331.37 72.97 331.37 72.6 302.06 72.6 297.79 90.22 297.61 90.22 278.69 152.74 278.32 152.74 295.38 152.18 295.57 152.36 309.66 151.44 309.11 150.51 317.08 Z" id="39149"/>
<path d="M 368.28 135.11 370.32 182.97 365.87 182.97 364.57 183.71 332.11 183.53 317.64 183.71 277.57 183.71 260.69 183.9 260.32 157 260.51 151.44 260.69 135.3 273.49 135.11 284.07 135.3 296.86 135.48 314.12 134.93 327.29 134.74 336.38 134.93 357.52 134.93 368.28 135.11 Z" id="39147"/>
<path d="M 372.92 632.98 368.65 630.57 366.98 628.9 365.5 625.38 364.76 617.21 364.38 615.36 361.23 610.72 362.9 603.67 361.79 600.89 358.45 599.04 349.55 601.26 344.91 603.86 342.87 604.42 336 603.49 331.92 605.53 329.7 609.05 327.84 610.35 319.87 613.32 317.83 614.62 316.16 617.03 314.3 620.92 310.03 623.89 302.24 624.63 299.65 624.45 295.38 622.59 292.78 622.41 288.89 624.63 288.89 579.19 288.33 550.44 293.15 550.44 294.64 551.18 295.57 553.59 298.91 555.07 298.72 558.04 299.28 560.82 308.55 561.2 330.62 561.38 357.15 562.12 374.4 563.05 384.42 563.61 383.12 580.3 403.52 581.41 401.86 597.37 401.11 600.15 395.18 599.78 393.88 610.72 392.95 613.32 382.38 612.76 382.01 619.44 386.83 628.16 372.92 632.98 Z" id="39145"/>
<path d="M 326.73 97.64 326.73 98.76 330.62 99.5 335.08 98.38 342.87 101.54 341.38 98.76 343.8 98.01 347.32 102.84 350.1 104.14 352.51 104.32 356.59 102.65 366.98 102.65 367.91 128.62 368.28 135.11 357.52 134.93 336.38 134.93 327.29 134.74 314.12 134.93 296.86 135.48 284.07 135.3 273.49 135.11 260.69 135.3 261.25 121.76 261.62 89.67 275.72 89.48 275.9 97.46 300.57 97.46 326.73 97.64 Z" id="39143"/>
<path d="M 386.64 466.59 385.16 485.14 382.56 514.82 381.82 522.43 378.3 522.06 339.53 520.02 283.51 517.05 272.94 516.86 274.98 510.18 274.61 507.22 271.45 508.33 268.11 506.85 268.3 504.62 265.7 503.32 267.93 501.65 268.86 499.43 266.81 493.49 268.86 488.85 268.11 487 269.41 483.47 289.07 457.69 320.42 458.99 341.94 459.36 342.31 462.33 339.53 462.88 338.97 464.37 371.25 465.85 386.64 466.59 Z" id="39141"/>
<path d="M 443.78 183.71 446.56 183.71 447.12 214.32 446.74 216.92 448.41 218.03 452.12 218.03 451.75 220.07 453.98 221.74 453.98 233.05 461.21 233.05 461.58 264.96 454.54 265.7 408.53 265.89 408.16 251.97 408.16 249.75 404.45 249.75 404.45 244.37 407.98 244.37 407.79 236.39 389.24 236.02 389.61 205.6 389.61 183.16 403.52 183.34 427.08 183.53 443.78 183.71 Z" id="39139"/>
<path d="M 175.18 151.25 175.37 197.07 154.03 197.25 154.03 200.04 132.7 200.22 132.7 208.2 100.05 208.38 89.85 208.57 89.85 200.22 79.28 200.41 79.09 184.27 89.67 184.08 89.67 151.81 110.81 151.62 175.18 151.25 Z" id="39137"/>
<path d="M 63.14 383.12 63.7 415.21 63.88 431.53 64.25 443.96 64.25 448.04 43.48 448.04 1.93 448.04 1.93 418.55 2.11 383.31 11.94 383.49 42.55 383.31 63.14 383.12 Z" id="39135"/>
<path d="M 636.88 117.68 654.31 118.05 709.03 117.86 709.22 157.56 709.22 184.64 693.64 184.64 636.69 184.45 636.69 170.17 636.88 145.69 636.88 117.68 Z" id="39133"/>
<path d="M 378.3 522.06 376.26 542.46 374.4 563.05 357.15 562.12 330.62 561.38 308.55 561.2 299.28 560.82 298.72 558.04 298.91 555.07 295.57 553.59 294.64 551.18 293.15 550.44 288.33 550.44 281.84 545.43 280.17 543.76 267 543.2 272.94 516.86 283.51 517.05 339.53 520.02 378.3 522.06 Z" id="39131"/>
<path d="M 371.25 405.94 368.84 433.02 369.39 433.02 367.72 449.34 388.5 450.45 386.64 466.59 371.25 465.85 338.97 464.37 339.53 462.88 342.31 462.33 341.94 459.36 320.42 458.99 289.07 457.69 291.67 424.49 293.34 402.6 304.28 403.34 331.55 403.9 371.25 405.94 Z" id="39129"/>
<path d="M 515.19 451.2 494.6 450.27 475.13 449.16 475.5 443.78 453.61 442.66 454.54 431.91 456.21 415.77 449.16 415.21 450.64 398.89 436.36 398.15 438.21 380.89 446.56 381.27 446.56 382.38 461.58 383.12 480.69 384.05 494.05 384.79 492.38 401.3 510.56 402.04 510 410.39 509.26 418.36 519.64 418.92 518.16 435.06 516.68 451.38 515.19 451.2 Z" id="39127"/>
<path d="M 89.67 151.81 89.67 184.08 79.09 184.27 25.49 184.45 4.15 184.45 3.78 135.48 25.3 135.67 68.15 135.3 68.33 143.46 89.67 143.65 89.67 151.81 Z" id="39125"/>
<path d="M 374.22 48.12 374.4 50.16 370.69 49.97 371.06 47.37 374.22 48.12 Z M 374.22 57.21 371.25 55.54 372.73 53.87 378.85 52.01 379.6 53.31 375.33 54.42 374.22 57.21 Z M 376.63 60.36 373.85 62.77 372.55 62.77 369.02 65.55 368.09 65.18 368.09 61.29 369.95 59.62 376.63 60.36 Z M 326.73 97.64 300.57 97.46 275.9 97.46 275.72 89.48 261.62 89.67 261.44 67.41 291.49 66.85 308.18 66.67 308.37 66.48 310.96 67.04 317.27 67.59 324.87 70.38 326.73 72.23 331.55 77.61 339.71 82.62 345.09 84.84 350.66 86.33 354.74 86.51 357.89 85.96 361.42 84.29 364.38 81.88 366.24 78.72 365.13 74.83 366.43 73.53 369.95 72.97 371.99 75.94 368.28 81.5 365.68 83.55 366.43 84.29 369.95 82.43 372.92 77.8 374.96 78.17 377.37 80.95 372.55 82.43 372.55 83.73 378.3 82.8 379.22 82.06 384.42 81.13 390.91 81.69 392.58 82.62 392.58 84.66 390.35 87.81 384.42 87.63 381.45 89.3 377.56 88.55 374.59 88.92 371.06 91.52 367.91 89.48 362.34 91.34 359.01 91.89 352.7 91.71 350.47 92.08 346.21 91.52 343.24 95.97 341.94 95.42 338.97 96.9 337.3 95.97 326.73 97.64 Z" fill-rule="evenodd" id="39123"/>
<path d="M 666.19 377 665.63 392.58 651.53 392.02 650.79 408.9 650.42 422.26 657.65 422.26 657.1 440.99 657.1 443.59 643.37 443.41 643.37 441.92 636.32 441.92 636.32 439.14 632.8 439.14 632.98 436.36 625.75 436.36 625.75 433.76 621.85 433.57 621.67 445.26 600.52 444.52 600.89 430.24 590.32 429.86 590.87 413.73 580.12 413.17 580.86 397.22 602 397.77 602.38 387.02 623.34 387.57 623.89 382.19 637.8 382.56 637.99 377.18 645.04 377.18 645.04 376.44 666.19 377 Z" id="39121"/>
<path d="M 580.86 397.22 580.12 413.17 540.98 411.5 510 410.39 510.56 402.04 492.38 401.3 494.05 384.79 480.69 384.05 481.06 377 487.18 377.18 489.22 336.93 506.85 337.67 524.1 338.23 557.11 338.97 576.59 339.71 574.37 380.52 581.41 380.71 580.86 397.22 Z" id="39119"/>
<path d="M 408.53 265.89 404.82 265.89 404.82 271.08 406.68 271.08 404.27 303.91 385.9 302.99 351.59 301.5 352.51 291.11 334.52 290.19 334.71 287.4 335.45 278.13 346.39 276.83 346.39 248.27 364.57 248.08 364.94 237.14 364.94 235.84 389.24 236.02 407.79 236.39 407.98 244.37 404.45 244.37 404.45 249.75 408.16 249.75 408.16 251.97 408.53 265.89 Z" id="39117"/>
<path d="M 600.52 444.52 581.79 443.78 578.08 444.7 576.59 446 576.78 448.79 575.48 451.38 575.66 454.91 578.82 454.91 578.45 464 568.62 463.62 568.62 462.88 564.35 462.14 557.3 461.77 556.56 470.12 552.85 469.93 535.78 469 517.79 468.45 513.52 467.89 515.19 451.2 516.68 451.38 518.16 435.06 519.64 418.92 509.26 418.36 510 410.39 540.98 411.5 580.12 413.17 590.87 413.73 590.32 429.86 600.89 430.24 600.52 444.52 Z" id="39115"/>
<path d="M 131.96 446.19 98.94 444.15 85.21 443.96 64.25 443.96 63.88 431.53 63.7 415.21 63.14 383.12 74.09 382.93 97.27 382.38 122.87 382.19 122.31 389.06 143.65 390.17 143.09 395.73 142.9 398.33 135.85 397.96 135.11 406.12 132.33 436.91 132.89 437.28 131.96 446.19 Z" id="39113"/>
<path d="M 702.73 453.24 703.28 447.3 664.7 446 660.25 446.37 660.44 440.99 657.1 440.99 657.65 422.26 650.42 422.26 650.79 408.9 651.53 392.02 665.63 392.58 683.99 392.77 686.03 393.14 706.44 393.88 711.63 394.44 742.98 395.73 741.68 397.96 742.61 401.86 742.42 403.71 740.57 406.31 734.82 410.02 734.08 411.32 735 413.91 737.97 416.51 741.31 420.59 739.83 423.19 735.38 425.04 734.63 427.64 734.82 430.42 733.52 435.99 731.11 438.58 729.25 439.14 724.06 438.95 720.16 440.62 712.19 446.19 705.14 451.75 702.73 453.24 Z" id="39111"/>
<path d="M 148.84 333.78 146.61 357.52 146.43 360.49 143.65 390.17 122.31 389.06 122.87 382.19 97.27 382.38 74.09 382.93 72.97 331.37 89.67 331.37 112.48 330.81 112.48 331.74 148.84 333.78 Z" id="39109"/>
<path d="M 4.34 232.87 25.3 232.87 68.52 232.87 68.52 240.85 68.71 265.33 68.71 301.5 72.6 302.06 61.29 302.06 41.81 302.43 41.81 302.62 7.12 302.43 3.6 302.43 3.97 261.81 4.34 232.87 Z" id="39107"/>
<path d="M 505.55 562.31 506.47 553.03 483.84 551.74 464.18 550.99 464.18 548.21 467.15 515.38 474.2 515.56 509.44 517.42 532.07 518.35 570.1 519.83 570.47 522.43 571.77 525.02 572.33 527.99 572.33 533 570.84 536.52 567.87 538.19 564.16 538.75 560.08 537.82 559.15 539.86 562.12 544.87 565.46 547.1 567.87 549.51 568.24 553.78 565.65 557.67 565.65 561.57 568.62 564.91 568.62 566.76 567.13 567.69 563.79 566.95 559.71 563.98 556.74 563.42 553.59 566.57 552.48 571.4 548.4 575.11 545.06 576.78 541.53 576.03 537.45 572.88 538.38 570.84 542.27 567.32 542.83 566.02 539.49 559.9 535.78 554.7 534.3 554.15 530.77 554.89 528.18 554.33 525.58 549.69 522.24 548.21 518.9 548.03 516.31 550.25 515.38 553.96 512.6 555.82 508.33 557.67 505.55 562.31 Z" id="39105"/>
<path d="M 582.53 131.03 581.97 184.45 560.45 184.64 500.17 183.9 491.82 183.9 492.38 170.54 492.56 157 510.37 157.19 510.56 145.32 528.92 145.32 529.29 131.4 546.73 131.4 563.98 131.22 582.53 131.03 Z" id="39103"/>
<path d="M 364.94 237.14 364.57 248.08 346.39 248.27 346.39 276.83 335.45 278.13 334.71 287.4 317.45 286.85 292.6 285.55 292.6 273.86 260.88 274.23 261.62 272.38 260.69 256.61 260.69 240.47 282.03 240.47 282.03 237.69 292.78 237.51 302.8 237.69 318.01 237.51 347.32 237.32 364.94 237.14 Z" id="39101"/>
<path d="M 799 200.96 742.61 200.78 742.61 195.4 728.88 195.4 728.7 200.78 693.45 200.78 693.64 184.64 709.22 184.64 709.22 157.56 748.73 157.56 799 157.74 799 200.96 Z" id="39099"/>
<path d="M 300.39 347.88 299.28 359.01 290 358.63 289.82 360.12 291.11 363.83 289.26 366.61 291.67 371.43 292.23 376.26 294.45 378.48 295.01 381.64 291.86 383.31 293.34 402.6 291.67 424.49 260.14 423 222.67 420.78 217.47 420.4 218.59 410.02 229.53 410.76 233.43 398.15 237.88 384.23 244 367.17 243.07 365.87 245.11 347.32 286.66 347.5 300.39 347.88 Z" id="39097"/>
<path d="M 308.37 66.48 308.18 66.67 291.49 66.85 261.44 67.41 232.87 67.96 226.56 74.09 225.63 75.75 219.33 78.17 216.17 80.39 208.94 83.36 207.27 85.96 206.71 89.85 205.6 91.15 201.71 92.82 198.55 95.23 194.47 96.53 190.76 100.43 177.59 105.06 174.81 104.88 174.81 92.08 174.99 67.78 175.74 62.96 174.25 49.04 193.91 48.49 248.82 46.45 250.12 47.56 253.09 46.26 254.57 47.56 251.42 49.79 256.43 52.01 258.84 53.87 264.4 53.87 269.04 54.61 272.56 54.61 275.72 53.31 277.2 51.27 284.81 56.09 294.08 60.91 296.49 62.4 295.94 63.88 299.28 63.7 305.21 65.92 308.37 66.48 Z" id="39095"/>
<path d="M 546.73 131.4 529.29 131.4 528.92 145.32 510.56 145.32 510.37 157.19 492.56 157 492.38 170.54 461.58 170.17 461.21 156.82 460.66 129.73 459.36 102.84 462.33 102.47 475.31 102.28 479.58 100.61 490.15 94.86 492.38 94.3 501.47 91.34 509.44 89.85 521.87 86.7 525.02 87.26 530.03 88.74 529.66 93.75 529.48 117.31 546.91 117.49 546.73 131.4 Z" id="39093"/>
<path d="M 175.37 267.93 176.29 269.41 242.14 273.31 242.14 274.42 236.39 325.43 192.99 322.46 193.17 319.68 156.26 317.64 150.51 317.08 151.44 309.11 152.36 309.66 152.18 295.57 152.74 295.38 152.74 278.32 154.4 278.32 154.22 268.67 169.43 268.67 175.37 267.93 Z" id="39091"/>
<path d="M 487.74 323.58 490.15 323.58 489.22 336.93 487.18 377.18 481.06 377 480.69 384.05 461.58 383.12 446.56 382.38 446.56 381.27 438.21 380.89 436.36 381.82 378.85 379.04 379.41 372.36 380.71 372.36 382.75 344.54 384.79 316.53 435.8 318.75 435.62 322.28 461.4 323.39 487.74 323.58 Z" id="39089"/>
<path d="M 417.25 582.34 415.95 594.21 434.32 595.7 433.76 601.08 437.47 601.45 436.54 612.39 458.43 613.5 456.95 630.2 471.23 630.57 469.93 632.61 469.56 638.55 468.26 641.33 467.52 646.89 465.11 654.5 462.88 656.35 455.83 657.84 452.68 658.21 448.97 657.47 443.78 659.14 433.02 661.55 425.78 663.96 419.11 663.96 416.32 663.03 414.1 661.18 412.98 658.77 411.87 653.57 409.65 650.79 403.15 647.82 398.89 643.74 394.99 638.36 389.8 635.39 379.22 635.21 372.92 632.98 386.83 628.16 382.01 619.44 382.38 612.76 392.95 613.32 393.88 610.72 395.18 599.78 401.11 600.15 401.86 597.37 403.52 581.41 417.25 582.34 Z" id="39087"/>
<path d="M 709.22 24.19 709.03 49.79 690.67 49.97 690.67 63.51 654.87 63.51 654.68 76.68 637.06 76.68 619.07 76.68 618.88 65.18 621.48 63.33 627.79 57.39 639.66 49.41 646.89 46.45 657.47 41.25 661.18 41.81 666.93 40.14 686.96 31.61 701.99 26.6 707.18 25.3 709.22 24.19 Z" id="39085"/>
<path d="M 489.78 283.14 489.04 300.02 487.74 323.58 461.4 323.39 435.62 322.28 435.8 318.75 384.79 316.53 385.9 302.99 404.27 303.91 406.68 271.08 404.82 271.08 404.82 265.89 408.53 265.89 454.54 265.7 461.58 264.96 483.29 262.55 490.89 261.62 489.78 283.14 Z" id="39083"/>
<path d="M 764.68 338.79 753 338.23 752.81 339.16 731.29 338.23 732.78 311.15 733.33 298.16 734.26 297.61 734.63 289.82 732.78 289.44 720.35 289.07 720.72 280.91 723.69 281.1 724.25 264.77 735 264.96 735.19 256.61 739.83 256.98 756.52 257.17 756.52 259.77 771.73 259.77 772.1 261.25 776 264.22 779.15 269.04 780.45 273.68 783.42 277.02 784.53 279.8 784.35 281.84 781.56 287.22 781.38 292.41 778.41 294.82 781.56 297.05 782.68 299.46 781.75 302.62 783.79 306.7 783.42 310.22 780.64 314.67 780.64 318.01 779.15 319.31 774.51 321.54 773.4 323.02 770.8 331.18 767.09 335.08 764.68 338.79 Z" id="39081"/>
<path d="M 443.41 546.91 442.48 557.86 439.7 582.34 417.62 580.67 417.25 582.34 403.52 581.41 383.12 580.3 384.42 563.61 374.4 563.05 376.26 542.46 378.3 522.06 381.82 522.43 382.56 514.82 403.52 515.93 403.34 518.35 424.49 519.83 423.93 526.69 445.26 527.81 443.41 546.91 Z" id="39079"/>
<path d="M 460.66 129.73 461.21 156.82 461.58 170.17 443.03 170.36 443.78 183.71 427.08 183.53 403.52 183.34 389.61 183.16 370.32 182.97 368.28 135.11 367.91 128.62 386.46 128.99 423.56 129.36 442.11 129.73 460.66 129.73 Z" id="39077"/>
<path d="M 578.08 285.36 543.76 284.81 508.33 283.69 507.4 283.88 489.78 283.14 490.89 261.62 483.29 262.55 483.1 244 500.72 244 589.21 244 589.21 250.12 586.79 250.49 585.5 285.18 578.08 285.36 Z" id="39075"/>
<path d="M 494.6 450.27 493.12 466.96 471.97 465.67 470.3 482.17 428.57 479.95 428.2 484.96 406.49 483.66 406.12 486.44 385.16 485.14 386.64 466.59 388.5 450.45 388.5 447.86 409.09 448.79 409.46 440.44 432.09 441.74 433.2 430.79 454.54 431.91 453.61 442.66 475.5 443.78 475.13 449.16 494.6 450.27 Z" id="39073"/>
<path d="M 272.94 516.86 267 543.2 243.63 546.54 225.08 550.07 213.76 549.69 208.38 549.51 187.05 549.69 177.03 549.51 177.78 527.06 177.96 507.59 183.9 507.77 183.53 512.04 188.16 512.04 191.32 508.51 192.8 504.8 214.88 491.45 228.97 483.1 269.41 483.47 268.11 487 268.86 488.85 266.81 493.49 268.86 499.43 267.93 501.65 265.7 503.32 268.3 504.62 268.11 506.85 271.45 508.33 274.61 507.22 274.98 510.18 272.94 516.86 Z" id="39071"/>
<path d="M 174.81 92.08 174.81 104.88 174.62 118.79 175.18 151.25 110.81 151.62 110.81 119.16 110.81 103.02 89.67 103.02 89.48 92.26 174.81 92.08 Z" id="39069"/>
<path d="M 720.35 289.07 732.78 289.44 734.63 289.82 734.26 297.61 733.33 298.16 732.78 311.15 731.29 338.23 711.26 337.67 689.56 336.75 688.82 336.19 667.67 335.82 667.67 336.38 646.52 336.19 646.89 328.21 647.64 311.33 658.58 311.52 659.51 287.4 670.27 287.96 670.64 287.4 691.04 287.96 693.82 288.52 720.35 289.07 Z" id="39067"/>
<path d="M 175.37 215.8 196.51 215.99 217.84 215.8 242.89 216.17 246.6 216.17 246.41 237.69 256.98 237.69 256.98 240.47 260.69 240.47 260.69 256.61 261.62 272.38 260.88 274.23 242.14 274.42 242.14 273.31 176.29 269.41 175.37 267.93 175.37 248.27 175.37 232.13 175.37 215.8 Z" id="39065"/>
<path d="M 260.51 151.44 260.32 157 260.69 183.9 254.02 183.9 253.64 191.87 250.12 192.06 250.12 200.04 243.07 200.04 242.89 216.17 217.84 215.8 196.51 215.99 175.37 215.8 175.37 197.07 175.18 151.25 207.27 151.25 239.36 151.62 260.51 151.44 Z" id="39063"/>
<path d="M 87.63 499.24 91.15 499.05 104.51 499.98 104.88 503.32 104.51 504.25 98.38 507.59 98.01 509.07 93.75 511.67 95.23 514.82 100.43 513.89 101.35 516.86 99.31 519.83 97.46 520.94 96.34 531.7 93.93 549.32 90.59 547.28 87.44 545.98 82.99 545.24 77.42 544.87 74.27 543.57 72.6 540.42 72.6 535.97 71.49 533 67.22 530.77 64.44 531.89 61.29 535.04 56.83 536.52 52.01 535.23 48.49 537.64 41.81 539.68 37.36 539.68 34.76 538.56 31.61 536.34 25.49 534.3 18.81 527.62 16.03 526.32 12.13 527.25 9.16 530.77 4.15 533 1.19 533.56 1 511.48 1.19 496.64 22.7 496.83 34.02 496.83 36.06 495.53 41.99 496.09 48.67 496.27 55.91 497.2 59.43 496.64 63.51 497.57 67.04 497.2 73.53 498.13 81.13 498.31 87.63 499.24 Z" id="39061"/>
<path d="M 667.67 336.38 666.19 377 645.04 376.44 645.04 377.18 637.99 377.18 637.8 382.56 623.89 382.19 623.34 387.57 602.38 387.02 602 397.77 580.86 397.22 581.41 380.71 574.37 380.52 576.59 339.71 585.31 339.71 585.68 326.73 594.03 326.91 646.89 328.21 646.52 336.19 667.67 336.38 Z" id="39059"/>
<path d="M 218.59 410.02 217.47 420.4 214.32 451.38 157.37 447.86 131.96 446.19 132.89 437.28 132.33 436.91 135.11 406.12 135.85 397.96 142.9 398.33 143.09 395.73 164.24 396.85 164.05 399.63 185.2 400.93 184.83 405.38 201.15 407.05 201.52 408.53 218.59 409.46 218.59 410.02 Z" id="39057"/>
<path d="M 709.03 89.3 709.03 117.86 654.31 118.05 636.88 117.68 636.88 103.58 640.03 103.58 639.85 99.68 637.06 99.87 637.06 76.68 654.68 76.68 654.87 63.51 690.67 63.51 690.67 49.97 709.03 49.79 709.03 89.3 Z" id="39055"/>
<path d="M 471.23 630.57 456.95 630.2 458.43 613.5 436.54 612.39 437.47 601.45 433.76 601.08 434.32 595.7 415.95 594.21 417.25 582.34 417.62 580.67 439.7 582.34 442.48 557.86 443.41 546.91 464.18 548.21 464.18 550.99 483.84 551.74 506.47 553.03 505.55 562.31 501.09 569.54 497.76 573.25 498.5 579.19 497.94 581.79 496.83 584.01 492.75 586.79 488.67 588.09 485.33 590.32 483.84 592.73 483.66 595.14 487.55 598.11 488.67 602.93 490.52 607.01 489.04 612.39 490.34 617.03 492.01 620.37 492.75 623.71 492.01 626.12 490.71 627.6 487.55 629.09 484.59 629.27 477.54 627.97 474.57 628.34 471.23 630.57 Z" id="39053"/>
<path d="M 174.81 92.08 89.48 92.26 89.67 87.07 82.43 87.07 82.43 67.96 79.28 67.96 79.09 51.27 127.14 50.34 153.11 49.6 174.25 49.04 175.74 62.96 174.99 67.78 174.81 92.08 Z" id="39051"/>
<path d="M 382.75 344.54 380.71 372.36 379.41 372.36 378.85 379.04 373.66 378.85 373.29 384.23 376.81 384.42 375.14 400.74 371.8 400.56 371.25 405.94 331.55 403.9 304.28 403.34 293.34 402.6 291.86 383.31 295.01 381.64 294.45 378.48 292.23 376.26 291.67 371.43 289.26 366.61 291.11 363.83 289.82 360.12 290 358.63 299.28 359.01 300.39 347.88 307.07 348.06 307.07 341.38 325.99 342.31 350.1 343.05 382.75 344.54 Z" id="39049"/>
<path d="M 269.41 483.47 228.97 483.1 231.76 452.31 214.32 451.38 217.47 420.4 222.67 420.78 260.14 423 291.67 424.49 289.07 457.69 269.41 483.47 Z" id="39047"/>
<path d="M 438.21 380.89 436.36 398.15 450.64 398.89 449.16 415.21 456.21 415.77 454.54 431.91 433.2 430.79 432.09 441.74 409.46 440.44 409.09 448.79 388.5 447.86 388.5 450.45 367.72 449.34 369.39 433.02 368.84 433.02 371.25 405.94 371.8 400.56 375.14 400.74 376.81 384.42 373.29 384.23 373.66 378.85 378.85 379.04 436.36 381.82 438.21 380.89 Z" id="39045"/>
<path d="M 395.36 68.15 398.7 68.71 398.7 70.75 395.55 73.34 388.13 70.19 390.35 67.22 392.58 66.48 395.36 68.15 Z M 459.36 102.84 460.66 129.73 442.11 129.73 423.56 129.36 386.46 128.99 367.91 128.62 366.98 102.65 356.59 102.65 360.86 100.24 364.94 100.43 369.76 98.01 370.88 96.9 371.06 94.3 374.59 94.68 378.85 96.53 381.82 99.5 384.05 99.68 388.5 99.31 393.69 96.9 396.48 98.2 399.26 98.38 403.71 99.68 404.64 102.28 410.39 103.39 406.31 100.8 403.34 98.01 399.44 95.6 397.59 93.38 397.77 91.89 403.15 96.72 408.72 100.43 414.28 104.51 421.33 107.85 427.82 110.63 431.35 111.56 437.1 111.18 440.99 109.89 456.02 103.58 459.36 102.84 Z" fill-rule="evenodd" id="39043"/>
<path d="M 385.9 302.99 384.79 316.53 382.75 344.54 350.1 343.05 325.99 342.31 307.07 341.38 306.7 322.65 292.6 322.46 292.6 299.65 292.23 297.05 292.6 285.55 317.45 286.85 334.71 287.4 334.52 290.19 352.51 291.11 351.59 301.5 385.9 302.99 Z" id="39041"/>
<path d="M 110.81 151.62 89.67 151.81 89.67 143.65 68.33 143.46 68.15 135.3 25.3 135.67 3.78 135.48 3.6 118.97 3.6 103.39 46.63 103.21 89.67 103.02 110.81 103.02 110.81 119.16 110.81 151.62 Z" id="39039"/>
<path d="M 72.6 302.06 72.97 331.37 74.09 382.93 63.14 383.12 42.55 383.31 11.94 383.49 2.11 383.31 2.3 366.8 2.67 344.54 3.23 335.63 3.6 302.43 7.12 302.43 41.81 302.62 41.81 302.43 61.29 302.06 72.6 302.06 Z" id="39037"/>
<path d="M 618.88 65.18 619.07 76.68 637.06 76.68 637.06 99.87 639.85 99.68 640.03 103.58 636.88 103.58 636.88 117.68 600.52 117.31 600.52 120.64 601.82 123.98 606.27 130.48 605.34 130.85 582.53 131.03 563.98 131.22 546.73 131.4 546.91 117.49 529.48 117.31 529.66 93.75 530.03 88.74 533.93 90.41 540.05 91.52 548.03 92.26 551.92 92.08 556.56 90.78 561.57 90.04 570.66 91.71 576.78 89.67 583.08 85.96 587.16 84.47 595.51 79.65 603.86 74.09 611.09 68.52 618.88 65.18 Z" id="39035"/>
<path d="M 370.32 182.97 389.61 183.16 389.61 205.6 389.24 236.02 364.94 235.84 364.94 237.14 347.32 237.32 318.01 237.51 317.83 187.61 317.64 183.71 332.11 183.53 364.57 183.71 365.87 182.97 370.32 182.97 Z" id="39033"/>
<path d="M 578.08 285.36 577.52 299.09 595.33 299.65 594.03 326.91 585.68 326.73 585.31 339.71 576.59 339.71 557.11 338.97 524.1 338.23 506.85 337.67 489.22 336.93 490.15 323.58 487.74 323.58 489.04 300.02 489.78 283.14 507.4 283.88 508.33 283.69 543.76 284.81 578.08 285.36 Z" id="39031"/>
<path d="M 771.73 259.77 756.52 259.77 756.52 257.17 739.83 256.98 735.19 256.61 735.38 248.64 724.8 248.64 724.99 237.88 724.8 233.05 693.45 232.87 693.45 200.78 728.7 200.78 728.88 195.4 742.61 195.4 742.61 200.78 799 200.96 799 220.07 798.81 249.38 793.06 251.05 788.24 253.64 783.05 251.79 779.52 252.72 777.11 254.2 772.66 257.91 771.73 259.77 Z" id="39029"/>
<path d="M 177.96 507.59 154.22 506.29 151.81 506.1 156.07 460.66 157.37 447.86 214.32 451.38 231.76 452.31 228.97 483.1 214.88 491.45 192.8 504.8 191.32 508.51 188.16 512.04 183.53 512.04 183.9 507.77 177.96 507.59 Z" id="39027"/>
<path d="M 154.22 506.29 153.11 521.5 152.18 526.14 145.5 576.59 145.13 581.79 143.27 595.51 138.82 595.51 124.73 591.62 115.08 589.95 111.18 587.54 109.7 583.27 109.89 575.85 108.96 572.88 106.18 569.36 99.13 561.2 98.01 558.97 96.9 553.4 93.93 549.32 96.34 531.7 97.46 520.94 99.31 519.83 101.35 516.86 100.43 513.89 95.23 514.82 93.75 511.67 98.01 509.07 98.38 507.59 104.51 504.25 104.88 503.32 151.81 506.1 154.22 506.29 Z" id="39025"/>
<path d="M 218.59 410.02 218.59 409.46 201.52 408.53 201.15 407.05 184.83 405.38 185.2 400.93 164.05 399.63 164.24 396.85 143.09 395.73 143.65 390.17 146.43 360.49 172.4 361.97 186.31 362.72 221.18 364.94 243.07 365.87 244 367.17 237.88 384.23 233.43 398.15 229.53 410.76 218.59 410.02 Z" id="39023"/>
<path d="M 245.11 347.32 243.07 365.87 221.18 364.94 186.31 362.72 172.4 361.97 146.43 360.49 146.61 357.52 148.84 333.78 150.51 317.08 156.26 317.64 193.17 319.68 192.99 322.46 236.39 325.43 246.97 326.17 245.11 347.32 Z" id="39021"/>
<path d="M 693.45 232.87 724.8 233.05 724.99 237.88 724.8 248.64 735.38 248.64 735.19 256.61 735 264.96 724.25 264.77 723.69 281.1 720.72 280.91 720.35 289.07 693.82 288.52 691.04 287.96 670.64 287.4 670.27 287.96 659.51 287.4 659.88 272.75 660.62 263.1 649.86 262.73 650.79 246.97 664.89 247.15 665.63 233.61 672.68 233.98 672.68 232.68 693.45 232.87 Z" id="39019"/>
<path d="M 64.25 443.96 85.21 443.96 85.4 451.94 86.51 452.5 91.52 451.94 90.04 468.82 90.59 469.75 89.11 482.36 87.63 499.24 81.13 498.31 73.53 498.13 67.04 497.2 63.51 497.57 59.43 496.64 55.91 497.2 48.67 496.27 41.99 496.09 36.06 495.53 34.02 496.83 22.7 496.83 1.19 496.64 1.19 487.92 1.56 476.8 1.93 448.04 43.48 448.04 64.25 448.04 64.25 443.96 Z" id="39017"/>
<path d="M 213.76 549.69 209.31 597.55 207.83 620.37 205.42 619.26 198.55 618.51 196.33 617.59 194.84 615.73 193.54 611.65 191.13 608.5 185.94 607.2 182.6 604.97 181.3 600.71 179.63 598.67 177.41 597.74 167.02 595.51 163.68 593.66 160.53 592.91 143.27 595.51 145.13 581.79 145.5 576.59 152.18 526.14 153.11 521.5 154.22 506.29 177.96 507.59 177.78 527.06 177.03 549.51 187.05 549.69 208.38 549.51 213.76 549.69 Z" id="39015"/>
<path d="M 764.68 338.79 763.57 343.05 764.13 347.5 763.38 348.99 759.49 351.77 758.19 354.74 759.49 357.34 759.3 360.68 758.01 363.64 757.63 366.43 758.38 372.18 757.63 373.66 754.48 375.89 753.55 378.3 755.41 382.93 753.18 384.79 749.66 383.31 746.13 383.49 745.39 384.79 747.06 388.31 748.36 389.61 748.92 392.02 746.5 394.25 742.98 395.73 711.63 394.44 706.44 393.88 686.03 393.14 683.99 392.77 665.63 392.58 666.19 377 667.67 336.38 667.67 335.82 688.82 336.19 689.56 336.75 711.26 337.67 731.29 338.23 752.81 339.16 753 338.23 764.68 338.79 Z" id="39013"/>
<path d="M 175.37 248.27 175.37 267.93 169.43 268.67 154.22 268.67 154.4 278.32 152.74 278.32 90.22 278.69 90.22 297.61 72.6 297.79 72.6 302.06 68.71 301.5 68.71 265.33 68.52 240.85 79.46 240.85 111.74 240.66 111.93 246.04 133.07 245.85 133.07 248.64 143.65 248.45 175.37 248.27 Z" id="39011"/>
<path d="M 552.85 469.93 551.36 494.42 554.89 494.6 554.7 497.2 558.04 497.38 557.86 502.76 576.03 503.14 575.85 513.34 573.25 516.86 570.1 519.83 532.07 518.35 509.44 517.42 474.2 515.56 475.87 499.05 468.82 498.68 470.3 482.17 471.97 465.67 493.12 466.96 494.6 450.27 515.19 451.2 513.52 467.89 517.79 468.45 535.78 469 552.85 469.93 Z" id="39009"/>
<path d="M 798.81 89.85 780.27 90.04 744.65 89.48 734.08 89.67 709.03 89.3 709.03 49.79 709.22 24.19 718.87 22.52 727.58 21.22 737.6 17.69 743.35 16.03 746.5 14.17 749.66 14.36 754.85 12.5 760.05 11.94 768.58 9.72 774.14 7.86 778.6 7.31 784.35 5.08 794.36 2.67 799 1 798.81 17.69 799 43.85 798.81 89.85 Z" id="39007"/>
<path d="M 500.17 183.9 500.54 223.59 500.72 244 483.1 244 483.29 262.55 461.58 264.96 461.21 233.05 453.98 233.05 453.98 221.74 451.75 220.07 452.12 218.03 448.41 218.03 446.74 216.92 447.12 214.32 446.56 183.71 443.78 183.71 443.03 170.36 461.58 170.17 492.38 170.54 491.82 183.9 500.17 183.9 Z" id="39005"/>
<path d="M 175.37 248.27 143.65 248.45 133.07 248.64 133.07 245.85 111.93 246.04 111.74 240.66 79.46 240.85 79.28 216.55 90.04 216.55 89.85 208.57 100.05 208.38 132.7 208.2 132.7 200.22 154.03 200.04 154.03 197.25 175.37 197.07 175.37 215.8 175.37 232.13 175.37 248.27 Z" id="39003"/>
<path d="M 288.33 550.44 288.89 579.19 288.89 624.63 285.36 627.6 281.65 627.79 279.43 625.93 277.39 620.37 269.97 616.66 264.77 615.73 253.27 614.43 245.3 609.42 241.59 608.68 238.62 608.87 230.64 610.91 225.08 611.84 222.11 613.5 220.63 616.29 219.51 620.92 216.73 622.78 214.69 622.78 207.83 620.37 209.31 597.55 213.76 549.69 225.08 550.07 243.63 546.54 267 543.2 280.17 543.76 281.84 545.43 288.33 550.44 Z" id="39001"/>
</g>
</svg>