<svg
    width="60"
    height="60"
    viewBox="0 0 191 184"
    xmlns="http://www.w3.org/2000/svg">
    <path
        d="m 73.093179,166.61227 c -2.769162,-3.33663 1.560678,-8.06371 15.204031,-16.5989 3.738465,-2.33875 6.662859,-4.38663 6.498653,-4.55084 -0.164206,-0.16421 -2.758518,0.33955 -5.765138,1.11946 -22.397713,5.80989 -55.884443,-7.49238 -62.488885,-24.82308 -1.580658,-4.1478 -1.646923,-5.31194 -0.529536,-9.30285 2.554736,-9.12463 13.842249,-18.183621 26.792261,-21.502609 l 4.908073,-1.257902 -1.264829,-4.202708 C 52.676563,72.961943 52.763195,53.798604 56.646689,41.5 61.469847,26.225581 72.062404,17.584433 86,17.554291 107.63493,17.507504 124.10804,41.294747 124.05093,72.5 c -0.0313,17.094571 -4.27037,32.51396 -14.61822,53.17277 -3.5046,6.9967 -6.24692,12.84635 -6.09404,12.99923 0.15288,0.15289 3.85172,-2.5492 8.21965,-6.00462 27.77253,-21.97059 48.64159,-63.856629 43.57837,-87.465621 -2.41066,-11.24053 -8.83232,-20.131464 -16.11669,-22.313912 -3.31427,-0.99298 -4.67745,-0.908479 -8.42351,0.522154 -4.10597,1.568084 -9.44045,6.440179 -12.22921,11.169201 -0.62299,1.056439 -1.44367,1.625117 -1.82373,1.263728 -1.14722,-1.090849 2.08051,-6.270568 6.261,-10.047391 12.35818,-11.164871 26.69035,-5.105619 33.12854,14.005839 4.58848,13.6207 1.39838,31.639102 -9.41865,53.198622 -5.79924,11.55851 -13.9654,22.55856 -24.68399,33.25 -5.37611,5.3625 -9.60821,9.75 -9.40467,9.75 0.20354,0 2.32851,-1.11958 4.72215,-2.48795 4.70626,-2.69044 5.85207,-3.00621 5.85207,-1.61275 0,0.49462 -5.7375,4.0631 -12.75,7.92996 -12.229429,6.7436 -12.984102,7.34994 -18.483713,14.8507 -7.773286,10.60175 -15.617393,15.61422 -18.673108,11.93231 z m 5.826439,-2.0707 C 81.914798,162.9927 91,153.43493 91,151.83283 c 0,-1.16071 -0.82362,-0.70227 -8.736826,4.86307 -6.105109,4.29371 -8.822947,7.41099 -7.561324,8.67262 0.861883,0.86188 1.006914,0.83344 4.217768,-0.82695 z M 89.423067,144.08849 C 98.571083,141.89946 98.685349,141.78753 105.84635,128 123.80735,93.418532 126.70826,65.965748 114.98671,41.5 106.15499,23.066014 90.51161,15.422431 75.145235,22.032868 65.821675,26.043755 59.490763,35.699793 56.808784,50 c -1.38605,7.390368 -0.407529,28.184214 1.635273,34.75 1.550078,4.982116 1.806715,5.25 5.029584,5.25 6.939425,0 12.952957,4.084196 16.677432,11.32677 2.787749,5.42103 2.180816,8.09317 -1.928044,8.4886 -2.491634,0.23979 -4.451131,-0.54654 -8.176382,-3.28113 -4.22696,-3.10287 -10.1464,-10.3335 -11.304898,-13.808992 -0.517442,-1.552328 -8.83478,0.826791 -16.062679,4.594621 -6.946094,3.620931 -12.858709,9.998641 -14.572518,15.718831 -1.145996,3.82499 -1.036061,4.58509 1.376287,9.51575 5.99719,12.25782 27.596089,23.1026 46.517161,23.35622 3.025,0.0405 9.06538,-0.77943 13.423067,-1.82218 z M 80,106.96016 C 80,105.05697 76.227074,98.530173 73.847318,96.316612 69.809634,92.56091 61.967198,90.526161 62.02782,93.25 c 0.04443,1.996326 5.480374,8.64511 9.64609,11.79827 3.793264,2.87124 8.32609,3.9121 8.32609,1.91189 z"
        stroke="black"
        fill="solid" />
</svg>

